<?xml version="1.0" encoding="UTF-8"?>
<svg
   version="1.1"
   viewBox="0 0 511.64838 616.01672"
   xmlns="http://www.w3.org/2000/svg">
  <path
    d="m 405.80993,0.81675029 c -8,1.00000001 -18.4,4.00000001 -25.9,7.30000001 -2.8,1.3 -62,35.0999997 -131.6,75.2999997 -69.6,40.2 -128.9,74.3 -131.9,75.7 -29.399998,14.9 -66.099998,-2.4 -74.499998,-35.1 -8.9,-34.4 19.4,-68.4 55,-66 19.199998,1.3 33.299998,10.6 44.499998,29.4 l 5.5,9.2 17,-9.8 c 11.1,-6.4 16.9,-10.3 16.8,-11.3 -0.2,-2.6 -9.5,-17.5 -15.2,-24.4 -13.3,-16.1 -33.8,-28.2 -54.7,-32.1 -10.2,-1.9 -31.199998,-1.3 -40.499998,1.2 -35,9.5 -61.2000003,37 -68.6000003,71.9 -1.99999998,9.7 -1.99999998,28.1 0.1,38.1 6.3,30.2 28.3000003,56.5 56.6000003,67.8 11.3,4.5 17.9,5.8 31.9,6.4 15.799998,0.6 26.999998,-1.4 39.899998,-7 4.2,-1.8 64.2,-36 133.3,-76 69.2,-40 128,-73.8 130.8,-75.2 20.2,-10.2 45.2,-6.1 61.5,10.1 20.6,20.7 20.7,54.3 0.1,74.8 -10.5,10.5 -22.9,15.6 -37.5,15.6 -10.5,-0.1 -15.7,-1.2 -24.1,-5.3 -9.2,-4.5 -17.5,-12.8 -24,-23.6 -3.5,-6 -5.8,-9 -6.7,-8.7 -2.7,1.1 -217,125 -223.5,129.3 -34,22.3 -40.799998,70.4 -14.6,102 8.8,10.6 22.9,19.4 36.3,22.8 12.9,3.3 32.4,1.6 44.6,-3.8 3,-1.3 29.7,-16.4 59.4,-33.6 29.6,-17.1 55.9,-31.8 58.2,-32.6 18.5,-6.3 37.6,7.7 37.6,27.5 0,7.9 -3.8,16.6 -9.3,21.2 -2.9,2.5 -56,33.4 -180.1,104.9 l -15.6,9 -6.6,-6.5 c -15.9,-15.6 -44,-23.3 -70.199998,-19.3 -30.9,4.8 -56.4,23.4 -70.4000003,51.3 -10.8,21.8 -12.4,48.8 -4.3,72.4 10.0000003,28.9 34.9000003,51.7 65.1000003,59.7 7.9,2.1 11.9,2.6 22.6,2.6 14.899998,0 23.499998,-1.6 35.799998,-6.5 4.5,-1.9 65.1,-36.3 134.7,-76.5 69.6,-40.2 128.9,-74.3 131.9,-75.7 29.4,-14.9 66.1,2.4 74.5,35.1 8.9,34.4 -19.4,68.4 -55,66 -19.2,-1.3 -33.3,-10.6 -44.5,-29.4 l -5.5,-9.2 -17,9.8 c -11.1,6.4 -16.9,10.3 -16.8,11.3 0.2,2.6 9.5,17.5 15.2,24.4 13.3,16.1 33.8,28.2 54.7,32.1 10.2,1.9 31.2,1.3 40.5,-1.2 35,-9.5 61.2,-37 68.6,-71.9 2,-9.7 2,-28.1 -0.1,-38.1 -6.3,-30.2 -28.3,-56.5 -56.6,-67.8 -11.3,-4.5 -17.9,-5.8 -31.9,-6.4 -15.8,-0.6 -27,1.4 -39.9,7 -4.2,1.8 -64.2,36 -133.3,76 -69.2,40 -128,73.8 -130.8,75.2 -20.199998,10.2 -45.199998,6.1 -61.499998,-10.1 -20.6,-20.7 -20.7,-54.3 -0.1,-74.8 10.4,-10.3 23.1,-15.7 37.2,-15.7 10.199998,0 16.099998,1.4 24.399998,5.4 9.2,4.5 17.5,12.8 24,23.6 3.4,5.8 5.8,9 6.7,8.7 2.6,-1.1 217.1,-125 223.5,-129.3 14.8,-9.7 26.2,-26.9 29.4,-44.3 5.9,-31 -9.1,-61.3 -37.1,-75 -10.7,-5.3 -18,-7 -30,-7.1 -11,-0.1 -20.2,1.7 -28.6,5.4 -3,1.3 -29.7,16.4 -59.4,33.6 -29.7,17.2 -55.9,31.8 -58.3,32.6 -18.4,6.3 -37.5,-7.7 -37.5,-27.5 0,-7.9 3.8,-16.6 9.3,-21.2 2.9,-2.5 65.5,-38.9 176.6,-102.9 l 19.1,-11 6.6,6.5 c 15.9,15.6 44,23.3 70.2,19.3 30.9,-4.8 56.4,-23.4 70.4,-51.3 12.7,-25.6 12.6,-57.8 -0.4,-83.4 -17.8,-35.3 -57.2,-56.1999997 -96,-50.89999971 z"
    fill="#a9caff"
  />
</svg>
