<?xml version="1.0" standalone="no"?>
<!DOCTYPE svg PUBLIC "-//W3C//DTD SVG 1.1//EN" "http://www.w3.org/Graphics/SVG/1.1/DTD/svg11.dtd" >
<svg xmlns="http://www.w3.org/2000/svg" xmlns:xlink="http://www.w3.org/1999/xlink" version="1.1">
<metadata>
Created by FontForge 20230101 at Fri Mar 17 14:10:02 2023
 By Webmaster
Copyright 2021 The Outfit Project Authors (https://github.com/Outfitio/Outfit-Fonts)
</metadata>
<defs>
<font id="Outfit-ExtraBold" horiz-adv-x="603" >
  <font-face 
    font-family="Outfit ExtraBold"
    font-weight="800"
    font-stretch="normal"
    units-per-em="1000"
    panose-1="0 0 0 0 0 0 0 0 0 0"
    ascent="800"
    descent="-200"
    x-height="489"
    cap-height="709"
    bbox="-129 -413 3906 1022"
    underline-thickness="50"
    underline-position="-125"
    unicode-range="U+000D-FB02"
  />
<missing-glyph horiz-adv-x="671" 
d="M63 0v709h545v-709h-545zM182 119h307v471h-307v-471zM206 426l58 59l201 -201l-58 -59zM411 491l60 -60l-212 -212l-59 61z" />
    <glyph glyph-name="f_f" unicode="ff" horiz-adv-x="769" 
d="M111 0v499q0 67 27 119t79 82.5t124 30.5q73 0 123 -29t75.5 -73.5t25.5 -91.5l-137 -23q0 33 -19 51.5t-53 18.5q-33 0 -52 -18.5t-19 -50.5v-515h-174zM7 344v145h733v-145h-733zM428 0v519q0 62 27 112t77.5 80t121.5 30q53 0 93 -17.5t69 -46.5l-109 -109
q-8 9 -19.5 13.5t-26.5 4.5q-27 0 -43 -16t-16 -43v-527h-174z" />
    <glyph glyph-name="f_j" unicode="fj" horiz-adv-x="665" 
d="M111 0v525q0 60 26 108.5t75.5 78t118.5 29.5q32 0 59.5 -8t55.5 -25l-79 -132q-9 5 -17.5 7.5t-18.5 2.5q-22 0 -34 -13.5t-12 -35.5v-537h-174zM7 344v145h500v-145h-500zM411 -222q-54 0 -93.5 18.5t-67.5 49.5l107 107q10 -11 20.5 -15.5t21.5 -4.5q20 0 32 11t12 36
v509h174v-506q0 -61 -26 -107t-72.5 -72t-107.5 -26zM530 521q-37 0 -61.5 25t-24.5 62t24.5 62.5t61.5 25.5q38 0 62 -25.5t24 -62.5t-24 -62t-62 -25z" />
    <glyph glyph-name="fi" unicode="fi" horiz-adv-x="666" 
d="M111 0v525q0 60 26 108.5t75.5 78t118.5 29.5q32 0 59.5 -8t55.5 -25l-79 -132q-9 5 -17.5 7.5t-18.5 2.5q-22 0 -34 -13.5t-12 -35.5v-537h-174zM7 344v145h500v-145h-500zM443 0v489h174v-489h-174zM530 521q-37 0 -61.5 25t-24.5 62t24.5 62.5t61.5 25.5
q38 0 62 -25.5t24 -62.5t-24 -62t-62 -25z" />
    <glyph glyph-name="fl" unicode="fl" horiz-adv-x="653" 
d="M111 0v517q0 61 27 112t79.5 81.5t126.5 30.5l-1 -155q-26 0 -42 -17.5t-16 -44.5v-524h-174zM7 344v145h497v-145h-497zM428 0v729h174v-729h-174z" />
    <glyph glyph-name="o_u_t_f_i_t" unicode="outfit" horiz-adv-x="2491" 
d="M292 -11q-79 0 -140.5 33.5t-97.5 92t-36 131.5t35.5 130.5t97.5 91t140 33.5t139.5 -33.5t97.5 -91t36 -130.5t-35.5 -131.5t-97 -92t-139.5 -33.5zM291 144q29 0 50.5 12.5t33.5 35.5t12 53t-12.5 52.5t-33.5 35t-50 12.5q-28 0 -50 -13t-34 -35.5t-12 -52.5
q0 -29 12 -52t34 -35.5t50 -12.5zM857 -11q-69 0 -122.5 27.5t-84 77t-30.5 112.5v283h174v-283q0 -20 8 -35t22 -23t33 -8q28 0 45 18t17 48v283h175v-283q0 -64 -30.5 -113t-83.5 -76.5t-123 -27.5zM1022 344v145h1459v-145h-1459zM1225 0v691h175v-691h-175zM1542 0v525
q0 60 26.5 108.5t76 78t117.5 29.5q32 0 60 -8t55 -25l-79 -132q-9 5 -17.5 7.5t-18.5 2.5q-22 0 -33.5 -13.5t-11.5 -35.5v-537h-175zM1874 0v489h175v-489h-175zM1961 520q-36 0 -60.5 25.5t-24.5 61.5q0 37 24.5 62t60.5 25q38 0 62 -25t24 -62q0 -36 -24 -61.5
t-62 -25.5zM2191 0v691h175v-691h-175z" />
    <glyph glyph-name="o_u_t_f_i_t_t_e_d" unicode="outfitted" horiz-adv-x="3957" 
d="M292 -11q-79 0 -140.5 33.5t-97.5 92t-36 131.5t35.5 130.5t97.5 91t140 33.5t139.5 -33.5t97.5 -91t36 -130.5t-35.5 -131.5t-97 -92t-139.5 -33.5zM291 144q29 0 50.5 12.5t33.5 35.5t12 53t-12.5 52.5t-33.5 35t-50 12.5q-28 0 -50 -13t-34 -35.5t-12 -52.5
q0 -29 12 -52t34 -35.5t50 -12.5zM857 -11q-69 0 -122.5 27.5t-84 77t-30.5 112.5v283h174v-283q0 -20 8 -35t22 -23t33 -8q28 0 45 18t17 48v283h175v-283q0 -64 -30.5 -113t-83.5 -76.5t-123 -27.5zM1225 0v691h175v-691h-175zM1542 0v525q0 60 26.5 108.5t76 78
t117.5 29.5q32 0 60 -8t55 -25l-79 -132q-9 5 -17.5 7.5t-18.5 2.5q-22 0 -33.5 -13.5t-11.5 -35.5v-537h-175zM1874 0v489h175v-489h-175zM1022 344v145h1776v-145h-1776zM1961 520q-36 0 -60.5 25.5t-24.5 61.5q0 37 24.5 62t60.5 25q38 0 62 -25t24 -62q0 -36 -24 -61.5
t-62 -25.5zM2191 0v691h175v-691h-175zM2508 0v691h175v-691h-175zM3098 -11q-82 0 -145 32.5t-99 90.5t-36 133q0 74 35 131.5t95.5 91t136.5 33.5q74 0 131.5 -31.5t90 -87t32.5 -126.5q0 -15 -1.5 -30.5t-6.5 -35.5l-431 -2v112l362 3l-78 -49q-1 41 -12 67.5t-32 40.5
t-53 14q-33 0 -57 -16t-37 -45t-13 -70q0 -42 14 -71.5t40 -44.5t64 -15q36 0 63.5 12t49.5 37l91 -91q-36 -41 -87.5 -62t-116.5 -21zM3615 -10q-71 0 -125 33t-84.5 90.5t-30.5 130.5q0 74 30.5 132t84.5 90.5t125 32.5q47 0 86.5 -16.5t66.5 -46.5t32 -68v-239
q-5 -38 -31.5 -70t-66.5 -50.5t-87 -18.5zM3646 145q29 0 50.5 12.5t33.5 35t12 52.5q0 29 -12 51t-33.5 35t-49.5 13t-49.5 -13t-34 -35.5t-12.5 -50.5q0 -29 12 -51.5t34 -35.5t49 -13zM3736 0v131l25 120l-29 118v360h174v-729h-170z" />
    <glyph glyph-name="o_u_t_f_i_t_t_e_r" unicode="outfitter" horiz-adv-x="3807" 
d="M292 -11q-79 0 -140.5 33.5t-97.5 92t-36 131.5t35.5 130.5t97.5 91t140 33.5t139.5 -33.5t97.5 -91t36 -130.5t-35.5 -131.5t-97 -92t-139.5 -33.5zM291 144q29 0 50.5 12.5t33.5 35.5t12 53t-12.5 52.5t-33.5 35t-50 12.5q-28 0 -50 -13t-34 -35.5t-12 -52.5
q0 -29 12 -52t34 -35.5t50 -12.5zM857 -11q-69 0 -122.5 27.5t-84 77t-30.5 112.5v283h174v-283q0 -20 8 -35t22 -23t33 -8q28 0 45 18t17 48v283h175v-283q0 -64 -30.5 -113t-83.5 -76.5t-123 -27.5zM1225 0v691h175v-691h-175zM1542 0v525q0 60 26.5 108.5t76 78
t117.5 29.5q32 0 60 -8t55 -25l-79 -132q-9 5 -17.5 7.5t-18.5 2.5q-22 0 -33.5 -13.5t-11.5 -35.5v-537h-175zM1874 0v489h175v-489h-175zM1022 344v145h1776v-145h-1776zM1961 520q-36 0 -60.5 25.5t-24.5 61.5q0 37 24.5 62t60.5 25q38 0 62 -25t24 -62q0 -36 -24 -61.5
t-62 -25.5zM2191 0v691h175v-691h-175zM2508 0v691h175v-691h-175zM3098 -11q-82 0 -145 32.5t-99 90.5t-36 133q0 74 35 131.5t95.5 91t136.5 33.5q74 0 131.5 -31.5t90 -87t32.5 -126.5q0 -15 -1.5 -30.5t-6.5 -35.5l-431 -2v112l362 3l-78 -49q-1 41 -12 67.5t-32 40.5
t-53 14q-33 0 -57 -16t-37 -45t-13 -70q0 -42 14 -71.5t40 -44.5t64 -15q36 0 63.5 12t49.5 37l91 -91q-36 -41 -87.5 -62t-116.5 -21zM3405 0v489h174v-489h-174zM3579 266l-77 66q28 83 76 125t126 42q34 0 59.5 -9t43.5 -28l-101 -135q-8 9 -22 14.5t-33 5.5
q-34 0 -53 -20t-19 -61z" />
    <glyph glyph-name="t_t" unicode="tt" horiz-adv-x="727" 
d="M118 0v691h174v-691h-174zM10 344v145h707v-145h-707zM435 0v691h174v-691h-174z" />
    <glyph glyph-name=".notdef" horiz-adv-x="671" 
d="M63 0v709h545v-709h-545zM182 119h307v471h-307v-471zM206 426l58 59l201 -201l-58 -59zM411 491l60 -60l-212 -212l-59 61z" />
    <glyph glyph-name="A" unicode="A" horiz-adv-x="742" 
d="M11 0l275 709h173l272 -709h-187l-205 596h65l-210 -596h-183zM178 124v142h391v-142h-391z" />
    <glyph glyph-name="Aacute" unicode="&#xc1;" horiz-adv-x="742" 
d="M11 0l275 709h173l272 -709h-187l-205 596h65l-210 -596h-183zM178 124v142h391v-142h-391zM292 756l-50 86l175 142l83 -136z" />
    <glyph glyph-name="Abreve" unicode="&#x102;" horiz-adv-x="742" 
d="M11 0l275 709h173l272 -709h-187l-205 596h65l-210 -596h-183zM178 124v142h391v-142h-391zM568 945q0 -54 -26 -98.5t-70 -70.5t-99 -26q-57 0 -101.5 26t-70.5 70t-26 99h129q0 -30 19.5 -50t49.5 -20q19 0 33.5 9t23 25t8.5 36h130z" />
    <glyph glyph-name="uni01CD" unicode="&#x1cd;" horiz-adv-x="742" 
d="M11 0l275 709h173l272 -709h-187l-205 596h65l-210 -596h-183zM178 124v142h391v-142h-391zM517 966l50 -74l-151 -140h-90l-151 140l50 74l214 -116h-137z" />
    <glyph glyph-name="Acircumflex" unicode="&#xc2;" horiz-adv-x="742" 
d="M11 0l275 709h173l272 -709h-187l-205 596h65l-210 -596h-183zM178 124v142h391v-142h-391zM225 752l-50 74l151 140h91l151 -140l-50 -74l-215 117l137 -1z" />
    <glyph glyph-name="Adieresis" unicode="&#xc4;" horiz-adv-x="742" 
d="M11 0l275 709h173l272 -709h-187l-205 596h65l-210 -596h-183zM178 124v142h391v-142h-391zM259 763q-39 0 -65 27t-26 66t26 66t65 27q40 0 65.5 -27t25.5 -66t-25.5 -66t-65.5 -27zM484 763q-39 0 -65 27t-26 66t26 66t65 27q40 0 65.5 -27t25.5 -66t-25.5 -66
t-65.5 -27z" />
    <glyph glyph-name="Agrave" unicode="&#xc0;" horiz-adv-x="742" 
d="M11 0l275 709h173l272 -709h-187l-205 596h65l-210 -596h-183zM178 124v142h391v-142h-391zM431 761l-208 92l84 136l174 -142z" />
    <glyph glyph-name="Amacron" unicode="&#x100;" horiz-adv-x="742" 
d="M11 0l275 709h173l272 -709h-187l-205 596h65l-210 -596h-183zM178 124v142h391v-142h-391zM177 921h388v-125h-388v125z" />
    <glyph glyph-name="Aogonek" unicode="&#x104;" horiz-adv-x="742" 
d="M11 0l275 709h173l272 -709h-187l-205 596h65l-210 -596h-183zM178 124v142h391v-142h-391zM642 -217q-73 0 -116.5 31t-43.5 89q0 56 39 92.5t101 42.5l109 -38q-41 -12 -63 -30t-22 -47q0 -18 9 -27t26 -9q10 0 19 3.5t19 7.5l35 -88q-23 -13 -50.5 -20t-61.5 -7z" />
    <glyph glyph-name="Aring" unicode="&#xc5;" horiz-adv-x="742" 
d="M11 0l275 709h173l272 -709h-187l-205 596h65l-210 -596h-183zM178 124v142h391v-142h-391zM372 658q-39 0 -69.5 18t-48 47.5t-17.5 66.5q0 38 17.5 68t48 47.5t68.5 17.5t68.5 -17.5t48 -47.5t17.5 -67q0 -38 -17.5 -68t-48 -47.5t-67.5 -17.5zM372 746q18 0 30 13
t12 32t-12 31.5t-30 12.5q-20 0 -32 -13t-12 -32q0 -18 12 -31t32 -13z" />
    <glyph glyph-name="Atilde" unicode="&#xc3;" horiz-adv-x="742" 
d="M11 0l275 709h173l272 -709h-187l-205 596h65l-210 -596h-183zM178 124v142h391v-142h-391zM445 758q-32 0 -55.5 11t-43.5 21.5t-42 10.5q-23 0 -39.5 -9.5t-30.5 -30.5l-79 80q28 48 62.5 69t79.5 21q32 0 55.5 -10.5t43.5 -21.5t41 -11q24 0 40.5 10t29.5 30l79 -79
q-28 -48 -62 -69.5t-79 -21.5z" />
    <glyph glyph-name="AE" unicode="&#xc6;" horiz-adv-x="1000" 
d="M11 0l275 709h239v-151h-134l-197 -558h-183zM178 186v142h361v-142h-361zM607 0v151h355v-151h-355zM466 0v709h178v-709h-178zM607 288v147h319v-147h-319zM607 558v151h350v-151h-350z" />
    <glyph glyph-name="B" unicode="B" horiz-adv-x="650" 
d="M205 0v133h148q42 0 66.5 23.5t24.5 61.5q0 25 -11 44.5t-31.5 30t-48.5 10.5h-148v129h137q35 0 57.5 17.5t22.5 54.5t-22.5 54.5t-57.5 17.5h-137v133h180q66 0 114.5 -25t74.5 -67t26 -95q0 -71 -48.5 -117.5t-140.5 -57.5v60q102 -12 156 -65.5t54 -134.5
q0 -60 -30 -106.5t-84.5 -73.5t-128.5 -27h-173zM63 0v709h176v-709h-176z" />
    <glyph glyph-name="C" unicode="C" horiz-adv-x="692" 
d="M407 -11q-81 0 -150 27.5t-120.5 77t-80 116.5t-28.5 145q0 79 28.5 145.5t80 115.5t120 77t148.5 28q84 0 151 -26.5t118 -73.5l-120 -120q-25 28 -62 44t-87 16q-43 0 -78.5 -14t-61.5 -41.5t-40.5 -65.5t-14.5 -85t14.5 -85t40.5 -65.5t61.5 -42t78.5 -14.5
q50 0 88 15.5t65 44.5l120 -120q-52 -47 -117.5 -73t-153.5 -26z" />
    <glyph glyph-name="Cacute" unicode="&#x106;" horiz-adv-x="692" 
d="M407 -11q-81 0 -150 27.5t-120.5 77t-80 116.5t-28.5 145q0 79 28.5 145.5t80 115.5t120 77t148.5 28q84 0 151 -26.5t118 -73.5l-120 -120q-25 28 -62 44t-87 16q-43 0 -78.5 -14t-61.5 -41.5t-40.5 -65.5t-14.5 -85t14.5 -85t40.5 -65.5t61.5 -42t78.5 -14.5
q50 0 88 15.5t65 44.5l120 -120q-52 -47 -117.5 -73t-153.5 -26zM316 756l-50 86l175 142l83 -136z" />
    <glyph glyph-name="Ccaron" unicode="&#x10c;" horiz-adv-x="692" 
d="M407 -11q-81 0 -150 27.5t-120.5 77t-80 116.5t-28.5 145q0 79 28.5 145.5t80 115.5t120 77t148.5 28q84 0 151 -26.5t118 -73.5l-120 -120q-25 28 -62 44t-87 16q-43 0 -78.5 -14t-61.5 -41.5t-40.5 -65.5t-14.5 -85t14.5 -85t40.5 -65.5t61.5 -42t78.5 -14.5
q50 0 88 15.5t65 44.5l120 -120q-52 -47 -117.5 -73t-153.5 -26zM542 966l50 -74l-151 -140h-91l-151 140l50 74l214 -116h-137z" />
    <glyph glyph-name="Ccedilla" unicode="&#xc7;" horiz-adv-x="692" 
d="M407 -11q-81 0 -150 27.5t-120.5 77t-80 116.5t-28.5 145q0 79 28.5 145.5t80 115.5t120 77t148.5 28q84 0 151 -26.5t118 -73.5l-120 -120q-25 28 -62 44t-87 16q-43 0 -78.5 -14t-61.5 -41.5t-40.5 -65.5t-14.5 -85t14.5 -85t40.5 -65.5t61.5 -42t78.5 -14.5
q50 0 88 15.5t65 44.5l120 -120q-52 -47 -117.5 -73t-153.5 -26zM355 -217q-42 0 -70 9t-58 26l49 65q14 -9 29 -14t31 -5q19 0 26.5 5.5t7.5 14.5t-10.5 15t-33.5 6h-22l33 107h90l-28 -74l-46 39q69 0 105 -26.5t36 -70.5q0 -42 -38 -69.5t-101 -27.5z" />
    <glyph glyph-name="Cdotaccent" unicode="&#x10a;" horiz-adv-x="692" 
d="M407 -11q-81 0 -150 27.5t-120.5 77t-80 116.5t-28.5 145q0 79 28.5 145.5t80 115.5t120 77t148.5 28q84 0 151 -26.5t118 -73.5l-120 -120q-25 28 -62 44t-87 16q-43 0 -78.5 -14t-61.5 -41.5t-40.5 -65.5t-14.5 -85t14.5 -85t40.5 -65.5t61.5 -42t78.5 -14.5
q50 0 88 15.5t65 44.5l120 -120q-52 -47 -117.5 -73t-153.5 -26zM396 763q-39 0 -65 27t-26 66t26 66t65 27q41 0 66.5 -27t25.5 -66t-25.5 -66t-66.5 -27z" />
    <glyph glyph-name="D" unicode="D" horiz-adv-x="761" 
d="M184 0v154h170q60 0 104.5 23t68.5 68.5t24 110.5q0 64 -24.5 108.5t-68.5 67.5t-104 23h-178v154h179q82 0 151 -25.5t120 -72.5t79.5 -112t28.5 -144q0 -80 -28.5 -145t-79.5 -112t-119.5 -72.5t-149.5 -25.5h-173zM63 0v709h179v-709h-179z" />
    <glyph glyph-name="Eth" unicode="&#xd0;" horiz-adv-x="781" 
d="M20 423h384v-133h-384v133zM204 0v154h170q60 0 104.5 23t68.5 68.5t24 110.5q0 64 -24.5 108.5t-68.5 67.5t-104 23h-178v154h179q82 0 151 -25.5t120 -72.5t79.5 -112t28.5 -144q0 -80 -28.5 -145t-79.5 -112t-119.5 -72.5t-149.5 -25.5h-173zM83 0v709h179v-709h-179z
" />
    <glyph glyph-name="Dcaron" unicode="&#x10e;" horiz-adv-x="761" 
d="M184 0v154h170q60 0 104.5 23t68.5 68.5t24 110.5q0 64 -24.5 108.5t-68.5 67.5t-104 23h-178v154h179q82 0 151 -25.5t120 -72.5t79.5 -112t28.5 -144q0 -80 -28.5 -145t-79.5 -112t-119.5 -72.5t-149.5 -25.5h-173zM63 0v709h179v-709h-179zM501 966l50 -74l-151 -140
h-91l-151 140l50 74l214 -116h-137z" />
    <glyph glyph-name="Dcroat" unicode="&#x110;" horiz-adv-x="791" 
d="M0 285v139h475v-139h-475zM213 0v154h171q60 0 104 23t68.5 68.5t24.5 110.5q0 64 -25 108.5t-69 67.5t-103 23h-178v154h178q82 0 151.5 -25.5t120.5 -72.5t79 -112t28 -144q0 -80 -28 -145t-79 -112t-120 -72.5t-150 -25.5h-173zM93 0v709h179v-709h-179z" />
    <glyph glyph-name="E" unicode="E" horiz-adv-x="627" 
d="M63 0v709h179v-709h-179zM205 0v151h384v-151h-384zM205 288v147h348v-147h-348zM205 558v151h378v-151h-378z" />
    <glyph glyph-name="Eacute" unicode="&#xc9;" horiz-adv-x="627" 
d="M63 0v709h179v-709h-179zM205 0v151h384v-151h-384zM205 288v147h348v-147h-348zM205 558v151h378v-151h-378zM254 756l-50 86l175 142l83 -136z" />
    <glyph glyph-name="Ecaron" unicode="&#x11a;" horiz-adv-x="627" 
d="M63 0v709h179v-709h-179zM205 0v151h384v-151h-384zM205 288v147h348v-147h-348zM205 558v151h378v-151h-378zM480 966l50 -74l-151 -140h-91l-151 140l50 74l214 -116h-137z" />
    <glyph glyph-name="Ecircumflex" unicode="&#xca;" horiz-adv-x="627" 
d="M63 0v709h179v-709h-179zM205 0v151h384v-151h-384zM205 288v147h348v-147h-348zM205 558v151h378v-151h-378zM187 752l-50 74l151 140h91l151 -140l-50 -74l-215 117l137 -1z" />
    <glyph glyph-name="Edieresis" unicode="&#xcb;" horiz-adv-x="627" 
d="M63 0v709h179v-709h-179zM205 0v151h384v-151h-384zM205 288v147h348v-147h-348zM205 558v151h378v-151h-378zM222 763q-39 0 -65 27t-26 66t26 66t65 27q40 0 65.5 -27t25.5 -66t-25.5 -66t-65.5 -27zM447 763q-39 0 -65 27t-26 66t26 66t65 27q40 0 65.5 -27t25.5 -66
t-25.5 -66t-65.5 -27z" />
    <glyph glyph-name="Edotaccent" unicode="&#x116;" horiz-adv-x="627" 
d="M63 0v709h179v-709h-179zM205 0v151h384v-151h-384zM205 288v147h348v-147h-348zM205 558v151h378v-151h-378zM334 763q-39 0 -65 27t-26 66t26 66t65 27q41 0 66.5 -27t25.5 -66t-25.5 -66t-66.5 -27z" />
    <glyph glyph-name="Egrave" unicode="&#xc8;" horiz-adv-x="627" 
d="M63 0v709h179v-709h-179zM205 0v151h384v-151h-384zM205 288v147h348v-147h-348zM205 558v151h378v-151h-378zM393 761l-208 92l84 136l174 -142z" />
    <glyph glyph-name="Emacron" unicode="&#x112;" horiz-adv-x="627" 
d="M63 0v709h179v-709h-179zM205 0v151h384v-151h-384zM205 288v147h348v-147h-348zM205 558v151h378v-151h-378zM140 921h388v-125h-388v125z" />
    <glyph glyph-name="Eogonek" unicode="&#x118;" horiz-adv-x="627" 
d="M63 0v709h179v-709h-179zM205 0v151h384v-151h-384zM205 288v147h348v-147h-348zM205 558v151h378v-151h-378zM500 -217q-73 0 -116.5 31t-43.5 89q0 56 39 92.5t101 42.5l109 -38q-41 -12 -63 -30t-22 -47q0 -18 9 -27t26 -9q10 0 19 3.5t19 7.5l35 -88
q-23 -13 -50.5 -20t-61.5 -7z" />
    <glyph glyph-name="F" unicode="F" horiz-adv-x="602" 
d="M63 0v709h179v-709h-179zM205 265v151h351v-151h-351zM205 558v151h367v-151h-367z" />
    <glyph glyph-name="G" unicode="G" horiz-adv-x="791" 
d="M406 -11q-81 0 -149.5 27.5t-120 77.5t-80 116.5t-28.5 144.5q0 79 29.5 145.5t82.5 116t123.5 77t150.5 27.5q95 0 172 -33.5t125 -92.5l-120 -120q-36 43 -79 64.5t-100 21.5q-58 0 -103.5 -25.5t-72.5 -71.5t-27 -108t25.5 -109t70 -73t102.5 -26t98.5 22t62 64
t21.5 100l121 -78l-323 8v146h382v-27q0 -127 -46 -215t-127.5 -133.5t-189.5 -45.5z" />
    <glyph glyph-name="Gbreve" unicode="&#x11e;" horiz-adv-x="791" 
d="M406 -11q-81 0 -149.5 27.5t-120 77.5t-80 116.5t-28.5 144.5q0 79 29.5 145.5t82.5 116t123.5 77t150.5 27.5q95 0 172 -33.5t125 -92.5l-120 -120q-36 43 -79 64.5t-100 21.5q-58 0 -103.5 -25.5t-72.5 -71.5t-27 -108t25.5 -109t70 -73t102.5 -26t98.5 22t62 64
t21.5 100l121 -78l-323 8v146h382v-27q0 -127 -46 -215t-127.5 -133.5t-189.5 -45.5zM602 945q0 -54 -26 -98.5t-70 -70.5t-99 -26q-57 0 -101.5 26t-70.5 70t-26 99h129q0 -30 19.5 -50t49.5 -20q19 0 33.5 9t23 25t8.5 36h130z" />
    <glyph glyph-name="uni0122" unicode="&#x122;" horiz-adv-x="791" 
d="M406 -11q-81 0 -149.5 27.5t-120 77.5t-80 116.5t-28.5 144.5q0 79 29.5 145.5t82.5 116t123.5 77t150.5 27.5q95 0 172 -33.5t125 -92.5l-120 -120q-36 43 -79 64.5t-100 21.5q-58 0 -103.5 -25.5t-72.5 -71.5t-27 -108t25.5 -109t70 -73t102.5 -26t98.5 22t62 64
t21.5 100l121 -78l-323 8v146h382v-27q0 -127 -46 -215t-127.5 -133.5t-189.5 -45.5zM343 -413l-70 60l102 122l52 4q-12 -14 -25 -22.5t-26 -5.5q-32 7 -51.5 38t-10.5 70q9 41 42.5 65t76.5 15q40 -9 62.5 -44.5t13.5 -77.5q-3 -17 -14.5 -38.5t-39.5 -52.5z" />
    <glyph glyph-name="Gdotaccent" unicode="&#x120;" horiz-adv-x="791" 
d="M406 -11q-81 0 -149.5 27.5t-120 77.5t-80 116.5t-28.5 144.5q0 79 29.5 145.5t82.5 116t123.5 77t150.5 27.5q95 0 172 -33.5t125 -92.5l-120 -120q-36 43 -79 64.5t-100 21.5q-58 0 -103.5 -25.5t-72.5 -71.5t-27 -108t25.5 -109t70 -73t102.5 -26t98.5 22t62 64
t21.5 100l121 -78l-323 8v146h382v-27q0 -127 -46 -215t-127.5 -133.5t-189.5 -45.5zM406 763q-39 0 -65 27t-26 66t26 66t65 27q41 0 66.5 -27t25.5 -66t-25.5 -66t-66.5 -27z" />
    <glyph glyph-name="H" unicode="H" horiz-adv-x="739" 
d="M63 0v709h179v-709h-179zM497 0v709h179v-709h-179zM165 288v150h397v-150h-397z" />
    <glyph glyph-name="Hbar" unicode="&#x126;" horiz-adv-x="739" 
d="M0 498v138h739v-138h-739zM63 0v709h179v-709h-179zM497 0v709h179v-709h-179zM165 288v150h397v-150h-397z" />
    <glyph glyph-name="I" unicode="I" horiz-adv-x="305" 
d="M63 0v709h179v-709h-179z" />
    <glyph glyph-name="IJ" unicode="&#x132;" horiz-adv-x="730" 
d="M399 -11q-70 0 -120.5 24.5t-88.5 69.5l116 115q18 -25 42.5 -37.5t55.5 -12.5q27 0 48.5 11.5t34 34t12.5 57.5v458h179v-450q0 -84 -33.5 -144.5t-96 -93t-149.5 -32.5zM64 220v489h174v-489h-174z" />
    <glyph glyph-name="Iacute" unicode="&#xcd;" horiz-adv-x="305" 
d="M63 0v709h179v-709h-179zM73 756l-50 86l175 142l83 -136z" />
    <glyph glyph-name="Icircumflex" unicode="&#xce;" horiz-adv-x="305" 
d="M63 0v709h179v-709h-179zM6 752l-50 74l151 140h91l151 -140l-50 -74l-215 117l137 -1z" />
    <glyph glyph-name="Idieresis" unicode="&#xcf;" horiz-adv-x="305" 
d="M63 0v709h179v-709h-179zM41 763q-39 0 -65 27t-26 66t26 66t65 27q40 0 65.5 -27t25.5 -66t-25.5 -66t-65.5 -27zM266 763q-39 0 -65 27t-26 66t26 66t65 27q40 0 65.5 -27t25.5 -66t-25.5 -66t-65.5 -27z" />
    <glyph glyph-name="Idotaccent" unicode="&#x130;" horiz-adv-x="305" 
d="M63 0v709h179v-709h-179zM153 763q-39 0 -65 27t-26 66t26 66t65 27q41 0 66.5 -27t25.5 -66t-25.5 -66t-66.5 -27z" />
    <glyph glyph-name="Igrave" unicode="&#xcc;" horiz-adv-x="305" 
d="M63 0v709h179v-709h-179zM212 761l-208 92l84 136l174 -142z" />
    <glyph glyph-name="Imacron" unicode="&#x12a;" horiz-adv-x="305" 
d="M-37 921h379v-125h-379v125zM63 0v709h179v-709h-179z" />
    <glyph glyph-name="Iogonek" unicode="&#x12e;" horiz-adv-x="305" 
d="M63 0v709h179v-709h-179zM153 -217q-73 0 -116.5 31t-43.5 89q0 56 39 92.5t101 42.5l109 -38q-41 -12 -63 -30t-22 -47q0 -18 9 -27t26 -9q10 0 19 3.5t19 7.5l35 -88q-23 -13 -50.5 -20t-61.5 -7z" />
    <glyph glyph-name="J" unicode="J" horiz-adv-x="550" 
d="M219 -11q-70 0 -120.5 24.5t-88.5 69.5l116 115q18 -25 42.5 -37.5t55.5 -12.5q27 0 48.5 11.5t34 34t12.5 57.5v458h179v-450q0 -84 -33.5 -144.5t-96 -93t-149.5 -32.5z" />
    <glyph glyph-name="K" unicode="K" horiz-adv-x="721" 
d="M493 0l-268 370l257 339h218l-293 -368v63l304 -404h-218zM63 0v709h179v-709h-179z" />
    <glyph glyph-name="uni0136" unicode="&#x136;" horiz-adv-x="721" 
d="M493 0l-268 370l257 339h218l-293 -368v63l304 -404h-218zM63 0v709h179v-709h-179zM275 -413l-70 60l102 122l52 4q-12 -14 -25 -22.5t-26 -5.5q-32 7 -51.5 38t-10.5 70q9 41 42.5 65t76.5 15q40 -9 62.5 -44.5t13.5 -77.5q-3 -17 -14.5 -38.5t-39.5 -52.5z" />
    <glyph glyph-name="L" unicode="L" horiz-adv-x="567" 
d="M63 0v709h179v-709h-179zM205 0v154h342v-154h-342z" />
    <glyph glyph-name="Lacute" unicode="&#x139;" horiz-adv-x="567" 
d="M63 0v709h179v-709h-179zM205 0v154h342v-154h-342zM226 756l-50 86l175 142l83 -136z" />
    <glyph glyph-name="Lcaron" unicode="&#x13d;" horiz-adv-x="567" 
d="M63 0v709h179v-709h-179zM205 0v154h342v-154h-342zM405 351l-81 45l75 141l50 14q-8 -16 -19 -26.5t-25 -10.5q-31 0 -57.5 26t-26.5 66q0 42 28.5 72.5t72.5 30.5q40 0 70 -30t30 -73q0 -18 -6.5 -41t-26.5 -60z" />
    <glyph glyph-name="uni013B" unicode="&#x13b;" horiz-adv-x="567" 
d="M63 0v709h179v-709h-179zM205 0v154h342v-154h-342zM242 -413l-70 60l102 122l52 4q-12 -14 -25 -22.5t-26 -5.5q-32 7 -51.5 38t-10.5 70q9 41 42.5 65t76.5 15q40 -9 62.5 -44.5t13.5 -77.5q-3 -17 -14.5 -38.5t-39.5 -52.5z" />
    <glyph glyph-name="Lslash" unicode="&#x141;" 
d="M51 358l305 177v-146l-305 -175v144zM100 0v709h178v-709h-178zM242 0v154h341v-154h-341z" />
    <glyph glyph-name="M" unicode="M" horiz-adv-x="866" 
d="M63 0v709h129l272 -411h-61l271 411h129v-709h-177v413l28 -8l-163 -245h-116l-162 245l28 8v-413h-178z" />
    <glyph glyph-name="N" unicode="N" horiz-adv-x="748" 
d="M63 0v709h125l54 -145v-564h-179zM552 0l-414 526l50 183l415 -526zM552 0l-46 149v560h179v-709h-133z" />
    <glyph glyph-name="Nacute" unicode="&#x143;" horiz-adv-x="748" 
d="M63 0v709h125l54 -145v-564h-179zM552 0l-414 526l50 183l415 -526zM552 0l-46 149v560h179v-709h-133zM295 756l-50 86l175 142l83 -136z" />
    <glyph glyph-name="Ncaron" unicode="&#x147;" horiz-adv-x="748" 
d="M63 0v709h125l54 -145v-564h-179zM552 0l-414 526l50 183l415 -526zM552 0l-46 149v560h179v-709h-133zM520 966l50 -74l-151 -140h-91l-151 140l50 74l215 -116h-137z" />
    <glyph glyph-name="uni0145" unicode="&#x145;" horiz-adv-x="748" 
d="M63 0v709h125l54 -145v-564h-179zM552 0l-414 526l50 183l415 -526zM552 0l-46 149v560h179v-709h-133zM311 -413l-70 60l102 122l52 4q-12 -14 -25 -22.5t-26 -5.5q-32 7 -51.5 38t-10.5 70q9 41 42.5 65t76.5 15q40 -9 62.5 -44.5t13.5 -77.5q-3 -17 -14.5 -38.5
t-39.5 -52.5z" />
    <glyph glyph-name="Ntilde" unicode="&#xd1;" horiz-adv-x="748" 
d="M63 0v709h125l54 -145v-564h-179zM552 0l-414 526l50 183l415 -526zM552 0l-46 149v560h179v-709h-133zM448 758q-32 0 -55.5 11t-43.5 21.5t-42 10.5q-23 0 -39.5 -9.5t-30.5 -30.5l-79 80q28 48 62.5 69t79.5 21q32 0 55.5 -10.5t43.5 -21.5t41 -11q24 0 40.5 10
t29.5 30l79 -79q-28 -48 -62 -69.5t-79 -21.5z" />
    <glyph glyph-name="Eng" unicode="&#x14a;" horiz-adv-x="748" 
d="M63 0v709h125l54 -145v-564h-179zM552 0l-414 526l50 183l415 -526zM552 0l-46 149v560h179v-709h-133zM479 -222q-54 0 -93.5 18.5t-67.5 49.5l107 107q10 -11 20.5 -15.5t21.5 -4.5q20 0 32 11t12 36v509h174v-506q0 -61 -26 -107t-72.5 -72t-107.5 -26z" />
    <glyph glyph-name="O" unicode="O" horiz-adv-x="812" 
d="M408 -13q-82 0 -151 28t-120.5 78t-80.5 117.5t-29 145.5t28.5 144.5t79.5 116.5t120 77.5t151 27.5t151 -27.5t120 -77.5t79.5 -117t28.5 -145t-28.5 -145t-79.5 -117.5t-119.5 -78t-149.5 -27.5zM406 147q60 0 104 26t68 73t24 110q0 46 -13.5 84t-39.5 65.5t-62 42.5
t-81 15q-60 0 -104 -25.5t-68 -72.5t-24 -109q0 -48 13.5 -86.5t39.5 -66t62 -42t81 -14.5z" />
    <glyph glyph-name="Oacute" unicode="&#xd3;" horiz-adv-x="812" 
d="M408 -13q-82 0 -151 28t-120.5 78t-80.5 117.5t-29 145.5t28.5 144.5t79.5 116.5t120 77.5t151 27.5t151 -27.5t120 -77.5t79.5 -117t28.5 -145t-28.5 -145t-79.5 -117.5t-119.5 -78t-149.5 -27.5zM406 147q60 0 104 26t68 73t24 110q0 46 -13.5 84t-39.5 65.5t-62 42.5
t-81 15q-60 0 -104 -25.5t-68 -72.5t-24 -109q0 -48 13.5 -86.5t39.5 -66t62 -42t81 -14.5zM327 756l-50 86l175 142l83 -136z" />
    <glyph glyph-name="Ocircumflex" unicode="&#xd4;" horiz-adv-x="812" 
d="M408 -13q-82 0 -151 28t-120.5 78t-80.5 117.5t-29 145.5t28.5 144.5t79.5 116.5t120 77.5t151 27.5t151 -27.5t120 -77.5t79.5 -117t28.5 -145t-28.5 -145t-79.5 -117.5t-119.5 -78t-149.5 -27.5zM406 147q60 0 104 26t68 73t24 110q0 46 -13.5 84t-39.5 65.5t-62 42.5
t-81 15q-60 0 -104 -25.5t-68 -72.5t-24 -109q0 -48 13.5 -86.5t39.5 -66t62 -42t81 -14.5zM259 752l-50 74l151 140h91l151 -140l-50 -74l-215 117l137 -1z" />
    <glyph glyph-name="Odieresis" unicode="&#xd6;" horiz-adv-x="812" 
d="M408 -13q-82 0 -151 28t-120.5 78t-80.5 117.5t-29 145.5t28.5 144.5t79.5 116.5t120 77.5t151 27.5t151 -27.5t120 -77.5t79.5 -117t28.5 -145t-28.5 -145t-79.5 -117.5t-119.5 -78t-149.5 -27.5zM406 147q60 0 104 26t68 73t24 110q0 46 -13.5 84t-39.5 65.5t-62 42.5
t-81 15q-60 0 -104 -25.5t-68 -72.5t-24 -109q0 -48 13.5 -86.5t39.5 -66t62 -42t81 -14.5zM294 763q-39 0 -65 27t-26 66t26 66t65 27q40 0 65.5 -27t25.5 -66t-25.5 -66t-65.5 -27zM519 763q-39 0 -65 27t-26 66t26 66t65 27q40 0 65.5 -27t25.5 -66t-25.5 -66t-65.5 -27z
" />
    <glyph glyph-name="Ograve" unicode="&#xd2;" horiz-adv-x="812" 
d="M408 -13q-82 0 -151 28t-120.5 78t-80.5 117.5t-29 145.5t28.5 144.5t79.5 116.5t120 77.5t151 27.5t151 -27.5t120 -77.5t79.5 -117t28.5 -145t-28.5 -145t-79.5 -117.5t-119.5 -78t-149.5 -27.5zM406 147q60 0 104 26t68 73t24 110q0 46 -13.5 84t-39.5 65.5t-62 42.5
t-81 15q-60 0 -104 -25.5t-68 -72.5t-24 -109q0 -48 13.5 -86.5t39.5 -66t62 -42t81 -14.5zM466 761l-208 92l84 136l174 -142z" />
    <glyph glyph-name="Ohungarumlaut" unicode="&#x150;" horiz-adv-x="812" 
d="M408 -13q-82 0 -151 28t-120.5 78t-80.5 117.5t-29 145.5t28.5 144.5t79.5 116.5t120 77.5t151 27.5t151 -27.5t120 -77.5t79.5 -117t28.5 -145t-28.5 -145t-79.5 -117.5t-119.5 -78t-149.5 -27.5zM406 147q60 0 104 26t68 73t24 110q0 46 -13.5 84t-39.5 65.5t-62 42.5
t-81 15q-60 0 -104 -25.5t-68 -72.5t-24 -109q0 -48 13.5 -86.5t39.5 -66t62 -42t81 -14.5zM264 763l-82 56l99 203l132 -88zM511 763l-82 56l99 203l132 -88z" />
    <glyph glyph-name="Omacron" unicode="&#x14c;" horiz-adv-x="812" 
d="M408 -13q-82 0 -151 28t-120.5 78t-80.5 117.5t-29 145.5t28.5 144.5t79.5 116.5t120 77.5t151 27.5t151 -27.5t120 -77.5t79.5 -117t28.5 -145t-28.5 -145t-79.5 -117.5t-119.5 -78t-149.5 -27.5zM406 147q60 0 104 26t68 73t24 110q0 46 -13.5 84t-39.5 65.5t-62 42.5
t-81 15q-60 0 -104 -25.5t-68 -72.5t-24 -109q0 -48 13.5 -86.5t39.5 -66t62 -42t81 -14.5zM212 921h388v-125h-388v125z" />
    <glyph glyph-name="Oslash" unicode="&#xd8;" horiz-adv-x="812" 
d="M683 741l110 -109l-664 -664l-110 110zM408 -13q-82 0 -151 28t-120.5 78t-80.5 117.5t-29 145.5t28.5 144.5t79.5 116.5t120 77.5t151 27.5t151 -27.5t120 -77.5t79.5 -117t28.5 -145t-28.5 -145t-79.5 -117.5t-119.5 -78t-149.5 -27.5zM406 147q60 0 104 26t68 73
t24 110q0 46 -13.5 84t-39.5 65.5t-62 42.5t-81 15q-60 0 -104 -25.5t-68 -72.5t-24 -109q0 -48 13.5 -86.5t39.5 -66t62 -42t81 -14.5z" />
    <glyph glyph-name="Otilde" unicode="&#xd5;" horiz-adv-x="812" 
d="M408 -13q-82 0 -151 28t-120.5 78t-80.5 117.5t-29 145.5t28.5 144.5t79.5 116.5t120 77.5t151 27.5t151 -27.5t120 -77.5t79.5 -117t28.5 -145t-28.5 -145t-79.5 -117.5t-119.5 -78t-149.5 -27.5zM406 147q60 0 104 26t68 73t24 110q0 46 -13.5 84t-39.5 65.5t-62 42.5
t-81 15q-60 0 -104 -25.5t-68 -72.5t-24 -109q0 -48 13.5 -86.5t39.5 -66t62 -42t81 -14.5zM480 758q-32 0 -55.5 11t-43.5 21.5t-42 10.5q-23 0 -39.5 -9.5t-30.5 -30.5l-79 80q28 48 62.5 69t79.5 21q32 0 55.5 -10.5t43.5 -21.5t41 -11q24 0 40.5 10t29.5 30l79 -79
q-28 -48 -62 -69.5t-79 -21.5z" />
    <glyph glyph-name="OE" unicode="&#x152;" horiz-adv-x="1166" 
d="M400 -13q-78 0 -146 28t-118.5 78t-79.5 117.5t-29 145.5t28.5 144.5t79 116.5t118 77.5t145.5 27.5q82 0 140.5 -27.5t96.5 -77.5t56.5 -117t18.5 -145t-18.5 -145t-56 -117.5t-96 -78t-139.5 -27.5zM406 147q60 0 104 26t68 73t24 110q0 62 -24.5 108.5t-68.5 72.5
t-103 26q-60 0 -104 -25.5t-68 -72.5t-24 -109q0 -48 13.5 -86.5t39.5 -66t62 -42t81 -14.5zM602 0v709h179v-709h-179zM743 0v151h385v-151h-385zM743 288v147h349v-147h-349zM743 558v151h379v-151h-379z" />
    <glyph glyph-name="P" unicode="P" horiz-adv-x="640" 
d="M205 254v133h140q26 0 47.5 10.5t34.5 31.5t13 52t-13 52.5t-34.5 32t-47.5 10.5h-140v133h171q68 0 123 -27.5t87 -78t32 -122.5q0 -70 -32 -121.5t-87 -78.5t-123 -27h-171zM63 0v709h179v-709h-179z" />
    <glyph glyph-name="Thorn" unicode="&#xde;" horiz-adv-x="640" 
d="M205 133v133h140q26 0 47.5 10.5t34.5 31.5t13 52t-13 52.5t-34.5 32t-47.5 10.5h-140v133h171q68 0 123 -27.5t87 -78t32 -122.5q0 -70 -32 -121.5t-87 -78.5t-123 -27h-171zM63 0v709h179v-709h-179z" />
    <glyph glyph-name="Q" unicode="Q" horiz-adv-x="819" 
d="M408 -13q-82 0 -151 28t-120.5 78t-80 117.5t-28.5 145.5t28 144.5t79 116.5t120 77.5t151 27.5t151 -27.5t120 -77.5t79.5 -117t28.5 -145t-28.5 -145t-79.5 -117.5t-119.5 -78t-149.5 -27.5zM720 -61l-338 338l100 99l337 -337zM406 147q60 0 104 26t68 73t24 110
q0 46 -13.5 84t-39.5 65.5t-62 42.5t-81 15q-59 0 -103.5 -25.5t-68.5 -72.5t-24 -109q0 -48 14 -86.5t39.5 -66t62 -42t80.5 -14.5z" />
    <glyph glyph-name="R" unicode="R" horiz-adv-x="663" 
d="M205 287v128h135q44 0 67.5 21.5t23.5 58.5q0 36 -23.5 58.5t-67.5 22.5h-135v133h160q72 0 126.5 -27t85.5 -74t31 -110t-31.5 -110.5t-87.5 -74t-131 -26.5h-153zM63 0v709h179v-709h-179zM447 0l-206 304l161 39l252 -343h-207z" />
    <glyph glyph-name="Racute" unicode="&#x154;" horiz-adv-x="663" 
d="M205 287v128h135q44 0 67.5 21.5t23.5 58.5q0 36 -23.5 58.5t-67.5 22.5h-135v133h160q72 0 126.5 -27t85.5 -74t31 -110t-31.5 -110.5t-87.5 -74t-131 -26.5h-153zM63 0v709h179v-709h-179zM447 0l-206 304l161 39l252 -343h-207zM219 756l-50 86l175 142l83 -136z" />
    <glyph glyph-name="Rcaron" unicode="&#x158;" horiz-adv-x="663" 
d="M205 287v128h135q44 0 67.5 21.5t23.5 58.5q0 36 -23.5 58.5t-67.5 22.5h-135v133h160q72 0 126.5 -27t85.5 -74t31 -110t-31.5 -110.5t-87.5 -74t-131 -26.5h-153zM63 0v709h179v-709h-179zM447 0l-206 304l161 39l252 -343h-207zM444 966l50 -74l-151 -140h-90
l-151 140l50 74l214 -116h-137z" />
    <glyph glyph-name="uni0156" unicode="&#x156;" horiz-adv-x="663" 
d="M205 287v128h135q44 0 67.5 21.5t23.5 58.5q0 36 -23.5 58.5t-67.5 22.5h-135v133h160q72 0 126.5 -27t85.5 -74t31 -110t-31.5 -110.5t-87.5 -74t-131 -26.5h-153zM63 0v709h179v-709h-179zM447 0l-206 304l161 39l252 -343h-207zM239 -413l-70 60l102 122l52 4
q-12 -14 -25 -22.5t-26 -5.5q-32 7 -51.5 38t-10.5 70q9 41 42.5 65t76.5 15q40 -9 62.5 -44.5t13.5 -77.5q-3 -17 -14.5 -38.5t-39.5 -52.5z" />
    <glyph glyph-name="S" unicode="S" horiz-adv-x="596" 
d="M285 -11q-89 0 -154.5 27t-119.5 85l113 114q37 -39 79 -59.5t95 -20.5q45 0 69.5 15.5t24.5 42.5q0 25 -18 41.5t-47.5 29t-65 24t-71 28t-65 40.5t-47.5 60t-18 89q0 68 32.5 116t90.5 74t135 26t142 -26t107 -72l-114 -113q-32 32 -65 48t-72 16q-37 0 -58 -13
t-21 -37t18 -39t47.5 -26.5t65 -23.5t70.5 -28t64.5 -41t47.5 -63t18 -92q0 -106 -74.5 -164t-208.5 -58z" />
    <glyph glyph-name="Sacute" unicode="&#x15a;" horiz-adv-x="596" 
d="M285 -11q-89 0 -154.5 27t-119.5 85l113 114q37 -39 79 -59.5t95 -20.5q45 0 69.5 15.5t24.5 42.5q0 25 -18 41.5t-47.5 29t-65 24t-71 28t-65 40.5t-47.5 60t-18 89q0 68 32.5 116t90.5 74t135 26t142 -26t107 -72l-114 -113q-32 32 -65 48t-72 16q-37 0 -58 -13
t-21 -37t18 -39t47.5 -26.5t65 -23.5t70.5 -28t64.5 -41t47.5 -63t18 -92q0 -106 -74.5 -164t-208.5 -58zM238 756l-50 86l175 142l83 -136z" />
    <glyph glyph-name="Scaron" unicode="&#x160;" horiz-adv-x="596" 
d="M285 -11q-89 0 -154.5 27t-119.5 85l113 114q37 -39 79 -59.5t95 -20.5q45 0 69.5 15.5t24.5 42.5q0 25 -18 41.5t-47.5 29t-65 24t-71 28t-65 40.5t-47.5 60t-18 89q0 68 32.5 116t90.5 74t135 26t142 -26t107 -72l-114 -113q-32 32 -65 48t-72 16q-37 0 -58 -13
t-21 -37t18 -39t47.5 -26.5t65 -23.5t70.5 -28t64.5 -41t47.5 -63t18 -92q0 -106 -74.5 -164t-208.5 -58zM464 966l50 -74l-151 -140h-91l-151 140l50 74l214 -116h-137z" />
    <glyph glyph-name="Scedilla" unicode="&#x15e;" horiz-adv-x="596" 
d="M285 -11q-89 0 -154.5 27t-119.5 85l113 114q37 -39 79 -59.5t95 -20.5q45 0 69.5 15.5t24.5 42.5q0 25 -18 41.5t-47.5 29t-65 24t-71 28t-65 40.5t-47.5 60t-18 89q0 68 32.5 116t90.5 74t135 26t142 -26t107 -72l-114 -113q-32 32 -65 48t-72 16q-37 0 -58 -13
t-21 -37t18 -39t47.5 -26.5t65 -23.5t70.5 -28t64.5 -41t47.5 -63t18 -92q0 -106 -74.5 -164t-208.5 -58zM263 -217q-42 0 -70 9t-58 26l49 65q14 -9 29 -14t31 -5q19 0 26.5 5.5t7.5 14.5t-10.5 15t-33.5 6h-22l33 107h90l-28 -74l-46 39q69 0 105 -26.5t36 -70.5
q0 -42 -38 -69.5t-101 -27.5z" />
    <glyph glyph-name="uni0218" unicode="&#x218;" horiz-adv-x="596" 
d="M285 -11q-89 0 -154.5 27t-119.5 85l113 114q37 -39 79 -59.5t95 -20.5q45 0 69.5 15.5t24.5 42.5q0 25 -18 41.5t-47.5 29t-65 24t-71 28t-65 40.5t-47.5 60t-18 89q0 68 32.5 116t90.5 74t135 26t142 -26t107 -72l-114 -113q-32 32 -65 48t-72 16q-37 0 -58 -13
t-21 -37t18 -39t47.5 -26.5t65 -23.5t70.5 -28t64.5 -41t47.5 -63t18 -92q0 -106 -74.5 -164t-208.5 -58zM226 -413l-70 60l102 122l52 4q-12 -14 -25 -22.5t-26 -5.5q-32 7 -51.5 38t-10.5 70q9 41 42.5 65t76.5 15q40 -9 62.5 -44.5t13.5 -77.5q-3 -17 -14.5 -38.5
t-39.5 -52.5z" />
    <glyph glyph-name="uni1E9E" unicode="&#x1e9e;" horiz-adv-x="750" 
d="M349 428l177 177l136 -43l-125 -134l-188 -97v97zM437 -2q-40 0 -73 5t-58 18v187q18 -26 54 -42.5t75 -16.5q33 0 58.5 11.5t40 33t14.5 51.5t-15 51.5t-42.5 33t-66.5 11.5q-19 0 -41 -2.5t-34 -7.5l78 97q31 8 57.5 13.5t47.5 5.5q54 0 97.5 -25t68.5 -71.5t25 -110.5
q0 -72 -35.5 -126.5t-99.5 -85t-151 -30.5zM389 734q48 0 96.5 -9t88.5 -20t64 -20l24 -9v-114l-19 2t-50 5.5t-68 6t-72.5 5t-63.5 2.5q-51 0 -85 -20.5t-50 -54t-16 -72.5v-436h-175v491q0 71 38 125.5t111 86t177 31.5z" />
    <glyph glyph-name="T" unicode="T" horiz-adv-x="649" 
d="M235 0v704h179v-704h-179zM18 555v154h613v-154h-613z" />
    <glyph glyph-name="Tcaron" unicode="&#x164;" horiz-adv-x="649" 
d="M235 0v704h179v-704h-179zM18 555v154h613v-154h-613zM470 966l50 -74l-151 -140h-90l-151 140l50 74l214 -116h-137z" />
    <glyph glyph-name="uni021A" unicode="&#x21a;" horiz-adv-x="649" 
d="M235 0v704h179v-704h-179zM18 555v154h613v-154h-613zM261 -413l-70 60l102 122l52 4q-12 -14 -25 -22.5t-26 -5.5q-32 7 -51.5 38t-10.5 70q9 41 42.5 65t76.5 15q40 -9 62.5 -44.5t13.5 -77.5q-3 -17 -14.5 -38.5t-39.5 -52.5z" />
    <glyph glyph-name="U" unicode="U" horiz-adv-x="708" 
d="M355 -11q-90 0 -158.5 37.5t-106.5 104.5t-38 152v426h178v-439q0 -38 16.5 -65.5t45 -42t63.5 -14.5q36 0 63 14.5t43 41.5t16 65v440h180v-427q0 -85 -38 -151.5t-105.5 -104t-158.5 -37.5z" />
    <glyph glyph-name="Uacute" unicode="&#xda;" horiz-adv-x="708" 
d="M355 -11q-90 0 -158.5 37.5t-106.5 104.5t-38 152v426h178v-439q0 -38 16.5 -65.5t45 -42t63.5 -14.5q36 0 63 14.5t43 41.5t16 65v440h180v-427q0 -85 -38 -151.5t-105.5 -104t-158.5 -37.5zM275 756l-50 86l175 142l83 -136z" />
    <glyph glyph-name="Ubreve" unicode="&#x16c;" horiz-adv-x="708" 
d="M355 -11q-90 0 -158.5 37.5t-106.5 104.5t-38 152v426h178v-439q0 -38 16.5 -65.5t45 -42t63.5 -14.5q36 0 63 14.5t43 41.5t16 65v440h180v-427q0 -85 -38 -151.5t-105.5 -104t-158.5 -37.5zM550 945q0 -54 -26 -98.5t-70 -70.5t-99 -26q-57 0 -101.5 26t-70.5 70
t-26 99h129q0 -30 19.5 -50t49.5 -20q19 0 33.5 9t23 25t8.5 36h130z" />
    <glyph glyph-name="Ucircumflex" unicode="&#xdb;" horiz-adv-x="708" 
d="M355 -11q-90 0 -158.5 37.5t-106.5 104.5t-38 152v426h178v-439q0 -38 16.5 -65.5t45 -42t63.5 -14.5q36 0 63 14.5t43 41.5t16 65v440h180v-427q0 -85 -38 -151.5t-105.5 -104t-158.5 -37.5zM207 752l-50 74l151 140h91l151 -140l-50 -74l-215 117l137 -1z" />
    <glyph glyph-name="Udieresis" unicode="&#xdc;" horiz-adv-x="708" 
d="M355 -11q-90 0 -158.5 37.5t-106.5 104.5t-38 152v426h178v-439q0 -38 16.5 -65.5t45 -42t63.5 -14.5q36 0 63 14.5t43 41.5t16 65v440h180v-427q0 -85 -38 -151.5t-105.5 -104t-158.5 -37.5zM242 763q-39 0 -65 27t-26 66t26 66t65 27q40 0 65.5 -27t25.5 -66t-25.5 -66
t-65.5 -27zM467 763q-39 0 -65 27t-26 66t26 66t65 27q40 0 65.5 -27t25.5 -66t-25.5 -66t-65.5 -27z" />
    <glyph glyph-name="Ugrave" unicode="&#xd9;" horiz-adv-x="708" 
d="M355 -11q-90 0 -158.5 37.5t-106.5 104.5t-38 152v426h178v-439q0 -38 16.5 -65.5t45 -42t63.5 -14.5q36 0 63 14.5t43 41.5t16 65v440h180v-427q0 -85 -38 -151.5t-105.5 -104t-158.5 -37.5zM414 761l-208 92l84 136l174 -142z" />
    <glyph glyph-name="Uhungarumlaut" unicode="&#x170;" horiz-adv-x="708" 
d="M355 -11q-90 0 -158.5 37.5t-106.5 104.5t-38 152v426h178v-439q0 -38 16.5 -65.5t45 -42t63.5 -14.5q36 0 63 14.5t43 41.5t16 65v440h180v-427q0 -85 -38 -151.5t-105.5 -104t-158.5 -37.5zM212 763l-82 56l99 203l132 -88zM459 763l-82 56l99 203l132 -88z" />
    <glyph glyph-name="Umacron" unicode="&#x16a;" horiz-adv-x="708" 
d="M355 -11q-90 0 -158.5 37.5t-106.5 104.5t-38 152v426h178v-439q0 -38 16.5 -65.5t45 -42t63.5 -14.5q36 0 63 14.5t43 41.5t16 65v440h180v-427q0 -85 -38 -151.5t-105.5 -104t-158.5 -37.5zM160 921h388v-125h-388v125z" />
    <glyph glyph-name="Uogonek" unicode="&#x172;" horiz-adv-x="708" 
d="M355 -11q-90 0 -158.5 37.5t-106.5 104.5t-38 152v426h178v-439q0 -38 16.5 -65.5t45 -42t63.5 -14.5q36 0 63 14.5t43 41.5t16 65v440h180v-427q0 -85 -38 -151.5t-105.5 -104t-158.5 -37.5zM388 -207q-73 0 -116.5 31t-43.5 89q0 56 39 92.5t101 42.5l109 -38
q-41 -12 -63 -30t-22 -47q0 -18 9 -27t26 -9q10 0 19 3.5t19 7.5l35 -88q-23 -13 -50.5 -20t-61.5 -7z" />
    <glyph glyph-name="Uring" unicode="&#x16e;" horiz-adv-x="708" 
d="M355 -11q-90 0 -158.5 37.5t-106.5 104.5t-38 152v426h178v-439q0 -38 16.5 -65.5t45 -42t63.5 -14.5q36 0 63 14.5t43 41.5t16 65v440h180v-427q0 -85 -38 -151.5t-105.5 -104t-158.5 -37.5zM355 750q-39 0 -69.5 18t-48 47.5t-17.5 66.5q0 38 17.5 68t48 47.5
t68.5 17.5t68.5 -17.5t48 -47.5t17.5 -67q0 -38 -17.5 -68t-48 -47.5t-67.5 -17.5zM355 838q18 0 30 13t12 32t-12 31.5t-30 12.5q-20 0 -32 -13t-12 -32q0 -18 12 -31t32 -13z" />
    <glyph glyph-name="V" unicode="V" horiz-adv-x="722" 
d="M278 0l-267 709h191l200 -573h-82l203 573h187l-270 -709h-162z" />
    <glyph glyph-name="W" unicode="W" horiz-adv-x="1012" 
d="M238 0l-225 709h177l162 -546h-77l160 546h143l160 -546h-76l162 546h176l-226 -709h-144l-160 545h72l-159 -545h-145z" />
    <glyph glyph-name="Wacute" unicode="&#x1e82;" horiz-adv-x="1012" 
d="M238 0l-225 709h177l162 -546h-77l160 546h143l160 -546h-76l162 546h176l-226 -709h-144l-160 545h72l-159 -545h-145zM427 756l-50 86l175 142l83 -136z" />
    <glyph glyph-name="Wcircumflex" unicode="&#x174;" horiz-adv-x="1012" 
d="M238 0l-225 709h177l162 -546h-77l160 546h143l160 -546h-76l162 546h176l-226 -709h-144l-160 545h72l-159 -545h-145zM359 752l-50 74l151 140h91l151 -140l-50 -74l-215 117l137 -1z" />
    <glyph glyph-name="Wdieresis" unicode="&#x1e84;" horiz-adv-x="1012" 
d="M238 0l-225 709h177l162 -546h-77l160 546h143l160 -546h-76l162 546h176l-226 -709h-144l-160 545h72l-159 -545h-145zM394 763q-39 0 -65 27t-26 66t26 66t65 27q40 0 65.5 -27t25.5 -66t-25.5 -66t-65.5 -27zM619 763q-39 0 -65 27t-26 66t26 66t65 27q40 0 65.5 -27
t25.5 -66t-25.5 -66t-65.5 -27z" />
    <glyph glyph-name="Wgrave" unicode="&#x1e80;" horiz-adv-x="1012" 
d="M238 0l-225 709h177l162 -546h-77l160 546h143l160 -546h-76l162 546h176l-226 -709h-144l-160 545h72l-159 -545h-145zM566 761l-208 92l84 136l174 -142z" />
    <glyph glyph-name="X" unicode="X" horiz-adv-x="724" 
d="M503 0l-192 316h-18l-270 393h213l188 -298h18l271 -411h-210zM11 0l258 379l141 -67l-195 -312h-204zM446 332l-141 68l191 309h204z" />
    <glyph glyph-name="Y" unicode="Y" horiz-adv-x="694" 
d="M280 254l-271 455h205l207 -369h-144l207 369h201l-273 -455h-132zM259 0v327h179v-327h-179z" />
    <glyph glyph-name="Yacute" unicode="&#xdd;" horiz-adv-x="694" 
d="M280 254l-271 455h205l207 -369h-144l207 369h201l-273 -455h-132zM259 0v327h179v-327h-179zM268 756l-50 86l175 142l83 -136z" />
    <glyph glyph-name="Ycircumflex" unicode="&#x176;" horiz-adv-x="694" 
d="M280 254l-271 455h205l207 -369h-144l207 369h201l-273 -455h-132zM259 0v327h179v-327h-179zM201 752l-50 74l151 140h91l151 -140l-50 -74l-215 117l137 -1z" />
    <glyph glyph-name="Ydieresis" unicode="&#x178;" horiz-adv-x="694" 
d="M280 254l-271 455h205l207 -369h-144l207 369h201l-273 -455h-132zM259 0v327h179v-327h-179zM235 763q-39 0 -65 27t-26 66t26 66t65 27q40 0 65.5 -27t25.5 -66t-25.5 -66t-65.5 -27zM460 763q-39 0 -65 27t-26 66t26 66t65 27q40 0 65.5 -27t25.5 -66t-25.5 -66
t-65.5 -27z" />
    <glyph glyph-name="Ygrave" unicode="&#x1ef2;" horiz-adv-x="694" 
d="M280 254l-271 455h205l207 -369h-144l207 369h201l-273 -455h-132zM259 0v327h179v-327h-179zM407 761l-208 92l84 136l174 -142z" />
    <glyph glyph-name="Z" unicode="Z" horiz-adv-x="617" 
d="M28 124l342 461h216l-342 -461h-216zM28 0v124l107 26h443v-150h-550zM46 559v150h540v-124l-108 -26h-432z" />
    <glyph glyph-name="Zacute" unicode="&#x179;" horiz-adv-x="617" 
d="M28 124l342 461h216l-342 -461h-216zM28 0v124l107 26h443v-150h-550zM46 559v150h540v-124l-108 -26h-432zM234 756l-50 86l175 142l83 -136z" />
    <glyph glyph-name="Zcaron" unicode="&#x17d;" horiz-adv-x="617" 
d="M28 124l342 461h216l-342 -461h-216zM28 0v124l107 26h443v-150h-550zM46 559v150h540v-124l-108 -26h-432zM459 966l50 -74l-151 -140h-90l-151 140l50 74l214 -116h-137z" />
    <glyph glyph-name="Zdotaccent" unicode="&#x17b;" horiz-adv-x="617" 
d="M28 124l342 461h216l-342 -461h-216zM28 0v124l107 26h443v-150h-550zM46 559v150h540v-124l-108 -26h-432zM313 763q-39 0 -65 27t-26 66t26 66t65 27q41 0 66.5 -27t25.5 -66t-25.5 -66t-66.5 -27z" />
    <glyph glyph-name="T_T" horiz-adv-x="1152" 
d="M235 0v704h179v-704h-179zM18 555v154h613v-154h-613zM738 0v704h178v-704h-178zM521 555v154h613v-154h-613z" />
    <glyph glyph-name="T_h" horiz-adv-x="1137" 
d="M235 0v704h179v-704h-179zM18 555v154h603v-154h-603zM922 0v276q0 34 -20 53.5t-50 19.5q-21 0 -37.5 -9t-25.5 -25t-9 -39l-68 32q0 59 24.5 101.5t67.5 66t100 23.5q59 0 102 -23.5t67 -64.5t24 -95v-316h-175zM605 0v709h175v-709h-175z" />
    <glyph glyph-name="T_l" horiz-adv-x="830" 
d="M235 0v704h179v-704h-179zM18 555v154h628v-154h-628zM605 0v709h175v-709h-175z" />
    <glyph glyph-name="a" unicode="a" 
d="M255 -10q-68 0 -121 33t-83 90.5t-30 130.5q0 74 30 132t83 90.5t121 32.5q46 0 84 -16.5t62.5 -46.5t29.5 -68v-246q-5 -39 -29.5 -68.5t-62.5 -46.5t-84 -17zM292 145q43 0 69.5 28t26.5 72q0 29 -12 51t-33.5 35t-49.5 13t-49.5 -13t-34 -35.5t-12.5 -50.5
q0 -29 12 -51.5t34 -35.5t49 -13zM381 0v131l25 120l-25 118v120h171v-489h-171z" />
    <glyph glyph-name="aacute" unicode="&#xe1;" 
d="M255 -10q-68 0 -121 33t-83 90.5t-30 130.5q0 74 30 132t83 90.5t121 32.5q46 0 84 -16.5t62.5 -46.5t29.5 -68v-246q-5 -39 -29.5 -68.5t-62.5 -46.5t-84 -17zM292 145q43 0 69.5 28t26.5 72q0 29 -12 51t-33.5 35t-49.5 13t-49.5 -13t-34 -35.5t-12.5 -50.5
q0 -29 12 -51.5t34 -35.5t49 -13zM381 0v131l25 120l-25 118v120h171v-489h-171zM229 536l-50 86l175 142l83 -136z" />
    <glyph glyph-name="abreve" unicode="&#x103;" 
d="M255 -10q-68 0 -121 33t-83 90.5t-30 130.5q0 74 30 132t83 90.5t121 32.5q46 0 84 -16.5t62.5 -46.5t29.5 -68v-246q-5 -39 -29.5 -68.5t-62.5 -46.5t-84 -17zM292 145q43 0 69.5 28t26.5 72q0 29 -12 51t-33.5 35t-49.5 13t-49.5 -13t-34 -35.5t-12.5 -50.5
q0 -29 12 -51.5t34 -35.5t49 -13zM381 0v131l25 120l-25 118v120h171v-489h-171zM505 725q0 -54 -26 -98.5t-70 -70.5t-99 -26q-57 0 -101.5 26t-70.5 70t-26 99h129q0 -30 19.5 -50t49.5 -20q19 0 33.5 9t23 25t8.5 36h130z" />
    <glyph glyph-name="uni01CE" unicode="&#x1ce;" 
d="M255 -10q-68 0 -121 33t-83 90.5t-30 130.5q0 74 30 132t83 90.5t121 32.5q46 0 84 -16.5t62.5 -46.5t29.5 -68v-246q-5 -39 -29.5 -68.5t-62.5 -46.5t-84 -17zM292 145q43 0 69.5 28t26.5 72q0 29 -12 51t-33.5 35t-49.5 13t-49.5 -13t-34 -35.5t-12.5 -50.5
q0 -29 12 -51.5t34 -35.5t49 -13zM381 0v131l25 120l-25 118v120h171v-489h-171zM455 746l50 -74l-151 -140h-91l-151 140l50 74l214 -116h-137z" />
    <glyph glyph-name="acircumflex" unicode="&#xe2;" 
d="M255 -10q-68 0 -121 33t-83 90.5t-30 130.5q0 74 30 132t83 90.5t121 32.5q46 0 84 -16.5t62.5 -46.5t29.5 -68v-246q-5 -39 -29.5 -68.5t-62.5 -46.5t-84 -17zM292 145q43 0 69.5 28t26.5 72q0 29 -12 51t-33.5 35t-49.5 13t-49.5 -13t-34 -35.5t-12.5 -50.5
q0 -29 12 -51.5t34 -35.5t49 -13zM381 0v131l25 120l-25 118v120h171v-489h-171zM162 532l-50 74l151 140h91l151 -140l-50 -74l-215 117l137 -1z" />
    <glyph glyph-name="adieresis" unicode="&#xe4;" 
d="M255 -10q-68 0 -121 33t-83 90.5t-30 130.5q0 74 30 132t83 90.5t121 32.5q46 0 84 -16.5t62.5 -46.5t29.5 -68v-246q-5 -39 -29.5 -68.5t-62.5 -46.5t-84 -17zM292 145q43 0 69.5 28t26.5 72q0 29 -12 51t-33.5 35t-49.5 13t-49.5 -13t-34 -35.5t-12.5 -50.5
q0 -29 12 -51.5t34 -35.5t49 -13zM381 0v131l25 120l-25 118v120h171v-489h-171zM197 543q-39 0 -65 27t-26 66t26 66t65 27q40 0 65.5 -27t25.5 -66t-25.5 -66t-65.5 -27zM422 543q-39 0 -65 27t-26 66t26 66t65 27q40 0 65.5 -27t25.5 -66t-25.5 -66t-65.5 -27z" />
    <glyph glyph-name="agrave" unicode="&#xe0;" 
d="M255 -10q-68 0 -121 33t-83 90.5t-30 130.5q0 74 30 132t83 90.5t121 32.5q46 0 84 -16.5t62.5 -46.5t29.5 -68v-246q-5 -39 -29.5 -68.5t-62.5 -46.5t-84 -17zM292 145q43 0 69.5 28t26.5 72q0 29 -12 51t-33.5 35t-49.5 13t-49.5 -13t-34 -35.5t-12.5 -50.5
q0 -29 12 -51.5t34 -35.5t49 -13zM381 0v131l25 120l-25 118v120h171v-489h-171zM368 541l-208 92l84 136l174 -142z" />
    <glyph glyph-name="amacron" unicode="&#x101;" 
d="M255 -10q-68 0 -121 33t-83 90.5t-30 130.5q0 74 30 132t83 90.5t121 32.5q46 0 84 -16.5t62.5 -46.5t29.5 -68v-246q-5 -39 -29.5 -68.5t-62.5 -46.5t-84 -17zM292 145q43 0 69.5 28t26.5 72q0 29 -12 51t-33.5 35t-49.5 13t-49.5 -13t-34 -35.5t-12.5 -50.5
q0 -29 12 -51.5t34 -35.5t49 -13zM381 0v131l25 120l-25 118v120h171v-489h-171zM115 701h388v-125h-388v125z" />
    <glyph glyph-name="aogonek" unicode="&#x105;" 
d="M255 -10q-68 0 -121 33t-83 90.5t-30 130.5q0 74 30 132t83 90.5t121 32.5q46 0 84 -16.5t62.5 -46.5t29.5 -68v-246q-5 -39 -29.5 -68.5t-62.5 -46.5t-84 -17zM292 145q43 0 69.5 28t26.5 72q0 29 -12 51t-33.5 35t-49.5 13t-49.5 -13t-34 -35.5t-12.5 -50.5
q0 -29 12 -51.5t34 -35.5t49 -13zM381 0v131l25 120l-25 118v120h171v-489h-171zM463 -217q-73 0 -116.5 31t-43.5 89q0 56 39 92.5t101 42.5l109 -38q-41 -12 -63 -30t-22 -47q0 -18 9 -27t26 -9q10 0 19 3.5t19 7.5l35 -88q-23 -13 -50.5 -20t-61.5 -7z" />
    <glyph glyph-name="aring" unicode="&#xe5;" 
d="M255 -10q-68 0 -121 33t-83 90.5t-30 130.5q0 74 30 132t83 90.5t121 32.5q46 0 84 -16.5t62.5 -46.5t29.5 -68v-246q-5 -39 -29.5 -68.5t-62.5 -46.5t-84 -17zM292 145q43 0 69.5 28t26.5 72q0 29 -12 51t-33.5 35t-49.5 13t-49.5 -13t-34 -35.5t-12.5 -50.5
q0 -29 12 -51.5t34 -35.5t49 -13zM381 0v131l25 120l-25 118v120h171v-489h-171zM310 530q-39 0 -69.5 18t-48 47.5t-17.5 66.5q0 38 17.5 68t48 47.5t68.5 17.5t68.5 -17.5t48 -47.5t17.5 -67q0 -38 -17.5 -68t-48 -47.5t-67.5 -17.5zM310 618q18 0 30 13t12 32t-12 31.5
t-30 12.5q-20 0 -32 -13t-12 -32q0 -18 12 -31t32 -13z" />
    <glyph glyph-name="atilde" unicode="&#xe3;" 
d="M255 -10q-68 0 -121 33t-83 90.5t-30 130.5q0 74 30 132t83 90.5t121 32.5q46 0 84 -16.5t62.5 -46.5t29.5 -68v-246q-5 -39 -29.5 -68.5t-62.5 -46.5t-84 -17zM292 145q43 0 69.5 28t26.5 72q0 29 -12 51t-33.5 35t-49.5 13t-49.5 -13t-34 -35.5t-12.5 -50.5
q0 -29 12 -51.5t34 -35.5t49 -13zM381 0v131l25 120l-25 118v120h171v-489h-171zM383 538q-32 0 -55.5 11t-43.5 21.5t-42 10.5q-23 0 -39.5 -9.5t-30.5 -30.5l-79 80q28 48 62.5 69t79.5 21q32 0 55.5 -10.5t43.5 -21.5t41 -11q24 0 40.5 10t29.5 30l79 -79
q-28 -48 -62 -69.5t-79 -21.5z" />
    <glyph glyph-name="ae" unicode="&#xe6;" horiz-adv-x="942" 
d="M686 -11q-82 0 -145 32.5t-99 90.5t-36 133q0 74 35 131.5t95.5 91t136.5 33.5q74 0 131.5 -31.5t90 -87t32.5 -126.5q0 -15 -1.5 -30.5t-6.5 -35.5l-431 -2v112l362 3l-78 -49q-1 41 -12 67.5t-32 40.5t-53 14q-33 0 -57 -16t-37 -45t-13 -70q0 -42 14 -71.5t40 -44.5
t64 -15q36 0 63.5 12t49.5 37l91 -91q-36 -41 -87.5 -62t-116.5 -21zM255 -10q-68 0 -121 33t-83 90.5t-30 130.5q0 74 30 132t83 90.5t121 32.5q46 0 84 -16.5t62.5 -46.5t29.5 -68v-246q-5 -39 -29.5 -68.5t-62.5 -46.5t-84 -17zM292 145q43 0 69.5 28t26.5 72
q0 29 -12 51t-33.5 35t-49.5 13t-49.5 -13t-34 -35.5t-12.5 -50.5q0 -29 12 -51.5t34 -35.5t49 -13zM381 0v131l25 120l-25 118v120h171v-489h-171z" />
    <glyph glyph-name="b" unicode="b" 
d="M342 -10q-47 0 -87 18.5t-66 50.5t-32 70v239q6 38 32.5 68t66.5 46.5t86 16.5q71 0 125 -32.5t84.5 -90.5t30.5 -132q0 -73 -30.5 -130.5t-84.5 -90.5t-125 -33zM51 0v729h174v-360l-29 -118l25 -120v-131h-170zM311 145q28 0 49.5 13t33.5 35.5t12 51.5q0 28 -12 50.5
t-34 35.5t-50 13t-49.5 -13t-33.5 -35t-12 -51q0 -30 12 -52.5t34 -35t50 -12.5z" />
    <glyph glyph-name="c" unicode="c" horiz-adv-x="501" 
d="M293 -11q-78 0 -140.5 33t-98.5 91t-36 131q0 74 36.5 132t99 91.5t141.5 33.5q57 0 104 -19t86 -57l-110 -110q-15 15 -34.5 22.5t-45.5 7.5q-28 0 -50.5 -12.5t-36 -34.5t-13.5 -53q0 -30 13.5 -52.5t36 -35.5t50.5 -13t48 9t35 26l111 -110q-41 -40 -88.5 -60
t-107.5 -20z" />
    <glyph glyph-name="cacute" unicode="&#x107;" horiz-adv-x="501" 
d="M293 -11q-78 0 -140.5 33t-98.5 91t-36 131q0 74 36.5 132t99 91.5t141.5 33.5q57 0 104 -19t86 -57l-110 -110q-15 15 -34.5 22.5t-45.5 7.5q-28 0 -50.5 -12.5t-36 -34.5t-13.5 -53q0 -30 13.5 -52.5t36 -35.5t50.5 -13t48 9t35 26l111 -110q-41 -40 -88.5 -60
t-107.5 -20zM209 536l-50 86l175 142l83 -136z" />
    <glyph glyph-name="ccaron" unicode="&#x10d;" horiz-adv-x="501" 
d="M293 -11q-78 0 -140.5 33t-98.5 91t-36 131q0 74 36.5 132t99 91.5t141.5 33.5q57 0 104 -19t86 -57l-110 -110q-15 15 -34.5 22.5t-45.5 7.5q-28 0 -50.5 -12.5t-36 -34.5t-13.5 -53q0 -30 13.5 -52.5t36 -35.5t50.5 -13t48 9t35 26l111 -110q-41 -40 -88.5 -60
t-107.5 -20zM434 746l50 -74l-151 -140h-91l-151 140l50 74l215 -116h-137z" />
    <glyph glyph-name="ccedilla" unicode="&#xe7;" horiz-adv-x="501" 
d="M293 -11q-78 0 -140.5 33t-98.5 91t-36 131q0 74 36.5 132t99 91.5t141.5 33.5q57 0 104 -19t86 -57l-110 -110q-15 15 -34.5 22.5t-45.5 7.5q-28 0 -50.5 -12.5t-36 -34.5t-13.5 -53q0 -30 13.5 -52.5t36 -35.5t50.5 -13t48 9t35 26l111 -110q-41 -40 -88.5 -60
t-107.5 -20zM253 -217q-42 0 -70 9t-58 26l49 65q14 -9 29 -14t31 -5q19 0 26.5 5.5t7.5 14.5t-10.5 15t-33.5 6h-22l33 107h90l-28 -74l-46 39q69 0 105 -26.5t36 -70.5q0 -42 -38 -69.5t-101 -27.5z" />
    <glyph glyph-name="cdotaccent" unicode="&#x10b;" horiz-adv-x="501" 
d="M293 -11q-78 0 -140.5 33t-98.5 91t-36 131q0 74 36.5 132t99 91.5t141.5 33.5q57 0 104 -19t86 -57l-110 -110q-15 15 -34.5 22.5t-45.5 7.5q-28 0 -50.5 -12.5t-36 -34.5t-13.5 -53q0 -30 13.5 -52.5t36 -35.5t50.5 -13t48 9t35 26l111 -110q-41 -40 -88.5 -60
t-107.5 -20zM288 543q-39 0 -65 27t-26 66t26 66t65 27q41 0 66.5 -27t25.5 -66t-25.5 -66t-66.5 -27z" />
    <glyph glyph-name="d" unicode="d" 
d="M261 -10q-71 0 -125 33t-84.5 90.5t-30.5 130.5q0 74 30.5 132t84 90.5t125.5 32.5q46 0 86 -16.5t67 -46.5t32 -68v-239q-5 -38 -32 -70t-67 -50.5t-86 -18.5zM292 145q29 0 50 12.5t33.5 35t12.5 52.5q0 29 -12 51t-33.5 35t-49.5 13t-49.5 -13t-34 -35.5t-12.5 -50.5
q0 -29 12 -51.5t34 -35.5t49 -13zM552 0h-171v131l25 120l-28 118v360h174v-729z" />
    <glyph glyph-name="eth" unicode="&#xf0;" horiz-adv-x="579" 
d="M290 -11q-76 0 -137 33t-96.5 89t-35.5 127q0 67 32.5 120.5t87.5 85t121 31.5q39 0 61.5 -10t38 -27.5t30.5 -41.5l-66 -6l-231 319h200l203 -297q60 -88 60 -175q0 -70 -35.5 -126.5t-96 -89t-136.5 -32.5zM290 140q28 0 50 13t34.5 36.5t12.5 52.5t-12.5 52
t-34.5 36.5t-50 13.5t-50.5 -13t-35 -36.5t-12.5 -52.5t12.5 -52.5t34.5 -36.5t51 -13zM92 474l-35 90l395 145l35 -89z" />
    <glyph glyph-name="dcaron" unicode="&#x10f;" horiz-adv-x="839" 
d="M261 -10q-71 0 -125 33t-84.5 90.5t-30.5 130.5q0 74 30.5 132t84 90.5t125.5 32.5q46 0 86 -16.5t67 -46.5t32 -68v-239q-5 -38 -32 -70t-67 -50.5t-86 -18.5zM292 145q29 0 50 12.5t33.5 35t12.5 52.5q0 29 -12 51t-33.5 35t-49.5 13t-49.5 -13t-34 -35.5t-12.5 -50.5
q0 -29 12 -51.5t34 -35.5t49 -13zM552 0h-171v131l25 120l-28 118v360h174v-729zM684 351l-81 45l75 141l50 14q-8 -16 -19 -26.5t-25 -10.5q-31 0 -57.5 26t-26.5 66q0 42 28.5 72.5t72.5 30.5q40 0 70 -30t30 -73q0 -18 -6.5 -41t-26.5 -60z" />
    <glyph glyph-name="dcroat" unicode="&#x111;" horiz-adv-x="600" 
d="M239 538v149h361v-149h-361zM261 -10q-71 0 -125 33t-84.5 90.5t-30.5 130.5q0 74 30.5 132t84 90.5t125.5 32.5q46 0 86 -16.5t67 -46.5t32 -68v-239q-5 -38 -32 -70t-67 -50.5t-86 -18.5zM292 145q29 0 50 12.5t33.5 35t12.5 52.5q0 29 -12 51t-33.5 35t-49.5 13
t-49.5 -13t-34 -35.5t-12.5 -50.5q0 -29 12 -51.5t34 -35.5t49 -13zM552 0h-171v131l25 120l-28 118v360h174v-729z" />
    <glyph glyph-name="e" unicode="e" horiz-adv-x="554" 
d="M298 -11q-82 0 -145 32.5t-99 90.5t-36 133q0 74 35 131.5t95.5 91t136.5 33.5q74 0 131.5 -31.5t90 -87t32.5 -126.5q0 -15 -1.5 -30.5t-6.5 -35.5l-431 -2v112l362 3l-78 -49q-1 41 -12 67.5t-32 40.5t-53 14q-33 0 -57 -16t-37 -45t-13 -70q0 -42 14 -71.5t40 -44.5
t64 -15q36 0 63.5 12t49.5 37l91 -91q-36 -41 -87.5 -62t-116.5 -21z" />
    <glyph glyph-name="eacute" unicode="&#xe9;" horiz-adv-x="554" 
d="M298 -11q-82 0 -145 32.5t-99 90.5t-36 133q0 74 35 131.5t95.5 91t136.5 33.5q74 0 131.5 -31.5t90 -87t32.5 -126.5q0 -15 -1.5 -30.5t-6.5 -35.5l-431 -2v112l362 3l-78 -49q-1 41 -12 67.5t-32 40.5t-53 14q-33 0 -57 -16t-37 -45t-13 -70q0 -42 14 -71.5t40 -44.5
t64 -15q36 0 63.5 12t49.5 37l91 -91q-36 -41 -87.5 -62t-116.5 -21zM207 536l-50 86l175 142l83 -136z" />
    <glyph glyph-name="ecaron" unicode="&#x11b;" horiz-adv-x="554" 
d="M298 -11q-82 0 -145 32.5t-99 90.5t-36 133q0 74 35 131.5t95.5 91t136.5 33.5q74 0 131.5 -31.5t90 -87t32.5 -126.5q0 -15 -1.5 -30.5t-6.5 -35.5l-431 -2v112l362 3l-78 -49q-1 41 -12 67.5t-32 40.5t-53 14q-33 0 -57 -16t-37 -45t-13 -70q0 -42 14 -71.5t40 -44.5
t64 -15q36 0 63.5 12t49.5 37l91 -91q-36 -41 -87.5 -62t-116.5 -21zM432 746l50 -74l-151 -140h-91l-151 140l50 74l215 -116h-137z" />
    <glyph glyph-name="ecircumflex" unicode="&#xea;" horiz-adv-x="554" 
d="M298 -11q-82 0 -145 32.5t-99 90.5t-36 133q0 74 35 131.5t95.5 91t136.5 33.5q74 0 131.5 -31.5t90 -87t32.5 -126.5q0 -15 -1.5 -30.5t-6.5 -35.5l-431 -2v112l362 3l-78 -49q-1 41 -12 67.5t-32 40.5t-53 14q-33 0 -57 -16t-37 -45t-13 -70q0 -42 14 -71.5t40 -44.5
t64 -15q36 0 63.5 12t49.5 37l91 -91q-36 -41 -87.5 -62t-116.5 -21zM139 532l-50 74l151 140h91l151 -140l-50 -74l-215 117l137 -1z" />
    <glyph glyph-name="edieresis" unicode="&#xeb;" horiz-adv-x="554" 
d="M298 -11q-82 0 -145 32.5t-99 90.5t-36 133q0 74 35 131.5t95.5 91t136.5 33.5q74 0 131.5 -31.5t90 -87t32.5 -126.5q0 -15 -1.5 -30.5t-6.5 -35.5l-431 -2v112l362 3l-78 -49q-1 41 -12 67.5t-32 40.5t-53 14q-33 0 -57 -16t-37 -45t-13 -70q0 -42 14 -71.5t40 -44.5
t64 -15q36 0 63.5 12t49.5 37l91 -91q-36 -41 -87.5 -62t-116.5 -21zM174 543q-39 0 -65 27t-26 66t26 66t65 27q40 0 65.5 -27t25.5 -66t-25.5 -66t-65.5 -27zM399 543q-39 0 -65 27t-26 66t26 66t65 27q40 0 65.5 -27t25.5 -66t-25.5 -66t-65.5 -27z" />
    <glyph glyph-name="edotaccent" unicode="&#x117;" horiz-adv-x="554" 
d="M298 -11q-82 0 -145 32.5t-99 90.5t-36 133q0 74 35 131.5t95.5 91t136.5 33.5q74 0 131.5 -31.5t90 -87t32.5 -126.5q0 -15 -1.5 -30.5t-6.5 -35.5l-431 -2v112l362 3l-78 -49q-1 41 -12 67.5t-32 40.5t-53 14q-33 0 -57 -16t-37 -45t-13 -70q0 -42 14 -71.5t40 -44.5
t64 -15q36 0 63.5 12t49.5 37l91 -91q-36 -41 -87.5 -62t-116.5 -21zM286 543q-39 0 -65 27t-26 66t26 66t65 27q41 0 66.5 -27t25.5 -66t-25.5 -66t-66.5 -27z" />
    <glyph glyph-name="egrave" unicode="&#xe8;" horiz-adv-x="554" 
d="M298 -11q-82 0 -145 32.5t-99 90.5t-36 133q0 74 35 131.5t95.5 91t136.5 33.5q74 0 131.5 -31.5t90 -87t32.5 -126.5q0 -15 -1.5 -30.5t-6.5 -35.5l-431 -2v112l362 3l-78 -49q-1 41 -12 67.5t-32 40.5t-53 14q-33 0 -57 -16t-37 -45t-13 -70q0 -42 14 -71.5t40 -44.5
t64 -15q36 0 63.5 12t49.5 37l91 -91q-36 -41 -87.5 -62t-116.5 -21zM346 541l-208 92l84 136l174 -142z" />
    <glyph glyph-name="emacron" unicode="&#x113;" horiz-adv-x="554" 
d="M298 -11q-82 0 -145 32.5t-99 90.5t-36 133q0 74 35 131.5t95.5 91t136.5 33.5q74 0 131.5 -31.5t90 -87t32.5 -126.5q0 -15 -1.5 -30.5t-6.5 -35.5l-431 -2v112l362 3l-78 -49q-1 41 -12 67.5t-32 40.5t-53 14q-33 0 -57 -16t-37 -45t-13 -70q0 -42 14 -71.5t40 -44.5
t64 -15q36 0 63.5 12t49.5 37l91 -91q-36 -41 -87.5 -62t-116.5 -21zM92 701h388v-125h-388v125z" />
    <glyph glyph-name="eogonek" unicode="&#x119;" horiz-adv-x="554" 
d="M298 -11q-82 0 -145 32.5t-99 90.5t-36 133q0 74 35 131.5t95.5 91t136.5 33.5q74 0 131.5 -31.5t90 -87t32.5 -126.5q0 -15 -1.5 -30.5t-6.5 -35.5l-431 -2v112l362 3l-78 -49q-1 41 -12 67.5t-32 40.5t-53 14q-33 0 -57 -16t-37 -45t-13 -70q0 -42 14 -71.5t40 -44.5
t64 -15q36 0 63.5 12t49.5 37l91 -91q-36 -41 -87.5 -62t-116.5 -21zM324 -207q-73 0 -116.5 31t-43.5 89q0 56 39 92.5t101 42.5l109 -38q-41 -12 -63 -30t-22 -47q0 -18 9 -27t26 -9q10 0 19 3.5t19 7.5l35 -88q-23 -13 -50.5 -20t-61.5 -7z" />
    <glyph glyph-name="f" unicode="f" horiz-adv-x="452" 
d="M111 0v520q0 62 27 111.5t77.5 79.5t121.5 30q53 0 93 -17.5t69 -46.5l-109 -109q-8 9 -19.5 13.5t-26.5 4.5q-27 0 -43 -16t-16 -43v-527h-174zM7 344v145h416v-145h-416z" />
    <glyph glyph-name="g" unicode="g" horiz-adv-x="588" 
d="M259 -222q-81 0 -143.5 27.5t-97.5 77.5l105 104q25 -27 55 -42.5t73 -15.5q52 0 82.5 25.5t30.5 73.5v127l28 106l-25 105v123h171v-455q0 -78 -36.5 -135.5t-99.5 -89t-143 -31.5zM251 18q-68 0 -120.5 31.5t-82.5 86.5t-30 123t30 122t82.5 86t120.5 32
q46 0 84.5 -16.5t62.5 -46t30 -68.5v-219q-6 -39 -30.5 -68.5t-62.5 -46t-84 -16.5zM283 169q28 0 48.5 12.5t31.5 33t11 44.5q0 25 -11 45t-31 32.5t-48 12.5q-27 0 -47.5 -12.5t-31.5 -33t-11 -44.5q0 -23 11 -43.5t31 -33.5t47 -13z" />
    <glyph glyph-name="gbreve" unicode="&#x11f;" horiz-adv-x="588" 
d="M259 -222q-81 0 -143.5 27.5t-97.5 77.5l105 104q25 -27 55 -42.5t73 -15.5q52 0 82.5 25.5t30.5 73.5v127l28 106l-25 105v123h171v-455q0 -78 -36.5 -135.5t-99.5 -89t-143 -31.5zM251 18q-68 0 -120.5 31.5t-82.5 86.5t-30 123t30 122t82.5 86t120.5 32
q46 0 84.5 -16.5t62.5 -46t30 -68.5v-219q-6 -39 -30.5 -68.5t-62.5 -46t-84 -16.5zM283 169q28 0 48.5 12.5t31.5 33t11 44.5q0 25 -11 45t-31 32.5t-48 12.5q-27 0 -47.5 -12.5t-31.5 -33t-11 -44.5q0 -23 11 -43.5t31 -33.5t47 -13zM505 725q0 -54 -26 -98.5t-70 -70.5
t-99 -26q-57 0 -101.5 26t-70.5 70t-26 99h129q0 -30 19.5 -50t49.5 -20q19 0 33.5 9t23 25t8.5 36h130z" />
    <glyph glyph-name="uni0123" unicode="&#x123;" horiz-adv-x="588" 
d="M259 -222q-81 0 -143.5 27.5t-97.5 77.5l105 104q25 -27 55 -42.5t73 -15.5q52 0 82.5 25.5t30.5 73.5v127l28 106l-25 105v123h171v-455q0 -78 -36.5 -135.5t-99.5 -89t-143 -31.5zM251 18q-68 0 -120.5 31.5t-82.5 86.5t-30 123t30 122t82.5 86t120.5 32
q46 0 84.5 -16.5t62.5 -46t30 -68.5v-219q-6 -39 -30.5 -68.5t-62.5 -46t-84 -16.5zM283 169q28 0 48.5 12.5t31.5 33t11 44.5q0 25 -11 45t-31 32.5t-48 12.5q-27 0 -47.5 -12.5t-31.5 -33t-11 -44.5q0 -23 11 -43.5t31 -33.5t47 -13zM431 818l-102 -123l-52 -3
q12 14 25 22t26 5q31 -6 50.5 -37.5t11.5 -70.5q-9 -40 -43 -64t-76 -15q-40 9 -63 44.5t-13 77.5q4 17 15 38t39 53l112 133z" />
    <glyph glyph-name="gdotaccent" unicode="&#x121;" horiz-adv-x="588" 
d="M259 -222q-81 0 -143.5 27.5t-97.5 77.5l105 104q25 -27 55 -42.5t73 -15.5q52 0 82.5 25.5t30.5 73.5v127l28 106l-25 105v123h171v-455q0 -78 -36.5 -135.5t-99.5 -89t-143 -31.5zM251 18q-68 0 -120.5 31.5t-82.5 86.5t-30 123t30 122t82.5 86t120.5 32
q46 0 84.5 -16.5t62.5 -46t30 -68.5v-219q-6 -39 -30.5 -68.5t-62.5 -46t-84 -16.5zM283 169q28 0 48.5 12.5t31.5 33t11 44.5q0 25 -11 45t-31 32.5t-48 12.5q-27 0 -47.5 -12.5t-31.5 -33t-11 -44.5q0 -23 11 -43.5t31 -33.5t47 -13zM309 543q-39 0 -65 27t-26 66t26 66
t65 27q41 0 66.5 -27t25.5 -66t-25.5 -66t-66.5 -27z" />
    <glyph glyph-name="h" unicode="h" horiz-adv-x="583" 
d="M368 0v276q0 34 -20 53.5t-51 19.5q-21 0 -37.5 -9t-25.5 -25t-9 -39l-68 32q0 59 24.5 101.5t67.5 66t100 23.5q59 0 102.5 -23.5t67 -64.5t23.5 -95v-316h-174zM51 0v729h174v-729h-174z" />
    <glyph glyph-name="hbar" unicode="&#x127;" horiz-adv-x="583" 
d="M0 538v149h362v-149h-362zM368 0v276q0 34 -20 53.5t-51 19.5q-21 0 -37.5 -9t-25.5 -25t-9 -39l-68 32q0 59 24.5 101.5t67.5 66t100 23.5q59 0 102.5 -23.5t67 -64.5t23.5 -95v-316h-174zM51 0v729h174v-729h-174z" />
    <glyph glyph-name="i" unicode="i" horiz-adv-x="275" 
d="M50 0v489h175v-489h-175zM137 546q-39 0 -65 26.5t-26 66.5q0 39 26 66t65 27q41 0 66.5 -27t25.5 -66q0 -40 -25.5 -66.5t-66.5 -26.5z" />
    <glyph glyph-name="dotlessi" unicode="&#x131;" horiz-adv-x="276" 
d="M51 0v489h174v-489h-174z" />
    <glyph glyph-name="iacute" unicode="&#xed;" horiz-adv-x="276" 
d="M51 0v489h174v-489h-174zM58 536l-50 86l175 142l83 -136z" />
    <glyph glyph-name="icircumflex" unicode="&#xee;" horiz-adv-x="276" 
d="M51 0v489h174v-489h-174zM-9 532l-50 74l151 140h91l151 -140l-50 -74l-215 117l137 -1z" />
    <glyph glyph-name="idieresis" unicode="&#xef;" horiz-adv-x="276" 
d="M51 0v489h174v-489h-174zM26 543q-39 0 -65 27t-26 66t26 66t65 27q40 0 65.5 -27t25.5 -66t-25.5 -66t-65.5 -27zM251 543q-39 0 -65 27t-26 66t26 66t65 27q40 0 65.5 -27t25.5 -66t-25.5 -66t-65.5 -27z" />
    <glyph glyph-name="igrave" unicode="&#xec;" horiz-adv-x="276" 
d="M51 0v489h174v-489h-174zM197 541l-208 92l84 136l174 -142z" />
    <glyph glyph-name="ij" unicode="&#x133;" horiz-adv-x="562" 
d="M50 0v489h175v-489h-175zM137 546q-39 0 -65 26.5t-26 66.5q0 39 26 66t65 27q41 0 66.5 -27t25.5 -66q0 -40 -25.5 -66.5t-66.5 -26.5zM307 -222q-54 0 -93.5 18.5t-67.5 49.5l107 107q10 -11 20.5 -15.5t21.5 -4.5q20 0 32 11t12 36v509h174v-506q0 -61 -26 -107
t-72.5 -72t-107.5 -26zM426 546q-39 0 -65 26.5t-26 66.5q0 39 26 66t65 27q41 0 66.5 -27t25.5 -66q0 -40 -25.5 -66.5t-66.5 -26.5z" />
    <glyph glyph-name="imacron" unicode="&#x12b;" horiz-adv-x="276" 
d="M-52 701h379v-125h-379v125zM51 0v489h174v-489h-174z" />
    <glyph glyph-name="iogonek" unicode="&#x12f;" horiz-adv-x="275" 
d="M50 0v489h175v-489h-175zM137 546q-39 0 -65 26.5t-26 66.5q0 39 26 66t65 27q41 0 66.5 -27t25.5 -66q0 -40 -25.5 -66.5t-66.5 -26.5zM136 -217q-73 0 -116.5 31t-43.5 89q0 56 39 92.5t101 42.5l109 -38q-41 -12 -63 -30t-22 -47q0 -18 9 -27t26 -9q10 0 19 3.5
t19 7.5l35 -88q-23 -13 -50.5 -20t-61.5 -7z" />
    <glyph glyph-name="j" unicode="j" horiz-adv-x="288" 
d="M32 -222q-54 0 -93.5 18.5t-67.5 49.5l107 107q10 -11 20.5 -15.5t21.5 -4.5q20 0 32 11t12 36v509h174v-506q0 -61 -26 -107t-72.5 -72t-107.5 -26zM151 546q-39 0 -65 26.5t-26 66.5q0 39 26 66t65 27q41 0 66.5 -27t25.5 -66q0 -40 -25.5 -66.5t-66.5 -26.5z" />
    <glyph glyph-name="uni0237" unicode="&#x237;" horiz-adv-x="288" 
d="M32 -222q-54 0 -93.5 18.5t-67.5 49.5l107 107q10 -11 20.5 -15.5t21.5 -4.5q20 0 32 11t12 36v509h174v-506q0 -61 -26 -107t-72.5 -72t-107.5 -26z" />
    <glyph glyph-name="k" unicode="k" horiz-adv-x="563" 
d="M365 0l-154 256l153 233h191l-190 -263l5 64l195 -290h-200zM51 0v729h174v-729h-174z" />
    <glyph glyph-name="uni0137" unicode="&#x137;" horiz-adv-x="563" 
d="M365 0l-154 256l153 233h191l-190 -263l5 64l195 -290h-200zM51 0v729h174v-729h-174zM228 -413l-70 60l102 122l52 4q-12 -14 -25 -22.5t-26 -5.5q-32 7 -51.5 38t-10.5 70q9 41 42.5 65t76.5 15q40 -9 62.5 -44.5t13.5 -77.5q-3 -17 -14.5 -38.5t-39.5 -52.5z" />
    <glyph glyph-name="l" unicode="l" horiz-adv-x="276" 
d="M51 0v729h174v-729h-174z" />
    <glyph glyph-name="lacute" unicode="&#x13a;" horiz-adv-x="276" 
d="M51 0v729h174v-729h-174zM133 756l-50 86l175 142l83 -136z" />
    <glyph glyph-name="lcaron" unicode="&#x13e;" horiz-adv-x="512" 
d="M51 0v729h174v-729h-174zM357 351l-81 45l75 141l50 14q-8 -16 -19 -26.5t-25 -10.5q-31 0 -57.5 26t-26.5 66q0 42 28.5 72.5t72.5 30.5q40 0 70 -30t30 -73q0 -18 -6.5 -41t-26.5 -60z" />
    <glyph glyph-name="uni013C" unicode="&#x13c;" horiz-adv-x="276" 
d="M51 0v729h174v-729h-174zM75 -413l-70 60l102 122l52 4q-12 -14 -25 -22.5t-26 -5.5q-32 7 -51.5 38t-10.5 70q9 41 42.5 65t76.5 15q40 -9 62.5 -44.5t13.5 -77.5q-3 -17 -14.5 -38.5t-39.5 -52.5z" />
    <glyph glyph-name="lslash" unicode="&#x142;" horiz-adv-x="374" 
d="M51 358l273 159v-146l-273 -157v144zM100 0v729h174v-729h-174z" />
    <glyph glyph-name="m" unicode="m" horiz-adv-x="879" 
d="M51 0v489h174v-489h-174zM358 0v283q0 31 -19 48.5t-47 17.5q-20 0 -35 -8t-23.5 -22.5t-8.5 -35.5l-68 27q0 59 26 101t70 65t100 23q50 0 90.5 -23.5t64.5 -65.5t24 -99v-311h-174zM665 0v283q0 31 -19 48.5t-47 17.5q-19 0 -34.5 -8t-24 -22.5t-8.5 -35.5l-102 5
q2 66 29 113t74.5 72.5t107.5 25.5q57 0 102 -24t70.5 -69.5t25.5 -108.5v-297h-174z" />
    <glyph glyph-name="n" unicode="n" horiz-adv-x="583" 
d="M368 0v276q0 34 -20 53.5t-51 19.5q-21 0 -37.5 -9t-25.5 -25t-9 -39l-68 32q0 59 26 101.5t71.5 66t103.5 23.5q53 0 94.5 -24.5t65.5 -65.5t24 -93v-316h-174zM51 0v489h174v-489h-174z" />
    <glyph glyph-name="nacute" unicode="&#x144;" horiz-adv-x="583" 
d="M368 0v276q0 34 -20 53.5t-51 19.5q-21 0 -37.5 -9t-25.5 -25t-9 -39l-68 32q0 59 26 101.5t71.5 66t103.5 23.5q53 0 94.5 -24.5t65.5 -65.5t24 -93v-316h-174zM51 0v489h174v-489h-174zM212 536l-50 86l175 142l83 -136z" />
    <glyph glyph-name="ncaron" unicode="&#x148;" horiz-adv-x="583" 
d="M368 0v276q0 34 -20 53.5t-51 19.5q-21 0 -37.5 -9t-25.5 -25t-9 -39l-68 32q0 59 26 101.5t71.5 66t103.5 23.5q53 0 94.5 -24.5t65.5 -65.5t24 -93v-316h-174zM51 0v489h174v-489h-174zM438 746l50 -74l-151 -140h-91l-151 140l50 74l214 -116h-137z" />
    <glyph glyph-name="uni0146" unicode="&#x146;" horiz-adv-x="583" 
d="M368 0v276q0 34 -20 53.5t-51 19.5q-21 0 -37.5 -9t-25.5 -25t-9 -39l-68 32q0 59 26 101.5t71.5 66t103.5 23.5q53 0 94.5 -24.5t65.5 -65.5t24 -93v-316h-174zM51 0v489h174v-489h-174zM229 -413l-70 60l102 122l52 4q-12 -14 -25 -22.5t-26 -5.5q-32 7 -51.5 38
t-10.5 70q9 41 42.5 65t76.5 15q40 -9 62.5 -44.5t13.5 -77.5q-3 -17 -14.5 -38.5t-39.5 -52.5z" />
    <glyph glyph-name="ntilde" unicode="&#xf1;" horiz-adv-x="583" 
d="M368 0v276q0 34 -20 53.5t-51 19.5q-21 0 -37.5 -9t-25.5 -25t-9 -39l-68 32q0 59 26 101.5t71.5 66t103.5 23.5q53 0 94.5 -24.5t65.5 -65.5t24 -93v-316h-174zM51 0v489h174v-489h-174zM366 538q-32 0 -55.5 11t-43.5 21.5t-42 10.5q-23 0 -39.5 -9.5t-30.5 -30.5
l-79 80q28 48 62.5 69t79.5 21q32 0 55.5 -10.5t43.5 -21.5t41 -11q24 0 40.5 10t29.5 30l79 -79q-28 -48 -62 -69.5t-79 -21.5z" />
    <glyph glyph-name="eng" unicode="&#x14b;" horiz-adv-x="583" 
d="M336 -222q-54 0 -93.5 18.5t-67.5 49.5l107 107q10 -11 20.5 -15.5t21.5 -4.5q20 0 32 11t12 36v143h174v-140q0 -61 -26 -107t-72.5 -72t-107.5 -26zM368 0v276q0 34 -20 53.5t-51 19.5q-21 0 -37.5 -9t-25.5 -25t-9 -39l-68 32q0 59 26 101.5t71.5 66t103.5 23.5
q53 0 94.5 -24.5t65.5 -65.5t24 -93v-316h-174zM51 0v489h174v-489h-174z" />
    <glyph glyph-name="o" unicode="o" horiz-adv-x="582" 
d="M292 -11q-79 0 -140.5 33.5t-97.5 92t-36 131.5t35.5 130.5t97.5 91t140 33.5t139.5 -33.5t97.5 -91t36 -130.5t-35.5 -131.5t-97 -92t-139.5 -33.5zM291 144q29 0 50.5 12.5t33.5 35.5t12 53t-12.5 52.5t-33.5 35t-50 12.5q-28 0 -50 -13t-34 -35.5t-12 -52.5
q0 -29 12 -52t34 -35.5t50 -12.5z" />
    <glyph glyph-name="oacute" unicode="&#xf3;" horiz-adv-x="582" 
d="M292 -11q-79 0 -140.5 33.5t-97.5 92t-36 131.5t35.5 130.5t97.5 91t140 33.5t139.5 -33.5t97.5 -91t36 -130.5t-35.5 -131.5t-97 -92t-139.5 -33.5zM291 144q29 0 50.5 12.5t33.5 35.5t12 53t-12.5 52.5t-33.5 35t-50 12.5q-28 0 -50 -13t-34 -35.5t-12 -52.5
q0 -29 12 -52t34 -35.5t50 -12.5zM212 536l-50 86l175 142l83 -136z" />
    <glyph glyph-name="ocircumflex" unicode="&#xf4;" horiz-adv-x="582" 
d="M292 -11q-79 0 -140.5 33.5t-97.5 92t-36 131.5t35.5 130.5t97.5 91t140 33.5t139.5 -33.5t97.5 -91t36 -130.5t-35.5 -131.5t-97 -92t-139.5 -33.5zM291 144q29 0 50.5 12.5t33.5 35.5t12 53t-12.5 52.5t-33.5 35t-50 12.5q-28 0 -50 -13t-34 -35.5t-12 -52.5
q0 -29 12 -52t34 -35.5t50 -12.5zM144 532l-50 74l151 140h91l151 -140l-50 -74l-215 117l137 -1z" />
    <glyph glyph-name="odieresis" unicode="&#xf6;" horiz-adv-x="582" 
d="M292 -11q-79 0 -140.5 33.5t-97.5 92t-36 131.5t35.5 130.5t97.5 91t140 33.5t139.5 -33.5t97.5 -91t36 -130.5t-35.5 -131.5t-97 -92t-139.5 -33.5zM291 144q29 0 50.5 12.5t33.5 35.5t12 53t-12.5 52.5t-33.5 35t-50 12.5q-28 0 -50 -13t-34 -35.5t-12 -52.5
q0 -29 12 -52t34 -35.5t50 -12.5zM179 543q-39 0 -65 27t-26 66t26 66t65 27q40 0 65.5 -27t25.5 -66t-25.5 -66t-65.5 -27zM404 543q-39 0 -65 27t-26 66t26 66t65 27q40 0 65.5 -27t25.5 -66t-25.5 -66t-65.5 -27z" />
    <glyph glyph-name="ograve" unicode="&#xf2;" horiz-adv-x="582" 
d="M292 -11q-79 0 -140.5 33.5t-97.5 92t-36 131.5t35.5 130.5t97.5 91t140 33.5t139.5 -33.5t97.5 -91t36 -130.5t-35.5 -131.5t-97 -92t-139.5 -33.5zM291 144q29 0 50.5 12.5t33.5 35.5t12 53t-12.5 52.5t-33.5 35t-50 12.5q-28 0 -50 -13t-34 -35.5t-12 -52.5
q0 -29 12 -52t34 -35.5t50 -12.5zM351 541l-208 92l84 136l174 -142z" />
    <glyph glyph-name="ohungarumlaut" unicode="&#x151;" horiz-adv-x="582" 
d="M292 -11q-79 0 -140.5 33.5t-97.5 92t-36 131.5t35.5 130.5t97.5 91t140 33.5t139.5 -33.5t97.5 -91t36 -130.5t-35.5 -131.5t-97 -92t-139.5 -33.5zM291 144q29 0 50.5 12.5t33.5 35.5t12 53t-12.5 52.5t-33.5 35t-50 12.5q-28 0 -50 -13t-34 -35.5t-12 -52.5
q0 -29 12 -52t34 -35.5t50 -12.5zM149 543l-82 56l99 203l132 -88zM396 543l-82 56l99 203l132 -88z" />
    <glyph glyph-name="omacron" unicode="&#x14d;" horiz-adv-x="582" 
d="M292 -11q-79 0 -140.5 33.5t-97.5 92t-36 131.5t35.5 130.5t97.5 91t140 33.5t139.5 -33.5t97.5 -91t36 -130.5t-35.5 -131.5t-97 -92t-139.5 -33.5zM291 144q29 0 50.5 12.5t33.5 35.5t12 53t-12.5 52.5t-33.5 35t-50 12.5q-28 0 -50 -13t-34 -35.5t-12 -52.5
q0 -29 12 -52t34 -35.5t50 -12.5zM97 701h388v-125h-388v125z" />
    <glyph glyph-name="oslash" unicode="&#xf8;" horiz-adv-x="582" 
d="M90 -30l-72 72l475 475l72 -72zM290 -11q-77 0 -139 33.5t-97.5 92t-35.5 131.5t35.5 130.5t97.5 91t140 33.5t139.5 -33.5t97.5 -91t36 -130.5t-36 -131.5t-97.5 -92t-140.5 -33.5zM290 121q36 0 62.5 15.5t41.5 43t15 64.5q0 38 -15 65.5t-41.5 43t-62.5 15.5
q-35 0 -62 -15.5t-41.5 -43t-14.5 -64.5t14.5 -65t41.5 -43.5t62 -15.5z" />
    <glyph glyph-name="otilde" unicode="&#xf5;" horiz-adv-x="582" 
d="M292 -11q-79 0 -140.5 33.5t-97.5 92t-36 131.5t35.5 130.5t97.5 91t140 33.5t139.5 -33.5t97.5 -91t36 -130.5t-35.5 -131.5t-97 -92t-139.5 -33.5zM291 144q29 0 50.5 12.5t33.5 35.5t12 53t-12.5 52.5t-33.5 35t-50 12.5q-28 0 -50 -13t-34 -35.5t-12 -52.5
q0 -29 12 -52t34 -35.5t50 -12.5zM365 538q-32 0 -55.5 11t-43.5 21.5t-42 10.5q-23 0 -39.5 -9.5t-30.5 -30.5l-79 80q28 48 62.5 69t79.5 21q32 0 55.5 -10.5t43.5 -21.5t41 -11q24 0 40.5 10t29.5 30l79 -79q-28 -48 -62 -69.5t-79 -21.5z" />
    <glyph glyph-name="oe" unicode="&#x153;" horiz-adv-x="937" 
d="M292 -11q-79 0 -140.5 33.5t-97.5 92t-36 131.5t35.5 130.5t97.5 91t140 33.5t139.5 -33.5t97.5 -91t36 -130.5t-35.5 -131.5t-97 -92t-139.5 -33.5zM291 144q29 0 50.5 12.5t33.5 35.5t12 53t-12.5 52.5t-33.5 35t-50 12.5q-28 0 -50 -13t-34 -35.5t-12 -52.5
q0 -29 12 -52t34 -35.5t50 -12.5zM681 -11q-82 0 -145 32.5t-99 90.5t-36 133q0 74 35 131.5t95.5 91t136.5 33.5q74 0 131.5 -31.5t90 -87t32.5 -126.5q0 -15 -1.5 -30.5t-6.5 -35.5l-431 -2v112l362 3l-78 -49q-1 41 -12 67.5t-32 40.5t-53 14q-33 0 -57 -16t-37 -45
t-13 -70q0 -42 14 -71.5t40 -44.5t64 -15q36 0 63.5 12t49.5 37l91 -91q-36 -41 -87.5 -62t-116.5 -21z" />
    <glyph glyph-name="p" unicode="p" 
d="M342 -10q-47 0 -87 17t-66 46.5t-32 68.5v238q6 39 32.5 70.5t66 50t86.5 18.5q71 0 125 -32.5t84.5 -90.5t30.5 -132q0 -73 -30.5 -130.5t-84.5 -90.5t-125 -33zM51 -207v696h174v-123l-29 -118l25 -119v-336h-170zM309 145q29 0 51 13t34 35.5t12 51.5t-12 51t-34 35
t-50 13q-27 0 -49 -12.5t-34 -35t-12 -51.5t12 -51.5t33.5 -35.5t48.5 -13z" />
    <glyph glyph-name="thorn" unicode="&#xfe;" 
d="M342 -10q-47 0 -87 17t-66 46.5t-32 68.5v238q6 39 32.5 70.5t66 50t86.5 18.5q71 0 125 -32.5t84.5 -90.5t30.5 -132q0 -73 -30.5 -130.5t-84.5 -90.5t-125 -33zM51 -207v936h174v-363l-29 -118l25 -119v-336h-170zM310 145q28 0 49.5 12.5t34 35.5t12.5 52t-12 51
t-34 35t-50 13q-27 0 -49 -12.5t-34 -35t-12 -51.5t12 -51.5t33.5 -35.5t49.5 -13z" />
    <glyph glyph-name="q" unicode="q" 
d="M255 -10q-68 0 -121 33t-83 90.5t-30 130.5q0 74 30 132t83 90.5t121 32.5q46 0 84 -16.5t62.5 -46.5t29.5 -68v-246q-5 -39 -29.5 -68.5t-62.5 -46.5t-84 -17zM292 145q43 0 69.5 28t26.5 72q0 29 -12 51t-33.5 35t-49.5 13t-49.5 -13t-34 -35.5t-12.5 -50.5
q0 -29 12 -51.5t34 -35.5t49 -13zM381 -207v336l25 119l-25 118v123h171v-696h-171z" />
    <glyph glyph-name="r" unicode="r" horiz-adv-x="453" 
d="M51 0v489h174v-489h-174zM225 266l-78 66q29 83 77 125t125 42q35 0 60.5 -9t43.5 -28l-101 -135q-8 9 -22.5 14.5t-32.5 5.5q-34 0 -53 -20.5t-19 -60.5z" />
    <glyph glyph-name="racute" unicode="&#x155;" horiz-adv-x="453" 
d="M51 0v489h174v-489h-174zM225 266l-78 66q29 83 77 125t125 42q35 0 60.5 -9t43.5 -28l-101 -135q-8 9 -22.5 14.5t-32.5 5.5q-34 0 -53 -20.5t-19 -60.5zM157 536l-50 86l175 142l83 -136z" />
    <glyph glyph-name="rcaron" unicode="&#x159;" horiz-adv-x="453" 
d="M51 0v489h174v-489h-174zM225 266l-78 66q29 83 77 125t125 42q35 0 60.5 -9t43.5 -28l-101 -135q-8 9 -22.5 14.5t-32.5 5.5q-34 0 -53 -20t-19 -61zM382 746l50 -74l-151 -140h-91l-151 140l50 74l215 -116h-137z" />
    <glyph glyph-name="uni0157" unicode="&#x157;" horiz-adv-x="453" 
d="M51 0v489h174v-489h-174zM225 266l-78 66q29 83 77 125t125 42q35 0 60.5 -9t43.5 -28l-101 -135q-8 9 -22.5 14.5t-32.5 5.5q-34 0 -53 -20.5t-19 -60.5zM75 -413l-70 60l102 122l52 4q-12 -14 -25 -22.5t-26 -5.5q-32 7 -51.5 38t-10.5 70q9 41 42.5 65t76.5 15
q40 -9 62.5 -44.5t13.5 -77.5q-3 -17 -14.5 -38.5t-39.5 -52.5z" />
    <glyph glyph-name="s" unicode="s" horiz-adv-x="471" 
d="M237 -14q-45 0 -88.5 12t-81 32.5t-63.5 47.5l95 97q24 -25 57.5 -39t71.5 -14q22 0 33.5 6t11.5 17q0 16 -16.5 24.5t-43 15t-55.5 16t-56 25.5t-43.5 45t-16.5 74q0 47 25.5 82.5t71.5 56t108 20.5q63 0 120 -21.5t92 -64.5l-96 -97q-24 27 -53 37.5t-53 10.5
q-23 0 -33 -6.5t-10 -17.5q0 -13 16.5 -21t43 -14.5t55 -16.5t55 -27.5t43 -46.5t16.5 -75q0 -73 -56 -115.5t-150 -42.5z" />
    <glyph glyph-name="sacute" unicode="&#x15b;" horiz-adv-x="471" 
d="M237 -14q-45 0 -88.5 12t-81 32.5t-63.5 47.5l95 97q24 -25 57.5 -39t71.5 -14q22 0 33.5 6t11.5 17q0 16 -16.5 24.5t-43 15t-55.5 16t-56 25.5t-43.5 45t-16.5 74q0 47 25.5 82.5t71.5 56t108 20.5q63 0 120 -21.5t92 -64.5l-96 -97q-24 27 -53 37.5t-53 10.5
q-23 0 -33 -6.5t-10 -17.5q0 -13 16.5 -21t43 -14.5t55 -16.5t55 -27.5t43 -46.5t16.5 -75q0 -73 -56 -115.5t-150 -42.5zM168 536l-50 86l175 142l83 -136z" />
    <glyph glyph-name="scaron" unicode="&#x161;" horiz-adv-x="471" 
d="M237 -14q-45 0 -88.5 12t-81 32.5t-63.5 47.5l95 97q24 -25 57.5 -39t71.5 -14q22 0 33.5 6t11.5 17q0 16 -16.5 24.5t-43 15t-55.5 16t-56 25.5t-43.5 45t-16.5 74q0 47 25.5 82.5t71.5 56t108 20.5q63 0 120 -21.5t92 -64.5l-96 -97q-24 27 -53 37.5t-53 10.5
q-23 0 -33 -6.5t-10 -17.5q0 -13 16.5 -21t43 -14.5t55 -16.5t55 -27.5t43 -46.5t16.5 -75q0 -73 -56 -115.5t-150 -42.5zM393 746l50 -74l-151 -140h-91l-151 140l50 74l215 -116h-137z" />
    <glyph glyph-name="scedilla" unicode="&#x15f;" horiz-adv-x="471" 
d="M237 -14q-45 0 -88.5 12t-81 32.5t-63.5 47.5l95 97q24 -25 57.5 -39t71.5 -14q22 0 33.5 6t11.5 17q0 16 -16.5 24.5t-43 15t-55.5 16t-56 25.5t-43.5 45t-16.5 74q0 47 25.5 82.5t71.5 56t108 20.5q63 0 120 -21.5t92 -64.5l-96 -97q-24 27 -53 37.5t-53 10.5
q-23 0 -33 -6.5t-10 -17.5q0 -13 16.5 -21t43 -14.5t55 -16.5t55 -27.5t43 -46.5t16.5 -75q0 -73 -56 -115.5t-150 -42.5zM213 -217q-42 0 -70 9t-58 26l49 65q14 -9 29 -14t31 -5q19 0 26.5 5.5t7.5 14.5t-10.5 15t-33.5 6h-22l33 107h90l-28 -74l-46 39q69 0 105 -26.5
t36 -70.5q0 -42 -38 -69.5t-101 -27.5z" />
    <glyph glyph-name="uni0219" unicode="&#x219;" horiz-adv-x="471" 
d="M237 -14q-45 0 -88.5 12t-81 32.5t-63.5 47.5l95 97q24 -25 57.5 -39t71.5 -14q22 0 33.5 6t11.5 17q0 16 -16.5 24.5t-43 15t-55.5 16t-56 25.5t-43.5 45t-16.5 74q0 47 25.5 82.5t71.5 56t108 20.5q63 0 120 -21.5t92 -64.5l-96 -97q-24 27 -53 37.5t-53 10.5
q-23 0 -33 -6.5t-10 -17.5q0 -13 16.5 -21t43 -14.5t55 -16.5t55 -27.5t43 -46.5t16.5 -75q0 -73 -56 -115.5t-150 -42.5zM175 -413l-70 60l102 122l52 4q-12 -14 -25 -22.5t-26 -5.5q-32 7 -51.5 38t-10.5 70q9 41 42.5 65t76.5 15q40 -9 62.5 -44.5t13.5 -77.5
q-3 -17 -14.5 -38.5t-39.5 -52.5z" />
    <glyph glyph-name="germandbls" unicode="&#xdf;" horiz-adv-x="598" 
d="M342 -9q-34 0 -57.5 7t-44.5 20l45 129q7 -4 16 -6.5t22 -2.5q25 0 44 10.5t29.5 30t10.5 44.5q0 26 -12.5 45.5t-34.5 31.5t-51 12h-36v136h22q20 0 36 9t24.5 25.5t8.5 37.5q0 20 -8.5 36t-24 25t-37.5 9q-33 0 -53 -20t-20 -59v-511h-170v501q0 66 29.5 119.5t85 85
t133.5 31.5q75 0 126.5 -29.5t78 -76t26.5 -97.5q0 -50 -20.5 -90t-65.5 -64l-14 37q52 -16 85.5 -45t50 -69t16.5 -88q0 -42 -17 -82t-48.5 -72t-75.5 -51t-99 -19z" />
    <glyph glyph-name="t" unicode="t" horiz-adv-x="410" 
d="M118 0v691h174v-691h-174zM10 344v145h390v-145h-390z" />
    <glyph glyph-name="tcaron" unicode="&#x165;" horiz-adv-x="560" 
d="M118 0v691h174v-691h-174zM10 344v145h390v-145h-390zM404 520l-81 45l75 141l50 14q-8 -16 -19 -26.5t-25 -10.5q-31 0 -57.5 26t-26.5 66q0 42 28.5 72.5t72.5 30.5q40 0 70 -30t30 -73q0 -18 -6.5 -41t-26.5 -60z" />
    <glyph glyph-name="uni021B" unicode="&#x21b;" horiz-adv-x="410" 
d="M118 0v691h174v-691h-174zM10 344v145h390v-145h-390zM142 -413l-70 60l102 122l52 4q-12 -14 -25 -22.5t-26 -5.5q-32 7 -51.5 38t-10.5 70q9 41 42.5 65t76.5 15q40 -9 62.5 -44.5t13.5 -77.5q-3 -17 -14.5 -38.5t-39.5 -52.5z" />
    <glyph glyph-name="u" unicode="u" horiz-adv-x="550" 
d="M275 -11q-69 0 -122.5 27.5t-84 77t-30.5 112.5v283h174v-283q0 -20 8 -35t22 -23t33 -8q28 0 45.5 18t17.5 48v283h174v-283q0 -64 -30 -113t-83.5 -76.5t-123.5 -27.5z" />
    <glyph glyph-name="uacute" unicode="&#xfa;" horiz-adv-x="550" 
d="M275 -11q-69 0 -122.5 27.5t-84 77t-30.5 112.5v283h174v-283q0 -20 8 -35t22 -23t33 -8q28 0 45.5 18t17.5 48v283h174v-283q0 -64 -30 -113t-83.5 -76.5t-123.5 -27.5zM196 536l-50 86l175 142l83 -136z" />
    <glyph glyph-name="ubreve" unicode="&#x16d;" horiz-adv-x="550" 
d="M275 -11q-69 0 -122.5 27.5t-84 77t-30.5 112.5v283h174v-283q0 -20 8 -35t22 -23t33 -8q28 0 45.5 18t17.5 48v283h174v-283q0 -64 -30 -113t-83.5 -76.5t-123.5 -27.5zM472 725q0 -54 -26 -98.5t-70 -70.5t-99 -26q-57 0 -101.5 26t-70.5 70t-26 99h129q0 -30 19.5 -50
t49.5 -20q19 0 33.5 9t23 25t8.5 36h130z" />
    <glyph glyph-name="ucircumflex" unicode="&#xfb;" horiz-adv-x="550" 
d="M275 -11q-69 0 -122.5 27.5t-84 77t-30.5 112.5v283h174v-283q0 -20 8 -35t22 -23t33 -8q28 0 45.5 18t17.5 48v283h174v-283q0 -64 -30 -113t-83.5 -76.5t-123.5 -27.5zM129 532l-50 74l151 140h91l151 -140l-50 -74l-215 117l137 -1z" />
    <glyph glyph-name="udieresis" unicode="&#xfc;" horiz-adv-x="550" 
d="M275 -11q-69 0 -122.5 27.5t-84 77t-30.5 112.5v283h174v-283q0 -20 8 -35t22 -23t33 -8q28 0 45.5 18t17.5 48v283h174v-283q0 -64 -30 -113t-83.5 -76.5t-123.5 -27.5zM163 543q-39 0 -65 27t-26 66t26 66t65 27q40 0 65.5 -27t25.5 -66t-25.5 -66t-65.5 -27zM388 543
q-39 0 -65 27t-26 66t26 66t65 27q40 0 65.5 -27t25.5 -66t-25.5 -66t-65.5 -27z" />
    <glyph glyph-name="ugrave" unicode="&#xf9;" horiz-adv-x="550" 
d="M275 -11q-69 0 -122.5 27.5t-84 77t-30.5 112.5v283h174v-283q0 -20 8 -35t22 -23t33 -8q28 0 45.5 18t17.5 48v283h174v-283q0 -64 -30 -113t-83.5 -76.5t-123.5 -27.5zM335 541l-208 92l84 136l174 -142z" />
    <glyph glyph-name="uhungarumlaut" unicode="&#x171;" horiz-adv-x="550" 
d="M275 -11q-69 0 -122.5 27.5t-84 77t-30.5 112.5v283h174v-283q0 -20 8 -35t22 -23t33 -8q28 0 45.5 18t17.5 48v283h174v-283q0 -64 -30 -113t-83.5 -76.5t-123.5 -27.5zM134 543l-82 56l98 203l133 -88zM381 543l-82 56l98 203l133 -88z" />
    <glyph glyph-name="umacron" unicode="&#x16b;" horiz-adv-x="550" 
d="M275 -11q-69 0 -122.5 27.5t-84 77t-30.5 112.5v283h174v-283q0 -20 8 -35t22 -23t33 -8q28 0 45.5 18t17.5 48v283h174v-283q0 -64 -30 -113t-83.5 -76.5t-123.5 -27.5zM82 701h388v-125h-388v125z" />
    <glyph glyph-name="uogonek" unicode="&#x173;" horiz-adv-x="550" 
d="M275 -11q-69 0 -122.5 27.5t-84 77t-30.5 112.5v283h174v-283q0 -20 8 -35t22 -23t33 -8q28 0 45.5 18t17.5 48v283h174v-283q0 -64 -30 -113t-83.5 -76.5t-123.5 -27.5zM295 -207q-73 0 -116.5 31t-43.5 89q0 56 39 92.5t101 42.5l109 -38q-41 -12 -63 -30t-22 -47
q0 -18 9 -27t26 -9q10 0 19 3.5t19 7.5l35 -88q-23 -13 -50.5 -20t-61.5 -7z" />
    <glyph glyph-name="uring" unicode="&#x16f;" horiz-adv-x="550" 
d="M275 -11q-69 0 -122.5 27.5t-84 77t-30.5 112.5v283h174v-283q0 -20 8 -35t22 -23t33 -8q28 0 45.5 18t17.5 48v283h174v-283q0 -64 -30 -113t-83.5 -76.5t-123.5 -27.5zM276 530q-39 0 -69.5 18t-48 47.5t-17.5 66.5q0 38 17.5 68t48 47.5t68.5 17.5t68.5 -17.5
t48 -47.5t17.5 -67q0 -38 -17.5 -68t-48 -47.5t-67.5 -17.5zM276 618q18 0 30 13t12 32t-12 31.5t-30 12.5q-20 0 -32 -13t-12 -32q0 -18 12 -31t32 -13z" />
    <glyph glyph-name="v" unicode="v" horiz-adv-x="550" 
d="M198 0l-199 489h186l127 -412h-71l126 412h184l-199 -489h-154z" />
    <glyph glyph-name="w" unicode="w" horiz-adv-x="800" 
d="M158 0l-155 489h168l92 -356l-50 -1l109 357h155l109 -357l-50 1l93 356h168l-155 -489h-157l-104 338h39l-107 -338h-155z" />
    <glyph glyph-name="wacute" unicode="&#x1e83;" horiz-adv-x="800" 
d="M158 0l-155 489h168l92 -356l-50 -1l109 357h155l109 -357l-50 1l93 356h168l-155 -489h-157l-104 338h39l-107 -338h-155zM321 536l-50 86l175 142l83 -136z" />
    <glyph glyph-name="wcircumflex" unicode="&#x175;" horiz-adv-x="800" 
d="M158 0l-155 489h168l92 -356l-50 -1l109 357h155l109 -357l-50 1l93 356h168l-155 -489h-157l-104 338h39l-107 -338h-155zM254 532l-50 74l151 140h91l151 -140l-50 -74l-215 117l137 -1z" />
    <glyph glyph-name="wdieresis" unicode="&#x1e85;" horiz-adv-x="800" 
d="M158 0l-155 489h168l92 -356l-50 -1l109 357h155l109 -357l-50 1l93 356h168l-155 -489h-157l-104 338h39l-107 -338h-155zM288 543q-39 0 -65 27t-26 66t26 66t65 27q40 0 65.5 -27t25.5 -66t-25.5 -66t-65.5 -27zM513 543q-39 0 -65 27t-26 66t26 66t65 27
q40 0 65.5 -27t25.5 -66t-25.5 -66t-65.5 -27z" />
    <glyph glyph-name="wgrave" unicode="&#x1e81;" horiz-adv-x="800" 
d="M158 0l-155 489h168l92 -356l-50 -1l109 357h155l109 -357l-50 1l93 356h168l-155 -489h-157l-104 338h39l-107 -338h-155zM460 541l-208 92l84 136l174 -142z" />
    <glyph glyph-name="x" unicode="x" horiz-adv-x="550" 
d="M349 0l-105 181l-40 24l-193 284h201l103 -176l38 -22l196 -291h-200zM1 0l201 289l99 -107l-114 -182h-186zM347 205l-99 107l105 177h186z" />
    <glyph glyph-name="y" unicode="y" horiz-adv-x="541" 
d="M197 -1l-196 490h186l120 -403h-73l121 403h186l-201 -490h-143zM81 -207l145 319l114 -113l-84 -206h-175z" />
    <glyph glyph-name="yacute" unicode="&#xfd;" horiz-adv-x="541" 
d="M197 -1l-196 490h186l120 -403h-73l121 403h186l-201 -490h-143zM81 -207l145 319l114 -113l-84 -206h-175zM192 536l-50 86l175 142l83 -136z" />
    <glyph glyph-name="ycircumflex" unicode="&#x177;" horiz-adv-x="541" 
d="M197 -1l-196 490h186l120 -403h-73l121 403h186l-201 -490h-143zM81 -207l145 319l114 -113l-84 -206h-175zM124 532l-50 74l151 140h91l151 -140l-50 -74l-215 117l137 -1z" />
    <glyph glyph-name="ydieresis" unicode="&#xff;" horiz-adv-x="541" 
d="M197 -1l-196 490h186l120 -403h-73l121 403h186l-201 -490h-143zM81 -207l145 319l114 -113l-84 -206h-175zM159 543q-39 0 -65 27t-26 66t26 66t65 27q40 0 65.5 -27t25.5 -66t-25.5 -66t-65.5 -27zM384 543q-39 0 -65 27t-26 66t26 66t65 27q40 0 65.5 -27t25.5 -66
t-25.5 -66t-65.5 -27z" />
    <glyph glyph-name="ygrave" unicode="&#x1ef3;" horiz-adv-x="541" 
d="M197 -1l-196 490h186l120 -403h-73l121 403h186l-201 -490h-143zM81 -207l145 319l114 -113l-84 -206h-175zM331 541l-208 92l84 136l174 -142z" />
    <glyph glyph-name="z" unicode="z" horiz-adv-x="495" 
d="M22 104l232 281h215l-232 -281h-215zM22 0v104l113 38h328v-142h-441zM39 347v142h430v-104l-113 -38h-317z" />
    <glyph glyph-name="zacute" unicode="&#x17a;" horiz-adv-x="495" 
d="M22 104l232 281h215l-232 -281h-215zM22 0v104l113 38h328v-142h-441zM39 347v142h430v-104l-113 -38h-317zM179 536l-50 86l175 142l83 -136z" />
    <glyph glyph-name="zcaron" unicode="&#x17e;" horiz-adv-x="495" 
d="M22 104l232 281h215l-232 -281h-215zM22 0v104l113 38h328v-142h-441zM39 347v142h430v-104l-113 -38h-317zM404 746l50 -74l-151 -140h-90l-151 140l50 74l214 -116h-137z" />
    <glyph glyph-name="zdotaccent" unicode="&#x17c;" horiz-adv-x="495" 
d="M22 104l232 281h215l-232 -281h-215zM22 0v104l113 38h328v-142h-441zM39 347v142h430v-104l-113 -38h-317zM258 543q-39 0 -65 27t-26 66t26 66t65 27q41 0 66.5 -27t25.5 -66t-25.5 -66t-66.5 -27z" />
    <glyph glyph-name="ae.ss01" horiz-adv-x="919" 
d="M691 -11q-82 0 -146.5 33.5t-101 91.5t-36.5 132q0 73 35.5 130.5t97 91t139.5 33.5q84 0 142 -38.5t87 -111.5l-304 -289l-85 88l274 260l-14 -112q-11 34 -35.5 52t-64.5 18q-35 0 -60.5 -14t-39 -40t-13.5 -62q0 -40 17 -71t47.5 -48t69.5 -17q34 0 60 11.5t51 38.5
l91 -91q-41 -44 -93.5 -65t-117.5 -21zM255 -10q-68 0 -121 33t-83 90.5t-30 130.5q0 74 30 132t83 90.5t121 32.5q46 0 84 -16.5t62.5 -46.5t29.5 -68v-246q-5 -39 -29.5 -68.5t-62.5 -46.5t-84 -17zM292 145q43 0 69.5 28t26.5 72q0 29 -12 51t-33.5 35t-49.5 13
t-49.5 -13t-34 -35.5t-12.5 -50.5q0 -29 12 -51.5t34 -35.5t49 -13zM381 0v131l25 120l-25 118v120h171v-489h-171z" />
    <glyph glyph-name="e.ss01" horiz-adv-x="531" 
d="M303 -11q-82 0 -146.5 33.5t-101 91.5t-36.5 132q0 73 35.5 130.5t97 91t139.5 33.5q84 0 142 -38.5t87 -111.5l-304 -289l-85 88l274 260l-14 -112q-11 34 -35.5 52t-64.5 18q-35 0 -60.5 -14t-39 -40t-13.5 -62q0 -40 17 -71t47.5 -48t69.5 -17q34 0 60 11.5t51 38.5
l91 -91q-41 -44 -93.5 -65t-117.5 -21z" />
    <glyph glyph-name="eacute.ss01" horiz-adv-x="531" 
d="M303 -11q-82 0 -146.5 33.5t-101 91.5t-36.5 132q0 73 35.5 130.5t97 91t139.5 33.5q84 0 142 -38.5t87 -111.5l-304 -289l-85 88l274 260l-14 -112q-11 34 -35.5 52t-64.5 18q-35 0 -60.5 -14t-39 -40t-13.5 -62q0 -40 17 -71t47.5 -48t69.5 -17q34 0 60 11.5t51 38.5
l91 -91q-41 -44 -93.5 -65t-117.5 -21zM207 536l-50 86l175 142l83 -136z" />
    <glyph glyph-name="ecaron.ss01" horiz-adv-x="531" 
d="M303 -11q-82 0 -146.5 33.5t-101 91.5t-36.5 132q0 73 35.5 130.5t97 91t139.5 33.5q84 0 142 -38.5t87 -111.5l-304 -289l-85 88l274 260l-14 -112q-11 34 -35.5 52t-64.5 18q-35 0 -60.5 -14t-39 -40t-13.5 -62q0 -40 17 -71t47.5 -48t69.5 -17q34 0 60 11.5t51 38.5
l91 -91q-41 -44 -93.5 -65t-117.5 -21zM432 746l50 -74l-151 -140h-91l-151 140l50 74l215 -116h-137z" />
    <glyph glyph-name="ecircumflex.ss01" horiz-adv-x="531" 
d="M303 -11q-82 0 -146.5 33.5t-101 91.5t-36.5 132q0 73 35.5 130.5t97 91t139.5 33.5q84 0 142 -38.5t87 -111.5l-304 -289l-85 88l274 260l-14 -112q-11 34 -35.5 52t-64.5 18q-35 0 -60.5 -14t-39 -40t-13.5 -62q0 -40 17 -71t47.5 -48t69.5 -17q34 0 60 11.5t51 38.5
l91 -91q-41 -44 -93.5 -65t-117.5 -21zM139 532l-50 74l151 140h91l151 -140l-50 -74l-215 117l137 -1z" />
    <glyph glyph-name="edieresis.ss01" horiz-adv-x="531" 
d="M303 -11q-82 0 -146.5 33.5t-101 91.5t-36.5 132q0 73 35.5 130.5t97 91t139.5 33.5q84 0 142 -38.5t87 -111.5l-304 -289l-85 88l274 260l-14 -112q-11 34 -35.5 52t-64.5 18q-35 0 -60.5 -14t-39 -40t-13.5 -62q0 -40 17 -71t47.5 -48t69.5 -17q34 0 60 11.5t51 38.5
l91 -91q-41 -44 -93.5 -65t-117.5 -21zM174 543q-39 0 -65 27t-26 66t26 66t65 27q40 0 65.5 -27t25.5 -66t-25.5 -66t-65.5 -27zM399 543q-39 0 -65 27t-26 66t26 66t65 27q40 0 65.5 -27t25.5 -66t-25.5 -66t-65.5 -27z" />
    <glyph glyph-name="edotaccent.ss01" horiz-adv-x="531" 
d="M303 -11q-82 0 -146.5 33.5t-101 91.5t-36.5 132q0 73 35.5 130.5t97 91t139.5 33.5q84 0 142 -38.5t87 -111.5l-304 -289l-85 88l274 260l-14 -112q-11 34 -35.5 52t-64.5 18q-35 0 -60.5 -14t-39 -40t-13.5 -62q0 -40 17 -71t47.5 -48t69.5 -17q34 0 60 11.5t51 38.5
l91 -91q-41 -44 -93.5 -65t-117.5 -21zM286 543q-39 0 -65 27t-26 66t26 66t65 27q41 0 66.5 -27t25.5 -66t-25.5 -66t-66.5 -27z" />
    <glyph glyph-name="egrave.ss01" horiz-adv-x="531" 
d="M303 -11q-82 0 -146.5 33.5t-101 91.5t-36.5 132q0 73 35.5 130.5t97 91t139.5 33.5q84 0 142 -38.5t87 -111.5l-304 -289l-85 88l274 260l-14 -112q-11 34 -35.5 52t-64.5 18q-35 0 -60.5 -14t-39 -40t-13.5 -62q0 -40 17 -71t47.5 -48t69.5 -17q34 0 60 11.5t51 38.5
l91 -91q-41 -44 -93.5 -65t-117.5 -21zM346 541l-208 92l84 136l174 -142z" />
    <glyph glyph-name="emacron.ss01" horiz-adv-x="531" 
d="M303 -11q-82 0 -146.5 33.5t-101 91.5t-36.5 132q0 73 35.5 130.5t97 91t139.5 33.5q84 0 142 -38.5t87 -111.5l-304 -289l-85 88l274 260l-14 -112q-11 34 -35.5 52t-64.5 18q-35 0 -60.5 -14t-39 -40t-13.5 -62q0 -40 17 -71t47.5 -48t69.5 -17q34 0 60 11.5t51 38.5
l91 -91q-41 -44 -93.5 -65t-117.5 -21zM92 701h388v-125h-388v125z" />
    <glyph glyph-name="eogonek.ss01" horiz-adv-x="531" 
d="M303 -11q-82 0 -146.5 33.5t-101 91.5t-36.5 132q0 73 35.5 130.5t97 91t139.5 33.5q84 0 142 -38.5t87 -111.5l-304 -289l-85 88l274 260l-14 -112q-11 34 -35.5 52t-64.5 18q-35 0 -60.5 -14t-39 -40t-13.5 -62q0 -40 17 -71t47.5 -48t69.5 -17q34 0 60 11.5t51 38.5
l91 -91q-41 -44 -93.5 -65t-117.5 -21zM330 -207q-73 0 -116.5 31t-43.5 89q0 56 39 92.5t101 42.5l109 -38q-41 -12 -63 -30t-22 -47q0 -18 9 -27t26 -9q10 0 19 3.5t19 7.5l35 -88q-23 -13 -50.5 -20t-61.5 -7z" />
    <glyph glyph-name="g.ss01" horiz-adv-x="522" 
d="M248 -219q-70 0 -124 24.5t-85.5 68t-31.5 98.5q0 45 13.5 74t40.5 60l120 -78q-9 -9 -13.5 -19t-4.5 -24q0 -27 22.5 -43t63.5 -16q45 0 69.5 21.5t24.5 59.5q0 26 -12.5 45.5t-35.5 30t-53 10.5q-56 0 -102.5 26.5t-73 72.5t-26.5 103q0 59 28 105t76.5 72.5
t109.5 26.5q60 0 108 -25.5t76.5 -69.5t28.5 -99t-27 -97.5t-74 -67t-107 -24.5l1 95q70 -3 121.5 -32t80.5 -76.5t29 -106.5q0 -64 -30.5 -112.5t-85 -75.5t-127.5 -27zM254 229q20 0 34.5 8.5t23 23.5t8.5 34q0 20 -8 34.5t-23 22.5t-35 8t-35.5 -8t-24 -22.5t-8.5 -34.5
q0 -19 8.5 -34t24 -23.5t35.5 -8.5zM409 356l-99 98l109 108l99 -99z" />
    <glyph glyph-name="k.ss01" horiz-adv-x="548" 
d="M408 -19l-197 275l195 257l124 -94l-164 -194l5 66l172 -214zM51 0v729h174v-729h-174z" />
    <glyph glyph-name="uni0137.ss01" horiz-adv-x="548" 
d="M408 -19l-197 275l195 257l124 -94l-164 -194l5 66l172 -214zM51 0v729h174v-729h-174zM228 -413l-70 60l102 122l52 4q-12 -14 -25 -22.5t-26 -5.5q-32 7 -51.5 38t-10.5 70q9 41 42.5 65t76.5 15q40 -9 62.5 -44.5t13.5 -77.5q-3 -17 -14.5 -38.5t-39.5 -52.5z" />
    <glyph glyph-name="m.ss01" horiz-adv-x="856" 
d="M39 0v283q0 64 27.5 113t78 77t119.5 28q67 0 116.5 -29t76.5 -93h-58q28 64 77.5 93t116.5 29q69 0 119.5 -28t77.5 -77t27 -113v-283h-174v281q0 31 -17 50t-47 19q-29 0 -46 -18.5t-17 -50.5v-281h-175v281q0 32 -17.5 50.5t-45.5 18.5q-29 0 -46.5 -18.5t-17.5 -50.5
v-281h-175z" />
    <glyph glyph-name="n.ss01" horiz-adv-x="560" 
d="M38 0v273q0 68 30.5 119t85.5 80t126 29q73 0 127.5 -28.5t84.5 -80t30 -119.5v-273h-174v272q0 37 -18 57.5t-50 20.5t-50 -20.5t-18 -57.5v-272h-174z" />
    <glyph glyph-name="nacute.ss01" horiz-adv-x="560" 
d="M38 0v273q0 68 30.5 119t85.5 80t126 29q73 0 127.5 -28.5t84.5 -80t30 -119.5v-273h-174v272q0 37 -18 57.5t-50 20.5t-50 -20.5t-18 -57.5v-272h-174zM201 536l-50 86l175 142l83 -136z" />
    <glyph glyph-name="ncaron.ss01" horiz-adv-x="560" 
d="M38 0v273q0 68 30.5 119t85.5 80t126 29q73 0 127.5 -28.5t84.5 -80t30 -119.5v-273h-174v272q0 37 -18 57.5t-50 20.5t-50 -20.5t-18 -57.5v-272h-174zM426 746l50 -74l-151 -140h-90l-151 140l50 74l214 -116h-137z" />
    <glyph glyph-name="uni0146.ss01" horiz-adv-x="560" 
d="M38 0v273q0 68 30.5 119t85.5 80t126 29q73 0 127.5 -28.5t84.5 -80t30 -119.5v-273h-174v272q0 37 -18 57.5t-50 20.5t-50 -20.5t-18 -57.5v-272h-174zM218 -413l-70 60l102 122l52 4q-12 -14 -25 -22.5t-26 -5.5q-32 7 -51.5 38t-10.5 70q9 41 42.5 65t76.5 15
q40 -9 62.5 -44.5t13.5 -77.5q-3 -17 -14.5 -38.5t-39.5 -52.5z" />
    <glyph glyph-name="ntilde.ss01" horiz-adv-x="560" 
d="M38 0v273q0 68 30.5 119t85.5 80t126 29q73 0 127.5 -28.5t84.5 -80t30 -119.5v-273h-174v272q0 37 -18 57.5t-50 20.5t-50 -20.5t-18 -57.5v-272h-174zM355 538q-32 0 -55.5 11t-43.5 21.5t-42 10.5q-23 0 -39.5 -9.5t-30.5 -30.5l-79 80q28 48 62.5 69t79.5 21
q32 0 55.5 -10.5t43.5 -21.5t41 -11q24 0 40.5 10t29.5 30l79 -79q-28 -48 -62 -69.5t-79 -21.5z" />
    <glyph glyph-name="eng.ss01" horiz-adv-x="560" 
d="M316 -222q-54 0 -93.5 18.5t-67.5 49.5l107 107q10 -11 20.5 -15.5t21.5 -4.5q20 0 32 11t12 36v143h174v-140q0 -61 -26 -107t-72.5 -72t-107.5 -26zM38 0v273q0 68 30.5 119t85.5 80t126 29q73 0 127.5 -28.5t84.5 -80t30 -119.5v-273h-174v272q0 37 -18 57.5t-50 20.5
t-50 -20.5t-18 -57.5v-272h-174z" />
    <glyph glyph-name="oe.ss01" horiz-adv-x="914" 
d="M292 -11q-79 0 -140.5 33.5t-97.5 92t-36 131.5t35.5 130.5t97.5 91t140 33.5t139.5 -33.5t97.5 -91t36 -130.5t-35.5 -131.5t-97 -92t-139.5 -33.5zM291 144q29 0 50.5 12.5t33.5 35.5t12 53t-12.5 52.5t-33.5 35t-50 12.5q-28 0 -50 -13t-34 -35.5t-12 -52.5
q0 -29 12 -52t34 -35.5t50 -12.5zM686 -11q-82 0 -146.5 33.5t-101 91.5t-36.5 132q0 73 35.5 130.5t97 91t139.5 33.5q84 0 142 -38.5t87 -111.5l-304 -289l-85 88l274 260l-14 -112q-11 34 -35.5 52t-64.5 18q-35 0 -60.5 -14t-39 -40t-13.5 -62q0 -40 17 -71t47.5 -48
t69.5 -17q34 0 60 11.5t51 38.5l91 -91q-41 -44 -93.5 -65t-117.5 -21z" />
    <glyph glyph-name="t.ss01" horiz-adv-x="489" 
d="M323 -11q-64 0 -110.5 24.5t-71 70t-24.5 106.5v501h174v-503q0 -21 12.5 -33t30.5 -12q13 0 24 5t19 14l108 -108q-29 -30 -66 -47.5t-96 -17.5zM13 343v146h430v-146h-430z" />
    <glyph glyph-name="tcaron.ss01" horiz-adv-x="529" 
d="M323 -11q-64 0 -110.5 24.5t-71 70t-24.5 106.5v501h174v-503q0 -21 12.5 -33t30.5 -12q13 0 24 5t19 14l108 -108q-29 -30 -66 -47.5t-96 -17.5zM13 343v146h430v-146h-430zM407 520l-81 45l75 141l50 14q-8 -16 -19 -26.5t-25 -10.5q-31 0 -57.5 26t-26.5 66
q0 42 28.5 72.5t72.5 30.5q40 0 70 -30t30 -73q0 -18 -6.5 -41t-26.5 -60z" />
    <glyph glyph-name="uni021B.ss01" horiz-adv-x="489" 
d="M323 -11q-64 0 -110.5 24.5t-71 70t-24.5 106.5v501h174v-503q0 -21 12.5 -33t30.5 -12q13 0 24 5t19 14l108 -108q-29 -30 -66 -47.5t-96 -17.5zM13 343v146h430v-146h-430zM234 -413l-70 60l102 122l52 4q-12 -14 -25 -22.5t-26 -5.5q-32 7 -51.5 38t-10.5 70
q9 41 42.5 65t76.5 15q40 -9 62.5 -44.5t13.5 -77.5q-3 -17 -14.5 -38.5t-39.5 -52.5z" />
    <glyph glyph-name="f_t" horiz-adv-x="720" 
d="M111 0v520q0 62 27 111.5t78.5 79.5t123.5 30v-155q-24 0 -39.5 -16t-15.5 -43v-527h-174zM7 344v145h703v-145h-703zM428 0v691h174v-691h-174z" />
    <glyph glyph-name="r_f" horiz-adv-x="749" 
d="M51 0v489h174v-489h-174zM408 0v520q0 62 27 111.5t78 79.5t121 30q53 0 93.5 -17.5t68.5 -46.5l-108 -109q-8 9 -20 13.5t-26 4.5q-28 0 -43.5 -16t-15.5 -43v-527h-175zM225 265l-78 60q29 83 80.5 124t149.5 41h343v-146h-388q-55 0 -81 -19.5t-26 -59.5z" />
    <glyph glyph-name="r_t" horiz-adv-x="701" 
d="M51 0v489h174v-489h-174zM225 265l-78 60q29 83 80.5 124t149.5 41h314v-146h-359q-55 0 -81 -19.5t-26 -59.5zM409 0v691h175v-691h-175z" />
    <glyph glyph-name="t_f" horiz-adv-x="776" 
d="M118 0v691h174v-691h-174zM10 344v145h737v-145h-737zM435 0v520q0 62 27 111.5t77.5 79.5t121.5 30q53 0 93 -17.5t69 -46.5l-109 -109q-8 9 -19.5 13.5t-26.5 4.5q-27 0 -43 -16t-16 -43v-527h-174z" />
    <glyph glyph-name="ordfeminine" unicode="&#xaa;" horiz-adv-x="364" 
d="M152 408q-41 0 -72.5 20t-50 54.5t-18.5 79.5q0 44 18 78.5t50 54.5t73 20q40 0 69.5 -21t35.5 -53v-159q-6 -31 -35.5 -52.5t-69.5 -21.5zM177 507q24 0 38.5 15t14.5 40q0 24 -15 39.5t-38 15.5t-38 -16t-15 -39q0 -25 15 -40t38 -15zM226 414v79l16 72l-16 71v73h109
v-295h-109z" />
    <glyph glyph-name="ordmasculine" unicode="&#xba;" horiz-adv-x="351" 
d="M176 406q-47 0 -85 20t-59.5 55.5t-21.5 79.5t21.5 79t59 55t85.5 20t85 -20t58.5 -55t21.5 -79t-21.5 -79t-58.5 -55.5t-85 -20.5zM176 505q24 0 38 15.5t14 40.5t-14.5 40t-37.5 15q-24 0 -38.5 -15.5t-14.5 -40.5q0 -24 14.5 -39.5t38.5 -15.5z" />
    <glyph glyph-name="zero" unicode="0" horiz-adv-x="671" 
d="M337 -11q-89 0 -159 46.5t-110.5 129.5t-40.5 191q0 107 40 189.5t109.5 129t157.5 46.5q90 0 160 -46.5t110 -129t40 -191.5q0 -108 -40 -190.5t-109.5 -128.5t-157.5 -46zM335 143q41 0 70 24.5t44.5 71.5t15.5 116q0 68 -15.5 115t-44.5 71.5t-71 24.5q-39 0 -68 -24
t-44.5 -71t-15.5 -115q0 -69 15.5 -116.5t44.5 -72t69 -24.5z" />
    <glyph glyph-name="one" unicode="1" horiz-adv-x="390" 
d="M151 0v709h177v-709h-177zM16 560v149h302v-149h-302z" />
    <glyph glyph-name="two" unicode="2" horiz-adv-x="576" 
d="M22 97l278 283q20 22 33 39.5t18.5 33t5.5 32.5q0 38 -24.5 60t-64.5 22q-38 0 -69 -21.5t-64 -71.5l-117 104q43 70 110 106.5t154 36.5q77 0 133 -28t86.5 -79.5t30.5 -121.5q0 -42 -11 -77.5t-35 -70t-64 -72.5l-184 -179zM22 0v97l149 52h376v-149h-525z" />
    <glyph glyph-name="three" unicode="3" horiz-adv-x="569" 
d="M256 -11q-75 0 -138 25.5t-107 72.5l114 112q18 -26 53.5 -42.5t74.5 -16.5q33 0 58.5 11.5t40 33t14.5 51.5t-15 51.5t-42.5 32.5t-65.5 11q-20 0 -41.5 -2.5t-34.5 -7.5l78 98q32 8 58.5 13.5t47.5 5.5q54 0 97 -25.5t68 -72t25 -109.5q0 -72 -35 -126.5t-99.5 -85
t-150.5 -30.5zM167 321v98l165 193h194l-170 -193zM60 560v149h466v-97l-135 -52h-331z" />
    <glyph glyph-name="four" unicode="4" horiz-adv-x="613" 
d="M18 243l222 466h192l-228 -466h-186zM18 145v98l52 51h524v-149h-576zM351 0v427h175v-427h-175z" />
    <glyph glyph-name="five" unicode="5" horiz-adv-x="568" 
d="M257 -11q-73 0 -139.5 25.5t-109.5 72.5l114 112q18 -26 53.5 -42.5t74.5 -16.5q35 0 60.5 12.5t40 35t14.5 53.5t-14.5 54t-41.5 36t-65 13q-34 0 -62.5 -9.5t-51.5 -26.5l17 114q27 16 48 27t44.5 16t55.5 5q81 0 135.5 -32.5t82.5 -86t28 -117.5q0 -72 -35 -127.5
t-98.5 -86.5t-150.5 -31zM130 308l-70 64l35 337h160l-37 -326zM117 560l-22 149h407v-149h-385z" />
    <glyph glyph-name="six" unicode="6" horiz-adv-x="579" 
d="M289 -11q-76 0 -136.5 32.5t-96 89t-35.5 126.5q0 87 60 175l203 297h200l-231 -319l-66 6q15 24 30.5 41.5t38.5 27.5t61 10q67 0 121.5 -31.5t87 -85t32.5 -120.5q0 -71 -35.5 -127t-96 -89t-137.5 -33zM289 140q29 0 51 13t34.5 36.5t12.5 52.5t-12.5 52.5t-34.5 36.5
t-51 13q-28 0 -50 -13.5t-34.5 -36.5t-12.5 -52t12.5 -52.5t34.5 -36.5t50 -13z" />
    <glyph glyph-name="seven" unicode="7" horiz-adv-x="530" 
d="M108 0l232 611h173l-222 -611h-183zM16 560v149h497v-98l-54 -51h-443z" />
    <glyph glyph-name="eight" unicode="8" horiz-adv-x="569" 
d="M285 -11q-79 0 -137.5 27t-90.5 74t-32 108q0 51 19.5 92t55 67.5t81.5 35.5l-3 -33q-40 8 -68 32.5t-43 60t-15 73.5q0 57 29.5 101t82 69t121.5 25t121 -25t81.5 -69t29.5 -101q0 -38 -15 -73.5t-43 -60t-68 -32.5l-4 33q47 -9 82.5 -35.5t55 -67.5t19.5 -92
q0 -61 -32 -108t-90.5 -74t-136.5 -27zM285 138q26 0 46.5 11t32 30.5t11.5 44.5t-11.5 44t-32 30.5t-46.5 11.5q-27 0 -47 -11.5t-32 -30.5t-12 -44t12 -44.5t32 -30.5t47 -11zM285 437q30 0 49.5 19t19.5 49q0 31 -19.5 51t-49.5 20q-31 0 -50.5 -19.5t-19.5 -49.5
t19.5 -50t50.5 -20z" />
    <glyph glyph-name="nine" unicode="9" horiz-adv-x="579" 
d="M95 0l231 319l66 -5q-15 -25 -30.5 -42.5t-38.5 -27.5t-61 -10q-67 0 -121.5 31.5t-87.5 85.5t-33 121q0 70 36 126.5t97 89.5t136 33q77 0 137.5 -33t96 -89t35.5 -126q0 -87 -60 -176l-203 -297h-200zM289 366q29 0 51 13t34.5 36t12.5 52q0 30 -12.5 53t-34.5 36
t-51 13q-28 0 -50 -13t-34.5 -36t-12.5 -53q0 -29 12.5 -52t34.5 -36t50 -13z" />
    <glyph glyph-name="one.ss01" horiz-adv-x="431" 
d="M193 0v629l33 80h144v-709h-177zM103 405l-96 107l219 197l50 -141z" />
    <glyph glyph-name="zero.tf" horiz-adv-x="590" 
d="M296 -11q-85 0 -152.5 46.5t-106 129.5t-38.5 190q0 108 38 190.5t105 129t152 46.5q86 0 153 -46.5t106 -129t39 -190.5q0 -109 -38.5 -191.5t-105 -128.5t-152.5 -46zM295 143q38 0 64 24.5t40 71.5t14 116q0 68 -14 115t-40.5 71.5t-64.5 24.5q-37 0 -63 -24t-40 -71
t-14 -115q0 -69 14 -116.5t40.5 -72t63.5 -24.5z" />
    <glyph glyph-name="one.tf" horiz-adv-x="590" 
d="M237 0v709h175v-709h-175zM71 560v149h327v-149h-327zM71 0v149h458v-149h-458z" />
    <glyph glyph-name="two.tf" horiz-adv-x="590" 
d="M27 97l281 283q22 22 35 40t18.5 33.5t5.5 31.5q0 38 -25 60t-66 22q-38 0 -70.5 -21.5t-64.5 -71.5l-118 104q43 70 111 106.5t156 36.5q76 0 132.5 -28t87.5 -79.5t31 -121.5q0 -42 -11 -77.5t-35.5 -70t-64.5 -72.5l-186 -179zM27 0v97l149 52h380v-149h-529z" />
    <glyph glyph-name="three.tf" horiz-adv-x="590" 
d="M266 -11q-75 0 -139 25.5t-108 72.5l113 112q19 -26 55 -42.5t77 -16.5q34 0 60 11.5t41 33t15 51.5t-15.5 51.5t-43.5 32.5t-68 11q-20 0 -41.5 -2.5t-35.5 -7.5l78 98q32 8 59 13.5t48 5.5q55 0 99 -25.5t69.5 -72t25.5 -109.5q0 -72 -36 -126.5t-101 -85t-152 -30.5z
M176 321v98l169 193h195l-174 -193zM67 560v149h473v-97l-135 -52h-338z" />
    <glyph glyph-name="four.tf" horiz-adv-x="590" 
d="M9 243l219 466h191l-223 -466h-187zM9 145v98l53 51h517v-149h-570zM338 0v427h174v-427h-174z" />
    <glyph glyph-name="five.tf" horiz-adv-x="590" 
d="M268 -11q-73 0 -140.5 25t-112.5 73l114 112q20 -27 56.5 -43t75.5 -16q36 0 62.5 12.5t41 35t14.5 53.5t-15 54t-42.5 36t-66.5 13q-33 0 -63 -9.5t-53 -26.5l17 114q27 17 48.5 27.5t45.5 15.5t56 5q81 0 136.5 -32.5t84 -86t28.5 -117.5q0 -72 -35 -127.5t-99.5 -86.5
t-152.5 -31zM139 308l-71 64l36 337h160l-38 -326zM126 560l-22 149h412v-149h-390z" />
    <glyph glyph-name="six.tf" horiz-adv-x="590" 
d="M295 -11q-76 0 -137.5 32.5t-97 89t-35.5 126.5q0 87 60 175l205 297h200l-231 -319l-67 6q15 25 30.5 42.5t39 27t60.5 9.5q68 0 123 -31.5t88 -85t33 -120.5q0 -71 -36 -127t-97 -89t-138 -33zM295 140q29 0 51 13t35.5 36.5t13.5 52.5t-13.5 52.5t-35.5 36.5t-51 13
q-28 0 -50.5 -13.5t-35.5 -36.5t-13 -52t13 -52.5t35.5 -36.5t50.5 -13z" />
    <glyph glyph-name="seven.tf" horiz-adv-x="590" 
d="M144 0l241 611h173l-231 -611h-183zM31 560v149h527v-98l-55 -51h-472z" />
    <glyph glyph-name="eight.tf" horiz-adv-x="590" 
d="M295 -11q-79 0 -138 27t-92 74t-33 108q0 53 20.5 93.5t57 66.5t81.5 35l-3 -33q-40 8 -69 32.5t-44.5 60t-15.5 73.5q0 57 30 101t83.5 69t122.5 25t122.5 -25t83 -69t29.5 -101q0 -38 -15 -73.5t-43.5 -60t-69.5 -32.5l-4 33q47 -9 83 -35t56.5 -66.5t20.5 -93.5
q0 -61 -33 -108t-91.5 -74t-138.5 -27zM295 138q28 0 49 11t32.5 30.5t11.5 44.5t-11.5 44t-32.5 30.5t-49 11.5q-27 0 -48.5 -11.5t-33 -30.5t-11.5 -44t11.5 -44.5t33 -30.5t48.5 -11zM295 437q31 0 51.5 19t20.5 49q0 31 -20.5 51t-51.5 20t-52 -19.5t-21 -49.5t21 -50
t52 -20z" />
    <glyph glyph-name="nine.tf" horiz-adv-x="590" 
d="M100 0l232 319l66 -5q-15 -25 -30.5 -43t-39 -27.5t-60.5 -9.5q-67 0 -122.5 31.5t-88.5 85.5t-33 121q0 70 36 126.5t97.5 89.5t137.5 33q77 0 138 -33t97 -89t36 -126q0 -88 -61 -176l-205 -297h-200zM295 366q29 0 51 13t35 36t13 52q0 30 -13 53t-35 36t-51 13
q-28 0 -50.5 -13t-35.5 -36t-13 -53q0 -29 13 -52t35.5 -36t50.5 -13z" />
    <glyph glyph-name="fraction" unicode="&#x2044;" horiz-adv-x="696" 
d="M281 324l62 -68l-223 -267l-106 106zM401 387l-62 67l223 268l106 -106z" />
    <glyph glyph-name="onehalf" unicode="&#xbd;" horiz-adv-x="696" 
d="M273 316l62 -60l-215 -267l-106 106zM401 394l-62 60l223 268l106 -106zM123 349v360h123v-360h-123zM59 608v101h182v-101h-182zM369 64l148 146q6 5 8.5 11.5t2.5 11.5q0 13 -8 21t-24 8q-13 0 -25 -9t-29 -33l-79 73q23 36 61 54t84 18q66 0 104 -33.5t38 -91.5
q0 -29 -12.5 -56t-38.5 -51l-84 -75zM369 -1v65l103 35h185v-100h-288z" />
    <glyph glyph-name="onequarter" unicode="&#xbc;" horiz-adv-x="697" 
d="M281 316l62 -60l-223 -267l-106 106zM401 394l-62 60l223 268l106 -106zM123 349v360h123v-360h-123zM59 608v101h182v-101h-182zM364 119l99 240h122l-101 -240h-120zM364 55v64l31 36h276v-100h-307zM537 -1v206h113v-206h-113z" />
    <glyph glyph-name="threequarters" unicode="&#xbe;" horiz-adv-x="693" 
d="M261 325l62 -59l-203 -277l-106 106zM431 385l-62 59l195 278l106 -106zM172 342q-40 0 -74.5 13t-59.5 36l77 75q7 -10 23.5 -16.5t31.5 -6.5q17 0 29.5 7.5t12.5 22.5q0 14 -13 22t-36 8q-13 0 -24.5 -1.5t-15.5 -3.5l54 66q22 4 37 6.5t24 2.5q40 0 66.5 -27t26.5 -76
q0 -57 -43.5 -92.5t-115.5 -35.5zM123 498v65l68 81h129l-70 -80zM69 608v101h251v-65l-88 -36h-163zM349 119l98 240h123l-101 -240h-120zM349 55v64l30 36h276v-100h-306zM522 -1v206h113v-206h-113z" />
    <glyph glyph-name="uni00B9" unicode="&#xb9;" horiz-adv-x="265" 
d="M81 349v360h122v-360h-122zM16 608v101h182v-101h-182z" />
    <glyph glyph-name="uni00B2" unicode="&#xb2;" horiz-adv-x="339" 
d="M23 414l148 146q6 5 8.5 11.5t2.5 11.5q0 13 -8.5 21t-23.5 8q-13 0 -25 -9t-29 -33l-79 73q23 36 60.5 54t84.5 18q66 0 103.5 -33.5t37.5 -91.5q0 -29 -12 -56t-39 -51l-83 -75zM23 349v65l103 35h184v-100h-287z" />
    <glyph glyph-name="uni00B3" unicode="&#xb3;" horiz-adv-x="331" 
d="M145 342q-40 0 -74.5 13t-59.5 36l77 75q7 -10 23.5 -16.5t31.5 -6.5q17 0 29.5 7.5t12.5 22.5q0 14 -13 22t-36 8q-13 0 -24.5 -1.5t-15.5 -3.5l54 66q22 4 37 6.5t24 2.5q40 0 66.5 -27t26.5 -76q0 -57 -43.5 -92.5t-115.5 -35.5zM96 498v65l68 81h129l-70 -80zM42 608
v101h251v-65l-88 -36h-163z" />
    <glyph glyph-name="uni2074" unicode="&#x2074;" horiz-adv-x="343" 
d="M18 469l98 240h123l-101 -240h-120zM18 405v64l30 36h276v-100h-306zM191 349v206h113v-206h-113z" />
    <glyph glyph-name="CR" unicode="&#xd;" horiz-adv-x="600" 
 />
    <glyph glyph-name="space" unicode=" " horiz-adv-x="185" 
 />
    <glyph glyph-name="uni00A0" unicode="&#xa0;" horiz-adv-x="185" 
 />
    <glyph glyph-name="period" unicode="." horiz-adv-x="304" 
d="M153 -11q-44 0 -72 29t-28 72t28 72t72 29q43 0 71 -29t28 -72t-28 -72t-71 -29z" />
    <glyph glyph-name="comma" unicode="," horiz-adv-x="287" 
d="M50 -122l75 141l50 14q-8 -16 -19 -26.5t-25 -10.5q-31 0 -57.5 26t-26.5 66q0 43 28.5 73t72.5 30q40 0 70 -30t30 -73q0 -17 -6.5 -40.5t-26.5 -59.5l-84 -154z" />
    <glyph glyph-name="colon" unicode=":" horiz-adv-x="300" 
d="M150 -11q-43 0 -71.5 29t-28.5 71q0 44 28.5 73t71.5 29t71 -29t28 -73q0 -42 -28 -71t-71 -29zM150 278q-43 0 -71.5 29.5t-28.5 71.5q0 43 28.5 72.5t71.5 29.5t71 -29.5t28 -72.5q0 -42 -28 -71.5t-71 -29.5z" />
    <glyph glyph-name="semicolon" unicode=";" horiz-adv-x="286" 
d="M48 -122l75 141l50 14q-8 -16 -19 -26.5t-25 -10.5q-32 0 -58 26t-26 66q0 42 28.5 72.5t71.5 30.5q41 0 71 -30t30 -73q0 -17 -6.5 -40.5t-26.5 -59.5l-84 -154zM145 278q-43 0 -71.5 29.5t-28.5 71.5q0 43 28.5 72.5t71.5 29.5t71 -29.5t28 -72.5q0 -42 -28 -71.5
t-71 -29.5z" />
    <glyph glyph-name="ellipsis" unicode="&#x2026;" horiz-adv-x="874" 
d="M438 -11q-44 0 -72 29t-28 72t28 72t72 29q43 0 71 -29t28 -72t-28 -72t-71 -29zM723 -11q-44 0 -72 29t-28 72t28 72t72 29q43 0 71 -29t28 -72t-28 -72t-71 -29zM153 -11q-44 0 -72 29t-28 72t28 72t72 29q43 0 71 -29t28 -72t-28 -72t-71 -29z" />
    <glyph glyph-name="exclam" unicode="!" horiz-adv-x="297" 
d="M83 270l-30 459h190l-30 -459h-130zM148 -11q-43 0 -71.5 29t-28.5 72t28.5 72t71.5 29t71 -29t28 -72t-28 -72t-71 -29z" />
    <glyph glyph-name="exclamdown" unicode="&#xa1;" horiz-adv-x="296" 
d="M53 -207l30 424h130l30 -424h-190zM148 296q-43 0 -71.5 30t-28.5 72q0 43 28.5 72t71.5 29q44 0 72 -29t28 -72q0 -42 -28 -72t-72 -30z" />
    <glyph glyph-name="question" unicode="?" horiz-adv-x="496" 
d="M192 267l-11 190h50q21 0 37 7.5t24.5 21.5t8.5 32q0 19 -8.5 32.5t-23 20.5t-34.5 7q-34 0 -63 -21t-48 -52l-107 104q30 57 87.5 94.5t138.5 37.5q66 0 117 -28.5t79.5 -76t28.5 -105.5q0 -62 -24.5 -104t-65 -67t-88.5 -36l44 64l-8 -121h-134zM259 -11
q-43 0 -71.5 29t-28.5 72t28.5 72t71.5 29t71 -29t28 -72t-28 -72t-71 -29z" />
    <glyph glyph-name="questiondown" unicode="&#xbf;" horiz-adv-x="491" 
d="M252 -219q-66 0 -116.5 26t-79 71t-28.5 103q0 56 25 97t67 68t94 38l-52 -50l8 87h134l11 -157h-50q-31 0 -50.5 -16t-19.5 -45q0 -18 8.5 -31.5t23 -20.5t33.5 -7q34 0 63 20.5t47 52.5l107 -104q-30 -57 -87 -94.5t-138 -37.5zM237 296q-42 0 -70.5 30t-28.5 72
q0 43 28.5 72t70.5 29q43 0 71.5 -29t28.5 -72q0 -42 -28.5 -72t-71.5 -30z" />
    <glyph glyph-name="periodcentered" unicode="&#xb7;" horiz-adv-x="199" 
d="M101 270q-44 0 -72 29t-28 72t28 72t72 29q43 0 71 -29t28 -72t-28 -72t-71 -29z" />
    <glyph glyph-name="bullet" unicode="&#x2022;" horiz-adv-x="355" 
d="M178 240q-38 0 -67.5 17.5t-46 47.5t-16.5 65q0 36 16.5 65.5t46 47t67.5 17.5q37 0 66.5 -17.5t46 -47t16.5 -65.5q0 -35 -16.5 -65t-46 -47.5t-66.5 -17.5z" />
    <glyph glyph-name="asterisk" unicode="*" horiz-adv-x="489" 
d="M207 301l1 156l-120 -90l-62 120l142 46l-118 86l95 96l83 -120l46 144l120 -62l-90 -123l153 1l-22 -134l-143 50l49 -147z" />
    <glyph glyph-name="numbersign" unicode="#" horiz-adv-x="673" 
d="M318 0l121 709h140l-121 -709h-140zM31 197v120h576v-120h-576zM88 0l121 709h139l-120 -709h-140zM66 407v119h576v-119h-576z" />
    <glyph glyph-name="slash" unicode="/" horiz-adv-x="376" 
d="M0 -62l228 825h148l-228 -825h-148z" />
    <glyph glyph-name="backslash" unicode="\" horiz-adv-x="376" 
d="M228 -62l-228 825h148l228 -825h-148z" />
    <glyph glyph-name="hyphen" unicode="-" horiz-adv-x="463" 
d="M51 181v149h361v-149h-361z" />
    <glyph glyph-name="endash" unicode="&#x2013;" horiz-adv-x="576" 
d="M51 186v139h474v-139h-474z" />
    <glyph glyph-name="emdash" unicode="&#x2014;" horiz-adv-x="870" 
d="M51 186v138h767v-138h-767z" />
    <glyph glyph-name="underscore" unicode="_" horiz-adv-x="517" 
d="M0 -171v132h517v-132h-517z" />
    <glyph glyph-name="parenleft" unicode="(" horiz-adv-x="315" 
d="M210 -132q-58 51 -99 120t-62.5 152t-21.5 174t21.5 173.5t62.5 152t99 119.5l94 -92q-63 -64 -95.5 -152t-32.5 -201q0 -112 32.5 -201t95.5 -152z" />
    <glyph glyph-name="parenright" unicode=")" horiz-adv-x="315" 
d="M105 -132l-94 93q63 63 95.5 152t32.5 201q0 113 -32.5 201t-95.5 152l94 92q59 -50 99.5 -119.5t62 -152t21.5 -173.5t-21.5 -174t-62 -152t-99.5 -120z" />
    <glyph glyph-name="braceleft" unicode="{" horiz-adv-x="349" 
d="M255 -96q-90 0 -138 45.5t-39 139.5l11 116q3 29 -7.5 40.5t-38.5 11.5h-28v122h28q28 0 38.5 12t7.5 40l-12 113q-9 92 39.5 138.5t138.5 46.5h63v-124h-33q-42 0 -55.5 -17t-10.5 -47l8 -93q4 -42 -4 -71t-34 -48t-76 -31v38q50 -10 76 -28.5t34 -47.5t4 -71l-8 -96
q-2 -31 11 -47.5t55 -16.5h33v-125h-63z" />
    <glyph glyph-name="braceright" unicode="}" horiz-adv-x="349" 
d="M87 -96h-63v125h33q42 0 55 16.5t11 47.5l-8 96q-4 42 4 71t34 47.5t76 28.5v-38q-50 12 -76 31t-34 48t-4 71l8 93q3 30 -10.5 47t-55.5 17h-33v124h63q90 0 138.5 -46.5t39.5 -138.5l-12 -113q-3 -28 7.5 -40t38.5 -12h28v-122h-28q-28 0 -38.5 -11.5t-7.5 -40.5
l11 -116q10 -94 -38.5 -139.5t-138.5 -45.5z" />
    <glyph glyph-name="bracketleft" unicode="[" horiz-adv-x="352" 
d="M61 -96v825h139v-825h-139zM130 -96v125h191v-125h-191zM130 605v124h191v-124h-191z" />
    <glyph glyph-name="bracketright" unicode="]" horiz-adv-x="352" 
d="M153 -96v825h138v-825h-138zM31 -96v125h191v-125h-191zM31 605v124h191v-124h-191z" />
    <glyph glyph-name="quotesinglbase" unicode="&#x201a;" horiz-adv-x="287" 
d="M50 -122l75 141l50 14q-8 -16 -19 -26.5t-25 -10.5q-31 0 -57.5 26t-26.5 66q0 43 28.5 73t72.5 30q40 0 70 -30t30 -73q0 -17 -6.5 -40.5t-26.5 -59.5l-84 -154z" />
    <glyph glyph-name="quotedblbase" unicode="&#x201e;" horiz-adv-x="523" 
d="M287 -122l75 141l50 14q-8 -16 -19 -26.5t-25 -10.5q-32 0 -58 26t-26 66q0 42 28.5 72.5t71.5 30.5q41 0 71 -30t30 -73q0 -18 -6.5 -41t-26.5 -60l-84 -154zM50 -122l76 141l50 14q-9 -16 -20 -26.5t-25 -10.5q-31 0 -57 26t-26 66q0 42 28.5 72.5t71.5 30.5
q41 0 71 -30t30 -73q0 -18 -7 -41t-27 -60l-83 -154z" />
    <glyph glyph-name="quotedblleft" unicode="&#x201c;" horiz-adv-x="502" 
d="M226 695l-75 -142l-50 -13q8 15 19.5 26t24.5 11q32 0 58 -26t26 -67q0 -42 -28.5 -72.5t-71.5 -30.5q-41 0 -71 30t-30 73q0 18 6.5 41t26.5 60l84 154zM463 695l-76 -142l-50 -13q9 15 20 26t25 11q32 0 57.5 -26t25.5 -67q0 -42 -28.5 -72.5t-71.5 -30.5q-41 0 -71 30
t-30 73q0 18 7 41t27 60l83 154z" />
    <glyph glyph-name="quotedblright" unicode="&#x201d;" horiz-adv-x="502" 
d="M276 406l75 141l50 14q-8 -16 -19 -26.5t-25 -10.5q-32 0 -58 26t-26 66q0 42 28.5 72.5t71.5 30.5q41 0 71 -30t30 -73q0 -18 -6.5 -41t-26.5 -60l-84 -154zM39 406l76 141l50 14q-9 -16 -20 -26.5t-25 -10.5q-31 0 -57 26t-26 66q0 42 28.5 72.5t71.5 30.5q41 0 71 -30
t30 -73q0 -18 -7 -41t-27 -60l-83 -154z" />
    <glyph glyph-name="quoteleft" unicode="&#x2018;" horiz-adv-x="266" 
d="M226 695l-75 -142l-50 -13q8 15 19.5 26t24.5 11q32 0 58 -26t26 -67q0 -42 -28.5 -72.5t-71.5 -30.5q-41 0 -71 30t-30 73q0 18 6.5 41t26.5 60l84 154z" />
    <glyph glyph-name="quoteright" unicode="&#x2019;" horiz-adv-x="266" 
d="M39 406l76 141l50 14q-9 -16 -20 -26.5t-25 -10.5q-31 0 -57 26t-26 66q0 42 28.5 72.5t71.5 30.5q41 0 71 -30t30 -73q0 -18 -7 -41t-27 -60l-83 -154z" />
    <glyph glyph-name="guillemotleft" unicode="&#xab;" horiz-adv-x="527" 
d="M120 67l-101 179l101 179h159l-106 -179l106 -179h-159zM350 67l-101 179l101 179h159l-106 -179l106 -179h-159z" />
    <glyph glyph-name="guillemotright" unicode="&#xbb;" horiz-adv-x="527" 
d="M248 67l106 179l-106 179h159l101 -179l-101 -179h-159zM18 67l106 179l-106 179h159l101 -179l-101 -179h-159z" />
    <glyph glyph-name="guilsinglleft" unicode="&#x2039;" horiz-adv-x="297" 
d="M120 67l-101 179l101 179h159l-106 -179l106 -179h-159z" />
    <glyph glyph-name="guilsinglright" unicode="&#x203a;" horiz-adv-x="297" 
d="M18 67l106 179l-106 179h159l101 -179l-101 -179h-159z" />
    <glyph glyph-name="quotedbl" unicode="&#x22;" horiz-adv-x="471" 
d="M291 417l-29 312h161l-30 -312h-102zM78 417l-30 312h162l-30 -312h-102z" />
    <glyph glyph-name="quotesingle" unicode="'" horiz-adv-x="254" 
d="M76 417l-30 312h162l-30 -312h-102z" />
    <glyph glyph-name="uni2713" unicode="&#x2713;" horiz-adv-x="857" 
d="M276 60l-258 252l110 109l237 -233l-66 -1l430 490l110 -111l-459 -506h-104z" />
    <glyph glyph-name="at" unicode="@" horiz-adv-x="766" 
d="M388 -119q-75 0 -138.5 26t-111.5 72.5t-75 109t-27 135.5t27.5 135.5t76 109.5t113.5 73t141 26q99 0 174.5 -42t118 -117.5t42.5 -174.5q0 -50 -9.5 -89t-30.5 -70h-127q16 19 26.5 44t15.5 54.5t5 61.5q0 73 -26 121t-73.5 72.5t-112.5 24.5q-67 0 -120.5 -27
t-83.5 -78t-30 -125q0 -71 29 -122.5t79.5 -78t114.5 -26.5q46 0 82 12.5t67 36.5l81 -82q-46 -41 -105 -61.5t-123 -20.5zM366 72q-37 0 -70.5 20t-54 54.5t-20.5 77.5q0 44 20.5 79.5t54 56t70.5 20.5q48 0 76 -21t28 -73v-122q0 -51 -27.5 -71.5t-76.5 -20.5zM375 173
q23 0 35.5 15.5t12.5 36.5q0 22 -13 36.5t-35 14.5t-35 -15t-13 -36q0 -22 13 -37t35 -15zM492 75v94h197v-94h-197zM439 75v81l12 72l-12 72v72h102v-297h-102z" />
    <glyph glyph-name="ampersand" unicode="&#x26;" horiz-adv-x="701" 
d="M499 0l-320 353q-37 42 -53.5 80t-16.5 83q0 54 28 100.5t77 75.5t114 29q51 0 90.5 -14.5t67.5 -36.5t42 -45l-113 -111q-19 26 -39 37t-44 11q-26 0 -43 -15t-17 -36q0 -17 8 -31.5t22 -31.5l400 -448h-203zM272 -11q-72 0 -125.5 29t-83 78.5t-29.5 110.5
q0 67 34.5 119.5t106.5 85.5l73 -116q-27 -10 -40 -30.5t-13 -45.5q0 -20 9.5 -37t27.5 -27t43 -10t45.5 11.5t36.5 36.5l120 -118q-16 -20 -46.5 -40t-71 -33.5t-87.5 -13.5z" />
    <glyph glyph-name="paragraph" unicode="&#xb6;" horiz-adv-x="718" 
d="M404 254h-129q-67 0 -122.5 27t-87.5 78.5t-32 121.5q0 72 32 122.5t87.5 78t122.5 27.5h414v-133h-406q-25 0 -47 -10.5t-35 -32t-13 -52.5t13 -52t35 -31.5t47 -10.5h121v-133zM438 -100h-137v809h137v-809zM623 -100h-137v809h137v-809z" />
    <glyph glyph-name="section" unicode="&#xa7;" horiz-adv-x="550" 
d="M282 146l-7 107q27 0 43 10t16 29q0 22 -19 34t-48.5 21t-62.5 20t-62.5 30t-48 52t-18.5 86q0 55 26.5 96.5t76 64.5t115.5 23q67 0 127 -25.5t97 -75.5l-98 -101q-25 32 -57.5 46t-61.5 14q-28 0 -41 -10t-13 -28q0 -19 18.5 -30t47.5 -20t62 -20t62.5 -29t48 -49.5
t18.5 -80.5q0 -48 -27.5 -85t-77 -58t-116.5 -21zM257 -122q-67 0 -127.5 26t-96.5 75l98 101q25 -32 57.5 -45.5t61.5 -13.5q27 0 40.5 10.5t13.5 26.5q0 20 -18.5 31t-48 20t-62 19.5t-62 29t-48 50t-18.5 80.5q0 48 27.5 84.5t77 58t115.5 21.5l8 -108q-27 0 -43 -9.5
t-16 -28.5q0 -22 19 -34.5t48 -21t62.5 -19.5t62.5 -30.5t48 -52t19 -86.5t-26.5 -95.5t-75.5 -65t-116 -23.5z" />
    <glyph glyph-name="copyright" unicode="&#xa9;" horiz-adv-x="804" 
d="M403 -10q-80 0 -146 28.5t-115 78t-75.5 116.5t-26.5 145q0 77 26 143t74.5 115.5t114.5 77.5t146 28t147 -28t115.5 -77.5t74.5 -116t26 -144.5q0 -76 -26 -143t-74.5 -117t-115 -78t-145.5 -28zM415 150q-63 0 -114 27t-80.5 73t-29.5 106q0 59 30 106t81.5 73.5
t115.5 26.5q46 0 83.5 -14.5t69.5 -44.5l-98 -98q-10 11 -23 16t-32 5q-20 0 -36 -9t-25 -24t-9 -36t9.5 -37t25.5 -25t35 -9q20 0 34 6.5t25 19.5l98 -98q-35 -34 -73.5 -49t-86.5 -15zM401 48q89 0 157.5 41t107 111t38.5 158q0 86 -38.5 155t-107 110t-157.5 41
q-90 0 -158 -40.5t-105.5 -109.5t-37.5 -156q0 -88 38 -158t106 -111t157 -41z" />
    <glyph glyph-name="registered" unicode="&#xae;" horiz-adv-x="540" 
d="M270 266q-65 0 -115.5 30t-80 82t-29.5 116t29 115t79 80.5t116 29.5t117 -30t80 -81t29 -115q0 -63 -29 -115t-79.5 -82t-116.5 -30zM194 387v218h55v-218h-55zM312 387l-64 94l52 9l75 -103h-63zM269 314q53 0 92.5 23.5t62 64.5t22.5 92q0 50 -22.5 90t-62 63.5
t-92.5 23.5q-52 0 -91 -23.5t-61 -63.5t-22 -90q0 -51 22 -92t61.5 -64.5t90.5 -23.5zM236 475v40h43q13 0 20.5 6.5t7.5 18.5q0 11 -7.5 17.5t-20.5 6.5h-43v41h50q32 0 53.5 -18t21.5 -47t-21.5 -47t-55.5 -18h-48z" />
    <glyph glyph-name="trademark" unicode="&#x2122;" horiz-adv-x="748" 
d="M133 319v352h89v-352h-89zM24 597v77h307v-77h-307zM353 319v355h64l137 -206h-31l137 206h64v-355h-89v206l15 -3l-82 -123h-59l-81 123l14 3v-206h-89z" />
    <glyph glyph-name="degree" unicode="&#xb0;" horiz-adv-x="397" 
d="M199 382q-51 0 -89.5 22.5t-60.5 60t-22 85.5t22 86t60.5 60.5t89.5 22.5t89 -22.5t60 -60.5t22 -86t-22 -85.5t-60 -60t-89 -22.5zM199 500q21 0 35 14.5t14 35.5q0 22 -14 36t-35 14t-35 -14t-14 -36q0 -21 13.5 -35.5t35.5 -14.5z" />
    <glyph glyph-name="bar" unicode="|" horiz-adv-x="308" 
d="M76 -130v909h156v-909h-156z" />
    <glyph glyph-name="brokenbar" unicode="&#xa6;" horiz-adv-x="308" 
d="M76 397v382h156v-382h-156zM76 -130v383h156v-383h-156z" />
    <glyph glyph-name="uni2120" unicode="&#x2120;" horiz-adv-x="731" 
d="M161 313q-45 0 -77 14t-60 43l57 56q18 -19 39 -29t48 -10q23 0 35 8t12 21q0 12 -9 20.5t-24 14.5t-32.5 12t-35.5 14t-32.5 20t-23.5 30.5t-9 44.5q0 34 16.5 57.5t45.5 36.5t67 13t71 -13t54 -35l-57 -57q-16 17 -32.5 24.5t-37.5 7.5q-17 0 -28 -6.5t-11 -18.5
q0 -11 9 -19t24 -14t32.5 -11.5t35.5 -14t32.5 -21t23.5 -31t9 -46.5q0 -52 -37 -81.5t-105 -29.5zM336 319v355h64l137 -206h-31l137 206h64v-355h-89v206l15 -3l-82 -123h-59l-81 123l14 3v-206h-89z" />
    <glyph glyph-name="ampersand.ss01" horiz-adv-x="666" 
d="M308 -11q-81 0 -142 26.5t-94 75t-33 111.5q0 74 41.5 124t114.5 64l-3 -30q-40 10 -68 33t-43 57t-15 75q0 58 30 102t83 69t122 25q74 0 130.5 -28t87.5 -75l-111 -108q-21 32 -45 48t-56 16q-36 0 -57 -19.5t-21 -49.5q0 -19 8.5 -34t24 -24t33.5 -9v-129
q-24 0 -44 -11t-31.5 -30t-11.5 -44t13 -45t36 -30.5t54 -10.5q32 0 55 10.5t35.5 30.5t12.5 45q0 21 -7 37.5t-19.5 28t-30.5 16.5l56 86q51 -12 89 -41t59 -69t21 -87q0 -60 -35 -107t-96.5 -73t-142.5 -26zM357 306v132h289v-132h-289z" />
    <glyph glyph-name="cent" unicode="&#xa2;" horiz-adv-x="511" 
d="M297 99q-78 0 -140 33t-98 91t-36 131q0 74 36 132t99 91.5t141 33.5q58 0 105 -19t85 -57l-110 -110q-15 15 -34.5 22.5t-45.5 7.5q-28 0 -50.5 -12.5t-36 -34.5t-13.5 -53q0 -30 13.5 -52.5t36.5 -35.5t50 -13q29 0 49 9t35 26l110 -110q-41 -40 -88 -60t-108 -20z
M222 10v689h125v-689h-125z" />
    <glyph glyph-name="currency" unicode="&#xa4;" horiz-adv-x="601" 
d="M301 146q-65 0 -116.5 27t-81.5 74.5t-30 107.5t29.5 106.5t81 73.5t117.5 27t117.5 -27t80.5 -73.5t29 -106.5t-29 -107t-80.5 -74.5t-117.5 -27.5zM135 100l-89 88l111 112l89 -89zM301 289q19 0 33.5 7.5t23 22.5t8.5 35q0 21 -8.5 35.5t-23 22t-33.5 7.5t-33.5 -8.5
t-23.5 -23t-9 -34.5q0 -19 9 -33.5t23.5 -22.5t33.5 -8zM467 100l-111 111l88 89l111 -112zM157 410l-111 111l89 88l111 -111zM444 410l-88 88l111 111l88 -88z" />
    <glyph glyph-name="dollar" unicode="$" horiz-adv-x="613" 
d="M293 -11q-85 0 -148 27t-116 85l110 113q36 -38 76.5 -59t90.5 -21q44 0 68 15.5t24 43.5q0 25 -18 41.5t-46.5 29t-63 24t-69 28t-63 40.5t-46 60t-17.5 89q0 68 31.5 116t88 74t130.5 26t137 -26t104 -72l-111 -113q-31 33 -63 49t-69 16q-36 0 -57 -12.5t-21 -38.5
q0 -24 17.5 -39t46.5 -26.5t63.5 -23.5t69 -28t63 -41t46.5 -63t18 -92q0 -106 -72.5 -164t-203.5 -58zM251 -101v912h125v-912h-125z" />
    <glyph glyph-name="Euro" unicode="&#x20ac;" horiz-adv-x="710" 
d="M414 -11q-77 0 -143 27.5t-115 77t-76.5 116.5t-27.5 145q0 79 27 145.5t76 115.5t114.5 77t142.5 28q82 0 148 -26.5t117 -73.5l-120 -120q-25 29 -61.5 45t-84.5 16q-52 0 -92 -25.5t-63 -72t-23 -109.5t23 -109.5t63 -72.5t94 -26q47 0 84 15.5t64 45.5l120 -120
q-52 -47 -116.5 -73t-150.5 -26zM-15 378v98h481l-22 -98h-459zM-15 226v97h447l-21 -97h-426z" />
    <glyph glyph-name="sterling" unicode="&#xa3;" horiz-adv-x="633" 
d="M148 0v497q0 70 32 123.5t87.5 83.5t126.5 30q66 0 119 -26t84 -70l-111 -111q-18 26 -35.5 37.5t-45.5 11.5q-24 0 -41.5 -10t-27 -28t-9.5 -44v-494h-179zM52 0v154h524v-154h-524zM52 287v128h445v-128h-445z" />
    <glyph glyph-name="yen" unicode="&#xa5;" horiz-adv-x="686" 
d="M276 251l-231 458h191l159 -376h-99l159 376h187l-234 -458h-132zM255 0v322h179v-322h-179zM237 476l25 -98h-199v98h174zM63 226v97h560v-97h-560zM441 378l35 98h147v-98h-182z" />
    <glyph glyph-name="uni2215" unicode="&#x2215;" horiz-adv-x="376" 
d="M0 -62l228 825h148l-228 -825h-148z" />
    <glyph glyph-name="plus" unicode="+" horiz-adv-x="571" 
d="M47 264v141h477v-141h-477zM214 586h144v-501h-144v501z" />
    <glyph glyph-name="minus" unicode="&#x2212;" horiz-adv-x="571" 
d="M47 264v141h477v-141h-477z" />
    <glyph glyph-name="multiply" unicode="&#xd7;" horiz-adv-x="571" 
d="M145 92l-102 102l384 384l102 -102zM418 100l-368 367l102 102l368 -367z" />
    <glyph glyph-name="divide" unicode="&#xf7;" horiz-adv-x="571" 
d="M47 264v141h477v-141h-477zM286 440q-38 0 -62.5 25.5t-24.5 62.5q0 38 24.5 64t62.5 26t62.5 -26t24.5 -64q0 -37 -24.5 -62.5t-62.5 -25.5zM286 52q-38 0 -62.5 26t-24.5 63t24.5 63t62.5 26t62.5 -26t24.5 -63t-24.5 -63t-62.5 -26z" />
    <glyph glyph-name="equal" unicode="=" horiz-adv-x="571" 
d="M47 383v140h477v-140h-477zM47 138v140h477v-140h-477z" />
    <glyph glyph-name="greater" unicode="&#x3e;" horiz-adv-x="571" 
d="M46 438v152l480 -196v-118l-480 -196v152l357 138v-70z" />
    <glyph glyph-name="less" unicode="&#x3c;" horiz-adv-x="571" 
d="M526 80l-480 196v118l480 196v-152l-358 -138v70l358 -138v-152z" />
    <glyph glyph-name="plusminus" unicode="&#xb1;" horiz-adv-x="571" 
d="M47 342v140h477v-140h-477zM214 581h144v-336h-144v336zM47 74v141h477v-141h-477z" />
    <glyph glyph-name="asciitilde" unicode="~" horiz-adv-x="571" 
d="M371 260q-34 0 -57 8.5t-40.5 19t-34.5 19t-41 8.5q-26 0 -46.5 -11.5t-41.5 -34.5l-87 87q40 51 81 75.5t93 24.5q31 0 53.5 -8.5t40.5 -19.5t36.5 -19.5t41.5 -8.5q27 0 48.5 10.5t42.5 36.5l89 -88q-41 -52 -83 -75.5t-95 -23.5z" />
    <glyph glyph-name="logicalnot" unicode="&#xac;" horiz-adv-x="571" 
d="M47 322v140h477v-140h-477zM380 435h144v-265h-144v265z" />
    <glyph glyph-name="asciicircum" unicode="^" horiz-adv-x="474" 
d="M314 450l-108 210h63l-110 -210h-131l157 279h104l157 -279h-132z" />
    <glyph glyph-name="uni00B5" unicode="&#xb5;" horiz-adv-x="602" 
d="M76 -197v686h175v-686h-175zM355 -10q-88 0 -131.5 55.5t-43.5 143.5l71 21q0 -38 19.5 -54t43.5 -16t43 16t19 54v279h174v-306q0 -58 -26 -101t-70 -67.5t-99 -24.5z" />
    <glyph glyph-name="percent" unicode="%" horiz-adv-x="698" 
d="M67 0l410 709h154l-410 -709h-154zM517 -10q-42 0 -76.5 20t-54.5 54.5t-20 76.5t20 75.5t54 53.5t76 20q43 0 77.5 -20t54.5 -53.5t20 -75.5t-20 -76.5t-54 -54.5t-77 -20zM517 104q16 0 26.5 10t10.5 26t-10.5 26.5t-26.5 10.5t-26 -10.5t-10 -26.5t10.5 -26t25.5 -10z
M180 419q-41 0 -75.5 20t-54.5 54.5t-20 76.5t20 75.5t54 53.5t76 20q43 0 77.5 -20t54.5 -53.5t20 -75.5t-20.5 -76.5t-54.5 -54.5t-77 -20zM180 532q17 0 27 10.5t10 26.5t-10.5 26.5t-26.5 10.5q-15 0 -25 -10.5t-10 -26.5t10 -26.5t25 -10.5z" />
    <glyph glyph-name="arrowup" unicode="&#x2191;" horiz-adv-x="658" 
d="M255 463h149v-440h-149v440zM595 179l-266 266l-266 -266v209l266 266l266 -266v-209z" />
    <glyph glyph-name="uni2197" unicode="&#x2197;" horiz-adv-x="658" 
d="M408 521l106 -105l-344 -344l-106 105zM452 84l-4 372l-373 3l145 145h376v-376z" />
    <glyph glyph-name="arrowright" unicode="&#x2192;" horiz-adv-x="658" 
d="M454 413v-149h-440v149h440zM170 72l266 266l-266 266h209l266 -266l-266 -266h-209z" />
    <glyph glyph-name="uni2198" unicode="&#x2198;" horiz-adv-x="658" 
d="M513 260l-105 -106l-344 344l105 106zM75 216l373 4l3 373l145 -145v-376h-376z" />
    <glyph glyph-name="arrowdown" unicode="&#x2193;" horiz-adv-x="658" 
d="M404 213h-149v440h149v-440zM63 497l266 -266l266 266v-209l-266 -266l-266 266v209z" />
    <glyph glyph-name="uni2199" unicode="&#x2199;" horiz-adv-x="658" 
d="M251 155l-105 105l343 344l107 -105zM208 593l3 -373l373 -3l-144 -145h-376v376z" />
    <glyph glyph-name="arrowleft" unicode="&#x2190;" horiz-adv-x="658" 
d="M204 264v149h440v-149h-440zM488 604l-266 -266l266 -266h-209l-266 266l266 266h209z" />
    <glyph glyph-name="uni2196" unicode="&#x2196;" horiz-adv-x="658" 
d="M147 417l105 105l344 -343l-105 -107zM584 460l-372 -3l-3 -373l-145 144v376h376z" />
    <glyph glyph-name="uni0308" unicode="&#x308;" horiz-adv-x="0" 
d="M144 543q-39 0 -65 27t-26 66t26 66t65 27q40 0 65.5 -27t25.5 -66t-25.5 -66t-65.5 -27zM369 543q-39 0 -65 27t-26 66t26 66t65 27q40 0 65.5 -27t25.5 -66t-25.5 -66t-65.5 -27z" />
    <glyph glyph-name="uni0307" unicode="&#x307;" horiz-adv-x="0" 
d="M181 543q-39 0 -65 27t-26 66t26 66t65 27q41 0 66.5 -27t25.5 -66t-25.5 -66t-66.5 -27z" />
    <glyph glyph-name="gravecomb" unicode="&#x300;" horiz-adv-x="0" 
d="M248 541l-208 92l84 136l174 -142z" />
    <glyph glyph-name="acutecomb" unicode="&#x301;" horiz-adv-x="0" 
d="M90 536l-50 86l175 142l83 -136z" />
    <glyph glyph-name="uni030B" unicode="&#x30b;" horiz-adv-x="0" 
d="M122 514l-82 56l99 203l132 -88zM369 514l-82 56l99 203l132 -88z" />
    <glyph glyph-name="uni030C.alt" horiz-adv-x="0" 
d="M159 131l-81 45l75 141l50 14q-8 -16 -19 -26.5t-25 -10.5q-31 0 -57.5 26t-26.5 66q0 42 28.5 72.5t72.5 30.5q40 0 70 -30t30 -73q0 -18 -6.5 -41t-26.5 -60z" />
    <glyph glyph-name="uni0302" unicode="&#x302;" horiz-adv-x="0" 
d="M90 532l-50 74l151 140h91l151 -140l-50 -74l-215 117l137 -1z" />
    <glyph glyph-name="uni030C" unicode="&#x30c;" horiz-adv-x="0" 
d="M383 746l50 -74l-151 -140h-91l-151 140l50 74l214 -116h-137z" />
    <glyph glyph-name="uni0306" unicode="&#x306;" horiz-adv-x="0" 
d="M433 725q0 -54 -26 -98.5t-70 -70.5t-99 -26q-57 0 -101.5 26t-70.5 70t-26 99h129q0 -30 19.5 -50t49.5 -20q19 0 33.5 9t23 25t8.5 36h130z" />
    <glyph glyph-name="uni030A" unicode="&#x30a;" horiz-adv-x="0" 
d="M175 530q-39 0 -69.5 18t-48 47.5t-17.5 66.5q0 38 17.5 68t48 47.5t68.5 17.5t68.5 -17.5t48 -47.5t17.5 -67q0 -38 -17.5 -68t-48 -47.5t-67.5 -17.5zM175 618q18 0 30 13t12 32t-12 31.5t-30 12.5q-20 0 -32 -13t-12 -32q0 -18 12 -31t32 -13z" />
    <glyph glyph-name="tildecomb" unicode="&#x303;" horiz-adv-x="0" 
d="M330 538q-32 0 -55.5 11t-43.5 21.5t-42 10.5q-23 0 -39.5 -9.5t-30.5 -30.5l-79 80q28 48 62.5 69t79.5 21q32 0 55.5 -10.5t43.5 -21.5t41 -11q24 0 40.5 10t29.5 30l79 -79q-28 -48 -62 -69.5t-79 -21.5z" />
    <glyph glyph-name="uni0304" unicode="&#x304;" horiz-adv-x="0" 
d="M40 701h388v-125h-388v125z" />
    <glyph glyph-name="uni0312" unicode="&#x312;" horiz-adv-x="0" 
d="M264 818l-102 -123l-52 -3q12 14 25 22t26 5q31 -6 50.5 -37.5t11.5 -70.5q-9 -40 -43 -64t-76 -15q-40 9 -63 44.5t-13 77.5q4 17 15 38t39 53l112 133z" />
    <glyph glyph-name="uni0326" unicode="&#x326;" horiz-adv-x="0" 
d="M90 -413l-70 60l102 122l52 4q-12 -14 -25 -22.5t-26 -5.5q-32 7 -51.5 38t-10.5 70q9 41 42.5 65t76.5 15q40 -9 62.5 -44.5t13.5 -77.5q-3 -17 -14.5 -38.5t-39.5 -52.5z" />
    <glyph glyph-name="uni0327" unicode="&#x327;" horiz-adv-x="0" 
d="M153 -217q-42 0 -70 9t-58 26l49 65q14 -9 29 -14t31 -5q19 0 26.5 5.5t7.5 14.5t-10.5 15t-33.5 6h-22l33 107h90l-28 -74l-46 39q69 0 105 -26.5t36 -70.5q0 -42 -38 -69.5t-101 -27.5z" />
    <glyph glyph-name="uni0328" unicode="&#x328;" horiz-adv-x="0" 
d="M200 -217q-73 0 -116.5 31t-43.5 89q0 56 39 92.5t101 42.5l109 -38q-41 -12 -63 -30t-22 -47q0 -18 9 -27t26 -9q10 0 19 3.5t19 7.5l35 -88q-23 -13 -50.5 -20t-61.5 -7z" />
    <glyph glyph-name="dieresis" unicode="&#xa8;" horiz-adv-x="513" 
d="M144 543q-39 0 -65 27t-26 66t26 66t65 27q40 0 65.5 -27t25.5 -66t-25.5 -66t-65.5 -27zM369 543q-39 0 -65 27t-26 66t26 66t65 27q40 0 65.5 -27t25.5 -66t-25.5 -66t-65.5 -27z" />
    <glyph glyph-name="dotaccent" unicode="&#x2d9;" horiz-adv-x="363" 
d="M181 543q-39 0 -65 27t-26 66t26 66t65 27q41 0 66.5 -27t25.5 -66t-25.5 -66t-66.5 -27z" />
    <glyph glyph-name="grave" unicode="`" horiz-adv-x="338" 
d="M248 541l-208 92l84 136l174 -142z" />
    <glyph glyph-name="acute" unicode="&#xb4;" horiz-adv-x="338" 
d="M90 536l-50 86l175 142l83 -136z" />
    <glyph glyph-name="hungarumlaut" unicode="&#x2dd;" horiz-adv-x="558" 
d="M122 514l-82 56l99 203l132 -88zM369 514l-82 56l99 203l132 -88z" />
    <glyph glyph-name="circumflex" unicode="&#x2c6;" horiz-adv-x="473" 
d="M90 532l-50 74l151 140h91l151 -140l-50 -74l-215 117l137 -1z" />
    <glyph glyph-name="caron" unicode="&#x2c7;" horiz-adv-x="473" 
d="M383 746l50 -74l-151 -140h-91l-151 140l50 74l214 -116h-137z" />
    <glyph glyph-name="breve" unicode="&#x2d8;" horiz-adv-x="473" 
d="M433 725q0 -54 -26 -98.5t-70 -70.5t-99 -26q-57 0 -101.5 26t-70.5 70t-26 99h129q0 -30 19.5 -50t49.5 -20q19 0 33.5 9t23 25t8.5 36h130z" />
    <glyph glyph-name="ring" unicode="&#x2da;" horiz-adv-x="348" 
d="M175 530q-39 0 -69.5 18t-48 47.5t-17.5 66.5q0 38 17.5 68t48 47.5t68.5 17.5t68.5 -17.5t48 -47.5t17.5 -67q0 -38 -17.5 -68t-48 -47.5t-67.5 -17.5zM175 618q18 0 30 13t12 32t-12 31.5t-30 12.5q-20 0 -32 -13t-12 -32q0 -18 12 -31t32 -13z" />
    <glyph glyph-name="tilde" unicode="&#x2dc;" horiz-adv-x="511" 
d="M330 538q-32 0 -55.5 11t-43.5 21.5t-42 10.5q-23 0 -39.5 -9.5t-30.5 -30.5l-79 80q28 48 62.5 69t79.5 21q32 0 55.5 -10.5t43.5 -21.5t41 -11q24 0 40.5 10t29.5 30l79 -79q-28 -48 -62 -69.5t-79 -21.5z" />
    <glyph glyph-name="macron" unicode="&#xaf;" horiz-adv-x="468" 
d="M40 701h388v-125h-388v125z" />
    <glyph glyph-name="cedilla" unicode="&#xb8;" horiz-adv-x="318" 
d="M153 -217q-42 0 -70 9t-58 26l49 65q14 -9 29 -14t31 -5q19 0 26.5 5.5t7.5 14.5t-10.5 15t-33.5 6h-22l33 107h90l-28 -74l-46 39q69 0 105 -26.5t36 -70.5q0 -42 -38 -69.5t-101 -27.5z" />
    <glyph glyph-name="ogonek" unicode="&#x2db;" horiz-adv-x="352" 
d="M200 -217q-73 0 -116.5 31t-43.5 89q0 56 39 92.5t101 42.5l109 -38q-41 -12 -63 -30t-22 -47q0 -18 9 -27t26 -9q10 0 19 3.5t19 7.5l35 -88q-23 -13 -50.5 -20t-61.5 -7z" />
    <glyph glyph-name="apostrophe" unicode="&#x2bc;" horiz-adv-x="274" 
d="M28 426l95 142l51 13q-9 -16 -20 -26.5t-25 -10.5q-31 0 -57 26t-26 66q0 42 28.5 72.5t71.5 30.5q41 0 71 -29.5t30 -73.5q0 -17 -7 -41.5t-30 -59.5l-100 -154z" />
    <glyph glyph-name="Dcroat.BRACKET.varAlt01" horiz-adv-x="791" 
d="M214 0v154h170q60 0 104.5 23t68.5 68.5t24 110.5q0 64 -24.5 108.5t-68.5 67.5t-104 23h-178v154h179q82 0 151 -25.5t120 -72.5t79.5 -112t28.5 -144q0 -80 -28.5 -145t-79.5 -112t-119.5 -72.5t-149.5 -25.5h-173zM93 0v709h179v-709h-179zM1 281v149h361v-149h-361z
" />
    <glyph glyph-name="cent.BRACKET.varAlt01" horiz-adv-x="511" 
d="M297 99q-78 0 -140 33t-98 91t-36 131q0 74 36 132t99 91.5t141 33.5q58 0 105 -19t85 -57l-110 -110q-15 15 -34.5 22.5t-45.5 7.5q-28 0 -50.5 -12.5t-36 -34.5t-13.5 -53q0 -30 13.5 -52.5t36.5 -35.5t50 -13q29 0 49 9t35 26l110 -110q-41 -40 -88 -60t-108 -20z
M222 176h125v-166h-125v166zM347 524h-125v175h125v-175z" />
    <glyph glyph-name="dollar.BRACKET.varAlt01" horiz-adv-x="613" 
d="M293 -11q-85 0 -148 27t-116 85l110 113q36 -38 76.5 -59t90.5 -21q44 0 68 15.5t24 43.5q0 25 -18 41.5t-46.5 29t-63 24t-69 28t-63 40.5t-46 60t-17.5 89q0 68 31.5 116t88 74t130.5 26t137 -26t104 -72l-111 -113q-31 33 -63 49t-69 16q-36 0 -57 -12.5t-21 -38.5
q0 -24 17.5 -39t46.5 -26.5t63.5 -23.5t69 -28t63 -41t46.5 -63t18 -92q0 -106 -72.5 -164t-203.5 -58zM251 82h125v-183h-125v183zM376 642h-125v169h125v-169z" />
    </font>
</defs>
</svg>
